TwilioSansMono-Regular.ufo
<glyph name="exclam" format="2">
	<unicode hex="0021"/>
	<advance width="600"/>
	<outline>
		<contour>
			<point x="269" y="198" type="line"/>
			<point x="330" y="198" type="line"/>
			<point x="347" y="538" type="line"/>
			<point x="347" y="684" type="line"/>
			<point x="253" y="684" type="line"/>
			<point x="253" y="539" type="line"/>
		</contour>
		<contour>
			<point x="301" y="-12" type="curve" smooth="yes"/>
			<point x="344" y="-12"/>
			<point x="366" y="5"/>
			<point x="366" y="48" type="curve" smooth="yes"/>
			<point x="366" y="91"/>
			<point x="344" y="108"/>
			<point x="301" y="108" type="curve" smooth="yes"/>
			<point x="256" y="108"/>
			<point x="234" y="91"/>
			<point x="234" y="48" type="curve" smooth="yes"/>
			<point x="234" y="5"/>
			<point x="256" y="-12"/>
		</contour>
	</outline>
</glyph>
<glyph name="percent" format="2">
	<unicode hex="0025"/>
	<advance width="600"/>
	<outline>
		<contour>
			<point x="167" y="338" type="curve" smooth="yes"/>
			<point x="252" y="338"/>
			<point x="308" y="396"/>
			<point x="308" y="517" type="curve" smooth="yes"/>
			<point x="308" y="638"/>
			<point x="252" y="696"/>
			<point x="167" y="696" type="curve" smooth="yes"/>
			<point x="80" y="696"/>
			<point x="25" y="637"/>
			<point x="25" y="517" type="curve" smooth="yes"/>
			<point x="25" y="397"/>
			<point x="79" y="338"/>
		</contour>
		<contour>
			<point x="383" y="417" type="line"/>
			<point x="459" y="417" type="line"/>
			<point x="575" y="684" type="line"/>
			<point x="486" y="684" type="line"/>
		</contour>
		<contour>
			<point x="167" y="386" type="curve" smooth="yes"/>
			<point x="124" y="386"/>
			<point x="98" y="423"/>
			<point x="98" y="517" type="curve" smooth="yes"/>
			<point x="98" y="611"/>
			<point x="123" y="649"/>
			<point x="167" y="649" type="curve" smooth="yes"/>
			<point x="209" y="649"/>
			<point x="235" y="611"/>
			<point x="235" y="517" type="curve" smooth="yes"/>
			<point x="235" y="423"/>
			<point x="209" y="386"/>
		</contour>
		<contour>
			<point x="433" y="-12" type="curve" smooth="yes"/>
			<point x="519" y="-12"/>
			<point x="574" y="46"/>
			<point x="574" y="167" type="curve" smooth="yes"/>
			<point x="574" y="288"/>
			<point x="518" y="346"/>
			<point x="434" y="346" type="curve" smooth="yes"/>
			<point x="347" y="346"/>
			<point x="291" y="287"/>
			<point x="291" y="167" type="curve" smooth="yes"/>
			<point x="291" y="47"/>
			<point x="344" y="-12"/>
		</contour>
		<contour>
			<point x="434" y="36" type="curve" smooth="yes"/>
			<point x="390" y="36"/>
			<point x="364" y="72"/>
			<point x="364" y="167" type="curve" smooth="yes"/>
			<point x="364" y="262"/>
			<point x="389" y="299"/>
			<point x="434" y="299" type="curve" smooth="yes"/>
			<point x="475" y="299"/>
			<point x="501" y="261"/>
			<point x="501" y="167" type="curve" smooth="yes"/>
			<point x="501" y="72"/>
			<point x="476" y="36"/>
		</contour>
		<contour>
			<point x="25" y="0" type="line"/>
			<point x="114" y="0" type="line"/>
			<point x="218" y="266" type="line"/>
			<point x="141" y="266" type="line"/>
		</contour>
	</outline>
</glyph>
<glyph name="parenright" format="2">
	<unicode hex="0029"/>
	<advance width="600"/>
	<outline>
		<contour>
			<point x="108" y="-98" type="curve"/>
			<point x="135" y="-168" type="line"/>
			<point x="354" y="-79"/>
			<point x="433" y="79"/>
			<point x="433" y="316" type="curve" smooth="yes"/>
			<point x="433" y="552"/>
			<point x="351" y="709"/>
			<point x="135" y="798" type="curve"/>
			<point x="108" y="728" type="line"/>
			<point x="294" y="657"/>
			<point x="352" y="509"/>
			<point x="352" y="314" type="curve" smooth="yes"/>
			<point x="352" y="120"/>
			<point x="294" y="-26"/>
		</contour>
	</outline>
</glyph>
<glyph name="asterisk" format="2">
	<unicode hex="002A"/>
	<advance width="600"/>
	<outline>
		<contour>
			<point x="484" y="163" type="line"/>
			<point x="528" y="238" type="line"/>
			<point x="347" y="320" type="line"/>
			<point x="529" y="401" type="line"/>
			<point x="486" y="477" type="line"/>
			<point x="324" y="360" type="line"/>
			<point x="344" y="559" type="line"/>
			<point x="258" y="559" type="line"/>
			<point x="278" y="359" type="line"/>
			<point x="114" y="478" type="line"/>
			<point x="70" y="402" type="line"/>
			<point x="254" y="320" type="line"/>
			<point x="71" y="238" type="line"/>
			<point x="115" y="163" type="line"/>
			<point x="278" y="281" type="line"/>
			<point x="258" y="81" type="line"/>
			<point x="344" y="81" type="line"/>
			<point x="323" y="279" type="line"/>
		</contour>
	</outline>
</glyph>
<glyph name="comma" format="2">
	<unicode hex="002C"/>
	<advance width="600"/>
	<outline>
		<contour>
			<point x="265" y="119" type="line"/>
			<point x="210" y="-175" type="line"/>
			<point x="270" y="-175" type="line"/>
			<point x="386" y="119" type="line"/>
		</contour>
	</outline>
</glyph>
<glyph name="hyphen" format="2">
	<unicode hex="002D"/>
	<advance width="600"/>
	<outline>
		<contour>
			<point x="475" y="339" type="line"/>
			<point x="125" y="339" type="line"/>
			<point x="125" y="262" type="line"/>
			<point x="475" y="262" type="line"/>
		</contour>
	</outline>
</glyph>
<glyph name="three" format="2">
	<unicode hex="0033"/>
	<advance width="600"/>
	<outline>
		<contour>
			<point x="288" y="-14" type="curve" smooth="yes"/>
			<point x="436" y="-14"/>
			<point x="525" y="77"/>
			<point x="525" y="215" type="curve" smooth="yes"/>
			<point x="525" y="344"/>
			<point x="449" y="410"/>
			<point x="310" y="410" type="curve"/>
			<point x="300" y="410"/>
			<point x="290" y="410"/>
			<point x="281" y="409" type="curve"/>
			<point x="516" y="615" type="line"/>
			<point x="516" y="684" type="line"/>
			<point x="74" y="684" type="line"/>
			<point x="74" y="612" type="line"/>
			<point x="408" y="612" type="line"/>
			<point x="152" y="383" type="line"/>
			<point x="152" y="317" type="line"/>
			<point x="185" y="332"/>
			<point x="228" y="343"/>
			<point x="282" y="343" type="curve" smooth="yes"/>
			<point x="387" y="343"/>
			<point x="438" y="302"/>
			<point x="438" y="210" type="curve" smooth="yes"/>
			<point x="438" y="123"/>
			<point x="390" y="59"/>
			<point x="286" y="59" type="curve" smooth="yes"/>
			<point x="214" y="59"/>
			<point x="139" y="86"/>
			<point x="72" y="142" type="curve"/>
			<point x="72" y="59" type="line"/>
			<point x="114" y="25"/>
			<point x="187" y="-14"/>
		</contour>
	</outline>
</glyph>
<glyph name="six" format="2">
	<unicode hex="0036"/>
	<advance width="600"/>
	<outline>
		<contour>
			<point x="305" y="-14" type="curve" smooth="yes"/>
			<point x="457" y="-14"/>
			<point x="542" y="91"/>
			<point x="542" y="232" type="curve" smooth="yes"/>
			<point x="542" y="356"/>
			<point x="480" y="443"/>
			<point x="336" y="443" type="curve" smooth="yes"/>
			<point x="248" y="443"/>
			<point x="181" y="405"/>
			<point x="145" y="319" type="curve"/>
			<point x="148" y="517"/>
			<point x="185" y="627"/>
			<point x="344" y="627" type="curve" smooth="yes"/>
			<point x="408" y="627"/>
			<point x="488" y="602"/>
			<point x="529" y="567" type="curve"/>
			<point x="529" y="645" type="line"/>
			<point x="491" y="673"/>
			<point x="414" y="698"/>
			<point x="337" y="698" type="curve" smooth="yes"/>
			<point x="106" y="698"/>
			<point x="56" y="509"/>
			<point x="56" y="326" type="curve" smooth="yes"/>
			<point x="56" y="312" type="line" smooth="yes"/>
			<point x="56" y="133"/>
			<point x="102" y="-14"/>
		</contour>
		<contour>
			<point x="305" y="57" type="curve" smooth="yes"/>
			<point x="204" y="57"/>
			<point x="148" y="128"/>
			<point x="148" y="226" type="curve" smooth="yes"/>
			<point x="148" y="321"/>
			<point x="213" y="377"/>
			<point x="307" y="377" type="curve" smooth="yes"/>
			<point x="404" y="377"/>
			<point x="455" y="328"/>
			<point x="455" y="225" type="curve" smooth="yes"/>
			<point x="455" y="115"/>
			<point x="396" y="57"/>
		</contour>
	</outline>
</glyph>
<glyph name="C" format="2">
	<unicode hex="0043"/>
	<advance width="600"/>
	<outline>
		<contour>
			<point x="376" y="-12" type="curve" smooth="yes"/>
			<point x="446" y="-12"/>
			<point x="490" y="-1"/>
			<point x="534" y="27" type="curve"/>
			<point x="534" y="102" type="line"/>
			<point x="485" y="68"/>
			<point x="427" y="62"/>
			<point x="384" y="62" type="curve" smooth="yes"/>
			<point x="240" y="62"/>
			<point x="153" y="152"/>
			<point x="153" y="338" type="curve" smooth="yes"/>
			<point x="153" y="345" type="line" smooth="yes"/>
			<point x="153" y="529"/>
			<point x="239" y="623"/>
			<point x="387" y="623" type="curve" smooth="yes"/>
			<point x="436" y="623"/>
			<point x="486" y="613"/>
			<point x="532" y="586" type="curve"/>
			<point x="532" y="666" type="line"/>
			<point x="492" y="684"/>
			<point x="442" y="696"/>
			<point x="378" y="696" type="curve" smooth="yes"/>
			<point x="188" y="696"/>
			<point x="64" y="569"/>
			<point x="64" y="350" type="curve" smooth="yes"/>
			<point x="64" y="336" type="line" smooth="yes"/>
			<point x="64" y="108"/>
			<point x="180" y="-12"/>
		</contour>
	</outline>
	<anchor name="top" x="371" y="684"/>
	<anchor name="bottom" x="359" y="0"/>
</glyph>
<glyph name="E" format="2">
	<unicode hex="0045"/>
	<advance width="600"/>
	<outline>
		<contour>
			<point x="92" y="684" type="line"/>
			<point x="92" y="0" type="line"/>
			<point x="530" y="0" type="line"/>
			<point x="530" y="73" type="line"/>
			<point x="178" y="73" type="line"/>
			<point x="178" y="307" type="line"/>
			<point x="488" y="307" type="line"/>
			<point x="488" y="380" type="line"/>
			<point x="178" y="380" type="line"/>
			<point x="178" y="612" type="line"/>
			<point x="523" y="612" type="line"/>
			<point x="523" y="684" type="line"/>
		</contour>
	</outline>
	<anchor name="ogonek" x="530" y="0"/>
	<anchor name="bottom" x="318" y="0"/>
	<anchor name="top" x="308" y="684"/>
</glyph>
<glyph name="F" format="2">
	<unicode hex="0046"/>
	<advance width="600"/>
	<outline>
		<contour>
			<point x="98" y="0" type="line"/>
			<point x="183" y="0" type="line"/>
			<point x="183" y="302" type="line"/>
			<point x="501" y="302" type="line"/>
			<point x="501" y="374" type="line"/>
			<point x="183" y="374" type="line"/>
			<point x="183" y="612" type="line"/>
			<point x="537" y="612" type="line"/>
			<point x="537" y="684" type="line"/>
			<point x="98" y="684" type="line"/>
		</contour>
	</outline>
	<anchor name="ogonek" x="564" y="0"/>
	<anchor name="bottom" x="330" y="0"/>
	<anchor name="top" x="322" y="684"/>
</glyph>
<glyph name="G" format="2">
	<unicode hex="0047"/>
	<advance width="600"/>
	<outline>
		<contour>
			<point x="304" y="-14" type="curve" smooth="yes"/>
			<point x="452" y="-14"/>
			<point x="550" y="93"/>
			<point x="550" y="290" type="curve" smooth="yes"/>
			<point x="550" y="374" type="line"/>
			<point x="285" y="374" type="line"/>
			<point x="285" y="303" type="line"/>
			<point x="466" y="303" type="line"/>
			<point x="466" y="282" type="line" smooth="yes"/>
			<point x="466" y="137"/>
			<point x="404" y="58"/>
			<point x="306" y="58" type="curve" smooth="yes"/>
			<point x="193" y="58"/>
			<point x="132" y="145"/>
			<point x="132" y="337" type="curve" smooth="yes"/>
			<point x="132" y="344" type="line" smooth="yes"/>
			<point x="132" y="530"/>
			<point x="187" y="626"/>
			<point x="330" y="626" type="curve" smooth="yes"/>
			<point x="401" y="626"/>
			<point x="469" y="602"/>
			<point x="515" y="559" type="curve"/>
			<point x="515" y="644" type="line"/>
			<point x="477" y="673"/>
			<point x="411" y="698"/>
			<point x="325" y="698" type="curve" smooth="yes"/>
			<point x="135" y="698"/>
			<point x="44" y="572"/>
			<point x="44" y="347" type="curve" smooth="yes"/>
			<point x="44" y="333" type="line" smooth="yes"/>
			<point x="44" y="100"/>
			<point x="135" y="-14"/>
		</contour>
	</outline>
	<anchor name="top" x="317" y="684"/>
	<anchor name="bottom" x="307" y="0"/>
</glyph>
<glyph name="H" format="2">
	<unicode hex="0048"/>
	<advance width="600"/>
	<outline>
		<contour>
			<point x="76" y="0" type="line"/>
			<point x="161" y="0" type="line"/>
			<point x="161" y="309" type="line"/>
			<point x="439" y="309" type="line"/>
			<point x="439" y="0" type="line"/>
			<point x="524" y="0" type="line"/>
			<point x="524" y="684" type="line"/>
			<point x="439" y="684" type="line"/>
			<point x="439" y="382" type="line"/>
			<point x="161" y="382" type="line"/>
			<point x="161" y="684" type="line"/>
			<point x="76" y="684" type="line"/>
		</contour>
	</outline>
	<anchor name="center" x="300" y="523"/>
	<anchor name="bottom" x="287" y="0"/>
	<anchor name="top" x="300" y="684"/>
</glyph>
<glyph name="J" format="2">
	<unicode hex="004A"/>
	<advance width="600"/>
	<outline>
		<contour>
			<point x="259" y="-12" type="curve" smooth="yes"/>
			<point x="401" y="-12"/>
			<point x="502" y="55"/>
			<point x="502" y="217" type="curve" smooth="yes"/>
			<point x="502" y="684" type="line"/>
			<point x="85" y="684" type="line"/>
			<point x="85" y="610" type="line"/>
			<point x="416" y="610" type="line"/>
			<point x="416" y="224" type="line" smooth="yes"/>
			<point x="416" y="111"/>
			<point x="357" y="61"/>
			<point x="248" y="61" type="curve" smooth="yes"/>
			<point x="188" y="61"/>
			<point x="132" y="77"/>
			<point x="85" y="102" type="curve"/>
			<point x="85" y="25" type="line"/>
			<point x="130" y="2"/>
			<point x="185" y="-12"/>
		</contour>
	</outline>
	<anchor name="top" x="300" y="684"/>
	<anchor name="bottom" x="88" y="0"/>
</glyph>
<glyph name="K" format="2">
	<unicode hex="004B"/>
	<advance width="600"/>
	<outline>
		<contour>
			<point x="83" y="0" type="line"/>
			<point x="169" y="0" type="line"/>
			<point x="169" y="194" type="line"/>
			<point x="286" y="346" type="line"/>
			<point x="471" y="0" type="line"/>
			<point x="570" y="0" type="line"/>
			<point x="350" y="406" type="line"/>
			<point x="555" y="684" type="line"/>
			<point x="455" y="684" type="line"/>
			<point x="169" y="295" type="line"/>
			<point x="169" y="684" type="line"/>
			<point x="83" y="684" type="line"/>
		</contour>
	</outline>
	<anchor name="top" x="338" y="684"/>
	<anchor name="bottom" x="311" y="0"/>
</glyph>
<glyph name="L" format="2">
	<unicode hex="004C"/>
	<advance width="600"/>
	<outline>
		<contour>
			<point x="100" y="0" type="line"/>
			<point x="537" y="0" type="line"/>
			<point x="537" y="78" type="line"/>
			<point x="185" y="78" type="line"/>
			<point x="185" y="684" type="line"/>
			<point x="100" y="684" type="line"/>
		</contour>
	</outline>
	<anchor name="bottom" x="320" y="0"/>
	<anchor name="caron" x="329" y="684"/>
	<anchor name="top" x="142" y="684"/>
	<anchor name="center" x="140" y="322"/>
</glyph>
<glyph name="M" format="2">
	<unicode hex="004D"/>
	<advance width="600"/>
	<outline>
		<contour>
			<point x="62" y="0" type="line"/>
			<point x="141" y="0" type="line"/>
			<point x="141" y="378" type="line" smooth="yes"/>
			<point x="141" y="419"/>
			<point x="139" y="527"/>
			<point x="133" y="592" type="curve"/>
			<point x="140" y="592" type="line"/>
			<point x="257" y="182" type="line"/>
			<point x="342" y="182" type="line"/>
			<point x="460" y="592" type="line"/>
			<point x="468" y="592" type="line"/>
			<point x="461" y="529"/>
			<point x="459" y="450"/>
			<point x="459" y="378" type="curve" smooth="yes"/>
			<point x="459" y="0" type="line"/>
			<point x="538" y="0" type="line"/>
			<point x="538" y="684" type="line"/>
			<point x="412" y="684" type="line"/>
			<point x="303" y="278" type="line"/>
			<point x="298" y="278" type="line"/>
			<point x="188" y="684" type="line"/>
			<point x="62" y="684" type="line"/>
		</contour>
	</outline>
</glyph>
<glyph name="N" format="2">
	<unicode hex="004E"/>
	<advance width="600"/>
	<outline>
		<contour>
			<point x="76" y="0" type="line"/>
			<point x="156" y="0" type="line"/>
			<point x="156" y="354" type="line" smooth="yes"/>
			<point x="156" y="448"/>
			<point x="150" y="512"/>
			<point x="143" y="582" type="curve"/>
			<point x="149" y="582" type="line"/>
			<point x="412" y="0" type="line"/>
			<point x="524" y="0" type="line"/>
			<point x="524" y="684" type="line"/>
			<point x="444" y="684" type="line"/>
			<point x="444" y="331" type="line" smooth="yes"/>
			<point x="444" y="232"/>
			<point x="449" y="173"/>
			<point x="458" y="102" type="curve"/>
			<point x="451" y="102" type="line"/>
			<point x="188" y="684" type="line"/>
			<point x="76" y="684" type="line"/>
		</contour>
	</outline>
	<anchor name="top" x="318" y="684"/>
	<anchor name="bottom" x="280" y="0"/>
</glyph>
<glyph name="R" format="2">
	<unicode hex="0052"/>
	<advance width="600"/>
	<outline>
		<contour>
			<point x="78" y="0" type="line"/>
			<point x="163" y="0" type="line"/>
			<point x="163" y="270" type="line"/>
			<point x="304" y="270" type="line" smooth="yes"/>
			<point x="381" y="270"/>
			<point x="409" y="239"/>
			<point x="426" y="160" type="curve" smooth="yes"/>
			<point x="460" y="0" type="line"/>
			<point x="553" y="0" type="line"/>
			<point x="510" y="179" type="line" smooth="yes"/>
			<point x="492" y="255"/>
			<point x="461" y="292"/>
			<point x="401" y="306" type="curve"/>
			<point x="479" y="321"/>
			<point x="543" y="382"/>
			<point x="543" y="489" type="curve" smooth="yes"/>
			<point x="543" y="602"/>
			<point x="475" y="684"/>
			<point x="337" y="684" type="curve" smooth="yes"/>
			<point x="78" y="684" type="line"/>
		</contour>
		<contour>
			<point x="319" y="612" type="line" smooth="yes"/>
			<point x="415" y="612"/>
			<point x="456" y="558"/>
			<point x="456" y="481" type="curve" smooth="yes"/>
			<point x="456" y="397"/>
			<point x="415" y="341"/>
			<point x="319" y="341" type="curve" smooth="yes"/>
			<point x="163" y="341" type="line"/>
			<point x="163" y="612" type="line"/>
		</contour>
	</outline>
	<anchor name="top" x="283" y="684"/>
	<anchor name="bottom" x="312" y="0"/>
</glyph>
<glyph name="T" format="2">
	<unicode hex="0054"/>
	<advance width="600"/>
	<outline>
		<contour>
			<point x="257" y="0" type="line"/>
			<point x="343" y="0" type="line"/>
			<point x="343" y="610" type="line"/>
			<point x="553" y="610" type="line"/>
			<point x="553" y="684" type="line"/>
			<point x="47" y="684" type="line"/>
			<point x="47" y="610" type="line"/>
			<point x="257" y="610" type="line"/>
		</contour>
	</outline>
	<anchor name="center" x="299" y="360"/>
	<anchor name="bottom" x="300" y="0"/>
	<anchor name="top" x="300" y="684"/>
</glyph>
<glyph name="U" format="2">
	<unicode hex="0055"/>
	<advance width="600"/>
	<outline>
		<contour>
			<point x="296" y="-14" type="curve" smooth="yes"/>
			<point x="453" y="-14"/>
			<point x="526" y="82"/>
			<point x="526" y="248" type="curve" smooth="yes"/>
			<point x="526" y="684" type="line"/>
			<point x="441" y="684" type="line"/>
			<point x="441" y="248" type="line" smooth="yes"/>
			<point x="441" y="135"/>
			<point x="400" y="60"/>
			<point x="300" y="60" type="curve" smooth="yes"/>
			<point x="200" y="60"/>
			<point x="159" y="135"/>
			<point x="159" y="248" type="curve" smooth="yes"/>
			<point x="159" y="684" type="line"/>
			<point x="74" y="684" type="line"/>
			<point x="74" y="248" type="line" smooth="yes"/>
			<point x="74" y="82"/>
			<point x="140" y="-14"/>
		</contour>
	</outline>
	<anchor name="ogonek" x="389" y="0"/>
	<anchor name="bottom" x="295" y="0"/>
	<anchor name="top" x="300" y="684"/>
</glyph>
<glyph name="X" format="2">
	<unicode hex="0058"/>
	<advance width="600"/>
	<outline>
		<contour>
			<point x="32" y="0" type="line"/>
			<point x="131" y="0" type="line"/>
			<point x="299" y="298" type="line"/>
			<point x="469" y="0" type="line"/>
			<point x="568" y="0" type="line"/>
			<point x="357" y="360" type="line"/>
			<point x="554" y="684" type="line"/>
			<point x="455" y="684" type="line"/>
			<point x="300" y="421" type="line"/>
			<point x="145" y="684" type="line"/>
			<point x="46" y="684" type="line"/>
			<point x="244" y="361" type="line"/>
		</contour>
	</outline>
	<anchor name="top" x="308" y="684"/>
	<anchor name="bottom" x="314" y="0"/>
</glyph>
<glyph name="Y" format="2">
	<unicode hex="0059"/>
	<advance width="600"/>
	<outline>
		<contour>
			<point x="253" y="0" type="line"/>
			<point x="340" y="0" type="line"/>
			<point x="340" y="231" type="line"/>
			<point x="569" y="684" type="line"/>
			<point x="475" y="684" type="line"/>
			<point x="298" y="321" type="line"/>
			<point x="126" y="684" type="line"/>
			<point x="31" y="684" type="line"/>
			<point x="253" y="232" type="line"/>
		</contour>
	</outline>
	<anchor name="top" x="301" y="684"/>
	<anchor name="bottom" x="292" y="0"/>
</glyph>
<glyph name="bracketleft" format="2">
	<unicode hex="005B"/>
	<advance width="600"/>
	<outline>
		<contour>
			<point x="481" y="-99" type="line"/>
			<point x="277" y="-99" type="line"/>
			<point x="277" y="728" type="line"/>
			<point x="481" y="728" type="line"/>
			<point x="481" y="792" type="line"/>
			<point x="198" y="792" type="line"/>
			<point x="198" y="-163" type="line"/>
			<point x="481" y="-163" type="line"/>
		</contour>
	</outline>
</glyph>
<glyph name="backslash" format="2">
	<unicode hex="005C"/>
	<advance width="600"/>
	<outline>
		<contour>
			<point x="446" y="-163" type="line"/>
			<point x="532" y="-163" type="line"/>
			<point x="153" y="792" type="line"/>
			<point x="68" y="792" type="line"/>
		</contour>
	</outline>
</glyph>
<glyph name="bracketright" format="2">
	<unicode hex="005D"/>
	<advance width="600"/>
	<outline>
		<contour>
			<point x="119" y="-163" type="line"/>
			<point x="402" y="-163" type="line"/>
			<point x="402" y="792" type="line"/>
			<point x="119" y="792" type="line"/>
			<point x="119" y="728" type="line"/>
			<point x="323" y="728" type="line"/>
			<point x="323" y="-99" type="line"/>
			<point x="119" y="-99" type="line"/>
		</contour>
	</outline>
</glyph>
<glyph name="asciicircum" format="2">
	<unicode hex="005E"/>
	<advance width="600"/>
	<outline>
		<contour>
			<point x="77" y="233" type="line"/>
			<point x="159" y="233" type="line"/>
			<point x="300" y="506" type="line"/>
			<point x="441" y="233" type="line"/>
			<point x="523" y="233" type="line"/>
			<point x="340" y="575" type="line"/>
			<point x="258" y="575" type="line"/>
		</contour>
	</outline>
</glyph>
<glyph name="grave" format="2">
	<unicode hex="0060"/>
	<advance width="600"/>
	<outline>
		<contour>
			<point x="199" y="750" type="line"/>
			<point x="306" y="605" type="line"/>
			<point x="376" y="605" type="line"/>
			<point x="297" y="750" type="line"/>
		</contour>
	</outline>
	<anchor name="_top" x="340" y="523"/>
</glyph>
<glyph name="a" format="2">
	<unicode hex="0061"/>
	<advance width="600"/>
	<outline>
		<contour>
			<point x="238" y="-14" type="curve" smooth="yes"/>
			<point x="317" y="-14"/>
			<point x="380" y="27"/>
			<point x="415" y="104" type="curve"/>
			<point x="415" y="0" type="line"/>
			<point x="497" y="0" type="line"/>
			<point x="497" y="347" type="line" smooth="yes"/>
			<point x="497" y="468"/>
			<point x="422" y="537"/>
			<point x="287" y="537" type="curve" smooth="yes"/>
			<point x="211" y="537"/>
			<point x="146" y="513"/>
			<point x="96" y="482" type="curve"/>
			<point x="96" y="405" type="line"/>
			<point x="154" y="450"/>
			<point x="224" y="466"/>
			<point x="279" y="466" type="curve" smooth="yes"/>
			<point x="361" y="466"/>
			<point x="414" y="423"/>
			<point x="414" y="339" type="curve" smooth="yes"/>
			<point x="414" y="326" type="line"/>
			<point x="298" y="309" type="line" smooth="yes"/>
			<point x="154" y="289"/>
			<point x="85" y="228"/>
			<point x="85" y="130" type="curve" smooth="yes"/>
			<point x="85" y="41"/>
			<point x="150" y="-14"/>
		</contour>
		<contour>
			<point x="269" y="51" type="curve" smooth="yes"/>
			<point x="214" y="51"/>
			<point x="167" y="82"/>
			<point x="167" y="140" type="curve" smooth="yes"/>
			<point x="167" y="211"/>
			<point x="218" y="238"/>
			<point x="318" y="253" type="curve" smooth="yes"/>
			<point x="414" y="268" type="line"/>
			<point x="414" y="203" type="line" smooth="yes"/>
			<point x="414" y="105"/>
			<point x="338" y="51"/>
		</contour>
	</outline>
	<anchor name="ogonek" x="497" y="0"/>
	<anchor name="bottom" x="293" y="0"/>
	<anchor name="top" x="294" y="523"/>
</glyph>
<glyph name="d" format="2">
	<unicode hex="0064"/>
	<advance width="600"/>
	<outline>
		<contour>
			<point x="259" y="-14" type="curve" smooth="yes"/>
			<point x="341" y="-14"/>
			<point x="400" y="35"/>
			<point x="432" y="109" type="curve"/>
			<point x="432" y="0" type="line"/>
			<point x="515" y="0" type="line"/>
			<point x="515" y="750" type="line"/>
			<point x="431" y="750" type="line"/>
			<point x="431" y="424" type="line"/>
			<point x="399" y="497"/>
			<point x="346" y="537"/>
			<point x="265" y="537" type="curve" smooth="yes"/>
			<point x="149" y="537"/>
			<point x="62" y="437"/>
			<point x="62" y="269" type="curve" smooth="yes"/>
			<point x="62" y="257" type="line" smooth="yes"/>
			<point x="62" y="85"/>
			<point x="137" y="-14"/>
		</contour>
		<contour>
			<point x="288" y="55" type="curve" smooth="yes"/>
			<point x="204" y="55"/>
			<point x="149" y="122"/>
			<point x="149" y="258" type="curve" smooth="yes"/>
			<point x="149" y="265" type="line" smooth="yes"/>
			<point x="149" y="398"/>
			<point x="204" y="467"/>
			<point x="291" y="467" type="curve" smooth="yes"/>
			<point x="379" y="467"/>
			<point x="435" y="398"/>
			<point x="435" y="264" type="curve" smooth="yes"/>
			<point x="435" y="258" type="line" smooth="yes"/>
			<point x="435" y="123"/>
			<point x="372" y="55"/>
		</contour>
	</outline>
	<anchor name="caron" x="627" y="781"/>
	<anchor name="center" x="427" y="626"/>
	<anchor name="top" x="349" y="550"/>
</glyph>
<glyph name="e" format="2">
	<unicode hex="0065"/>
	<advance width="600"/>
	<outline>
		<contour>
			<point x="342" y="-14" type="curve" smooth="yes"/>
			<point x="414" y="-14"/>
			<point x="470" y="2"/>
			<point x="513" y="28" type="curve"/>
			<point x="513" y="98" type="line"/>
			<point x="470" y="72"/>
			<point x="419" y="56"/>
			<point x="357" y="56" type="curve" smooth="yes"/>
			<point x="248" y="56"/>
			<point x="163" y="112"/>
			<point x="157" y="240" type="curve"/>
			<point x="526" y="240" type="line"/>
			<point x="526" y="280" type="line" smooth="yes"/>
			<point x="526" y="451"/>
			<point x="439" y="537"/>
			<point x="305" y="537" type="curve" smooth="yes"/>
			<point x="175" y="537"/>
			<point x="73" y="434"/>
			<point x="73" y="269" type="curve" smooth="yes"/>
			<point x="73" y="256" type="line" smooth="yes"/>
			<point x="73" y="83"/>
			<point x="176" y="-14"/>
		</contour>
		<contour>
			<point x="305" y="473" type="curve" smooth="yes"/>
			<point x="382" y="473"/>
			<point x="439" y="416"/>
			<point x="444" y="300" type="curve"/>
			<point x="157" y="300" type="line"/>
			<point x="164" y="407"/>
			<point x="223" y="473"/>
		</contour>
	</outline>
	<anchor name="ogonek" x="449" y="0"/>
	<anchor name="top" x="305" y="523"/>
</glyph>
<glyph name="g" format="2">
	<unicode hex="0067"/>
	<advance width="600"/>
	<outline>
		<contour>
			<point x="260" y="-206" type="curve" smooth="yes"/>
			<point x="282" y="-206" type="line" smooth="yes"/>
			<point x="461" y="-206"/>
			<point x="551" y="-134"/>
			<point x="551" y="-41" type="curve" smooth="yes"/>
			<point x="551" y="42"/>
			<point x="493" y="75"/>
			<point x="389" y="75" type="curve" smooth="yes"/>
			<point x="230" y="75" type="line" smooth="yes"/>
			<point x="181" y="75"/>
			<point x="156" y="88"/>
			<point x="156" y="109" type="curve" smooth="yes"/>
			<point x="156" y="148"/>
			<point x="222" y="165"/>
			<point x="260" y="165" type="curve" smooth="yes"/>
			<point x="273" y="165" type="line" smooth="yes"/>
			<point x="395" y="165"/>
			<point x="480" y="234"/>
			<point x="480" y="342" type="curve" smooth="yes"/>
			<point x="480" y="386"/>
			<point x="463" y="430"/>
			<point x="435" y="453" type="curve"/>
			<point x="555" y="453" type="line"/>
			<point x="555" y="523" type="line"/>
			<point x="278" y="523" type="line" smooth="yes"/>
			<point x="169" y="523"/>
			<point x="75" y="455"/>
			<point x="75" y="339" type="curve" smooth="yes"/>
			<point x="75" y="265"/>
			<point x="115" y="202"/>
			<point x="189" y="179" type="curve"/>
			<point x="112" y="160"/>
			<point x="76" y="126"/>
			<point x="76" y="84" type="curve" smooth="yes"/>
			<point x="76" y="43"/>
			<point x="108" y="16"/>
			<point x="173" y="11" type="curve"/>
			<point x="86" y="-11"/>
			<point x="45" y="-49"/>
			<point x="45" y="-98" type="curve" smooth="yes"/>
			<point x="45" y="-163"/>
			<point x="111" y="-206"/>
		</contour>
		<contour>
			<point x="277" y="223" type="curve" smooth="yes"/>
			<point x="195" y="223"/>
			<point x="156" y="280"/>
			<point x="156" y="343" type="curve" smooth="yes"/>
			<point x="156" y="410"/>
			<point x="199" y="464"/>
			<point x="278" y="464" type="curve" smooth="yes"/>
			<point x="358" y="464"/>
			<point x="400" y="412"/>
			<point x="400" y="345" type="curve" smooth="yes"/>
			<point x="400" y="283"/>
			<point x="365" y="223"/>
		</contour>
		<contour>
			<point x="288" y="-142" type="curve" smooth="yes"/>
			<point x="269" y="-142" type="line"/>
			<point x="191" y="-142"/>
			<point x="129" y="-128"/>
			<point x="129" y="-77" type="curve" smooth="yes"/>
			<point x="129" y="-33"/>
			<point x="184" y="4"/>
			<point x="265" y="4" type="curve" smooth="yes"/>
			<point x="372" y="4" type="line" smooth="yes"/>
			<point x="435" y="4"/>
			<point x="469" y="-13"/>
			<point x="469" y="-55" type="curve" smooth="yes"/>
			<point x="469" y="-104"/>
			<point x="415" y="-142"/>
		</contour>
	</outline>
	<anchor name="top" x="280" y="523"/>
	<anchor name="bottom" x="314" y="-54"/>
</glyph>
<glyph name="j" format="2">
	<unicode hex="006A"/>
	<advance width="600"/>
	<outline>
		<contour>
			<point x="412" y="636" type="curve" smooth="yes"/>
			<point x="457" y="636"/>
			<point x="473" y="654"/>
			<point x="473" y="689" type="curve" smooth="yes"/>
			<point x="473" y="724"/>
			<point x="456" y="743"/>
			<point x="412" y="743" type="curve" smooth="yes"/>
			<point x="367" y="743"/>
			<point x="350" y="725"/>
			<point x="350" y="689" type="curve" smooth="yes"/>
			<point x="350" y="654"/>
			<point x="366" y="636"/>
		</contour>
		<contour>
			<point x="221" y="-204" type="curve" smooth="yes"/>
			<point x="346" y="-204"/>
			<point x="456" y="-161"/>
			<point x="456" y="-1" type="curve" smooth="yes"/>
			<point x="456" y="523" type="line"/>
			<point x="86" y="523" type="line"/>
			<point x="86" y="453" type="line"/>
			<point x="372" y="453" type="line"/>
			<point x="372" y="10" type="line" smooth="yes"/>
			<point x="372" y="-97"/>
			<point x="326" y="-133"/>
			<point x="212" y="-133" type="curve" smooth="yes"/>
			<point x="159" y="-133"/>
			<point x="113" y="-122"/>
			<point x="86" y="-112" type="curve"/>
			<point x="86" y="-181" type="line"/>
			<point x="113" y="-194"/>
			<point x="169" y="-204"/>
		</contour>
	</outline>
</glyph>
<glyph name="l" format="2">
	<unicode hex="006C"/>
	<advance width="600"/>
	<outline>
		<contour>
			<point x="76" y="0" type="line"/>
			<point x="532" y="0" type="line"/>
			<point x="532" y="70" type="line"/>
			<point x="350" y="70" type="line"/>
			<point x="350" y="750" type="line"/>
			<point x="77" y="750" type="line"/>
			<point x="77" y="680" type="line"/>
			<point x="266" y="680" type="line"/>
			<point x="266" y="70" type="line"/>
			<point x="76" y="70" type="line"/>
		</contour>
	</outline>
	<anchor name="bottom" x="308" y="0"/>
	<anchor name="caron" x="476" y="750"/>
	<anchor name="top" x="308" y="728"/>
	<anchor name="center" x="306" y="375"/>
</glyph>
<glyph name="o" format="2">
	<unicode hex="006F"/>
	<advance width="600"/>
	<outline>
		<contour>
			<point x="299" y="-14" type="curve" smooth="yes"/>
			<point x="434" y="-14"/>
			<point x="533" y="84"/>
			<point x="533" y="255" type="curve" smooth="yes"/>
			<point x="533" y="269" type="line" smooth="yes"/>
			<point x="533" y="436"/>
			<point x="439" y="537"/>
			<point x="300" y="537" type="curve" smooth="yes"/>
			<point x="164" y="537"/>
			<point x="67" y="437"/>
			<point x="67" y="269" type="curve" smooth="yes"/>
			<point x="67" y="255" type="line" smooth="yes"/>
			<point x="67" y="84"/>
			<point x="163" y="-14"/>
		</contour>
		<contour>
			<point x="300" y="56" type="curve" smooth="yes"/>
			<point x="213" y="56"/>
			<point x="154" y="121"/>
			<point x="154" y="258" type="curve" smooth="yes"/>
			<point x="154" y="265" type="line" smooth="yes"/>
			<point x="154" y="403"/>
			<point x="213" y="468"/>
			<point x="300" y="468" type="curve" smooth="yes"/>
			<point x="386" y="468"/>
			<point x="446" y="403"/>
			<point x="446" y="265" type="curve" smooth="yes"/>
			<point x="446" y="258" type="line" smooth="yes"/>
			<point x="446" y="121"/>
			<point x="387" y="56"/>
		</contour>
	</outline>
	<anchor name="center" x="299" y="271"/>
	<anchor name="bottom" x="297" y="-3"/>
	<anchor name="top" x="301" y="523"/>
</glyph>
<glyph name="p" format="2">
	<unicode hex="0070"/>
	<advance width="600"/>
	<outline>
		<contour>
			<point x="84" y="-194" type="line"/>
			<point x="168" y="-194" type="line"/>
			<point x="168" y="100" type="line"/>
			<point x="203" y="23"/>
			<point x="259" y="-14"/>
			<point x="336" y="-14" type="curve" smooth="yes"/>
			<point x="455" y="-14"/>
			<point x="539" y="85"/>
			<point x="539" y="257" type="curve" smooth="yes"/>
			<point x="539" y="269" type="line" smooth="yes"/>
			<point x="539" y="436"/>
			<point x="460" y="537"/>
			<point x="343" y="537" type="curve" smooth="yes"/>
			<point x="259" y="537"/>
			<point x="199" y="488"/>
			<point x="167" y="414" type="curve"/>
			<point x="167" y="523" type="line"/>
			<point x="84" y="523" type="line"/>
		</contour>
		<contour>
			<point x="309" y="56" type="curve" smooth="yes"/>
			<point x="221" y="56"/>
			<point x="164" y="125"/>
			<point x="164" y="259" type="curve" smooth="yes"/>
			<point x="164" y="265" type="line" smooth="yes"/>
			<point x="164" y="400"/>
			<point x="228" y="468"/>
			<point x="312" y="468" type="curve" smooth="yes"/>
			<point x="396" y="468"/>
			<point x="452" y="401"/>
			<point x="452" y="265" type="curve" smooth="yes"/>
			<point x="452" y="259" type="line" smooth="yes"/>
			<point x="452" y="125"/>
			<point x="397" y="56"/>
		</contour>
	</outline>
	<anchor name="top" x="354" y="523"/>
	<anchor name="bottom" x="188" y="-45"/>
</glyph>
<glyph name="r" format="2">
	<unicode hex="0072"/>
	<advance width="600"/>
	<outline>
		<contour>
			<point x="76" y="0" type="line"/>
			<point x="501" y="0" type="line"/>
			<point x="501" y="70" type="line"/>
			<point x="304" y="70" type="line"/>
			<point x="304" y="260" type="line" smooth="yes"/>
			<point x="304" y="355"/>
			<point x="360" y="452"/>
			<point x="464" y="452" type="curve" smooth="yes"/>
			<point x="490" y="452"/>
			<point x="518" y="447"/>
			<point x="534" y="439" type="curve"/>
			<point x="534" y="520" type="line"/>
			<point x="522" y="527"/>
			<point x="501" y="532"/>
			<point x="478" y="532" type="curve" smooth="yes"/>
			<point x="383" y="532"/>
			<point x="331" y="469"/>
			<point x="302" y="380" type="curve"/>
			<point x="302" y="523" type="line"/>
			<point x="78" y="523" type="line"/>
			<point x="78" y="453" type="line"/>
			<point x="219" y="453" type="line"/>
			<point x="219" y="70" type="line"/>
			<point x="76" y="70" type="line"/>
		</contour>
	</outline>
	<anchor name="top" x="337" y="523"/>
	<anchor name="bottom" x="262" y="0"/>
</glyph>
<glyph name="s" format="2">
	<unicode hex="0073"/>
	<advance width="600"/>
	<outline>
		<contour>
			<point x="306" y="-14" type="curve" smooth="yes"/>
			<point x="440" y="-14"/>
			<point x="510" y="57"/>
			<point x="510" y="151" type="curve" smooth="yes"/>
			<point x="510" y="258"/>
			<point x="425" y="281"/>
			<point x="306" y="301" type="curve" smooth="yes"/>
			<point x="225" y="316"/>
			<point x="171" y="325"/>
			<point x="171" y="386" type="curve" smooth="yes"/>
			<point x="171" y="436"/>
			<point x="212" y="471"/>
			<point x="295" y="471" type="curve" smooth="yes"/>
			<point x="376" y="471"/>
			<point x="450" y="448"/>
			<point x="501" y="408" type="curve"/>
			<point x="501" y="485" type="line"/>
			<point x="447" y="518"/>
			<point x="378" y="537"/>
			<point x="295" y="537" type="curve" smooth="yes"/>
			<point x="178" y="537"/>
			<point x="90" y="479"/>
			<point x="90" y="376" type="curve" smooth="yes"/>
			<point x="90" y="266"/>
			<point x="172" y="242"/>
			<point x="291" y="223" type="curve" smooth="yes"/>
			<point x="379" y="210"/>
			<point x="429" y="199"/>
			<point x="429" y="142" type="curve" smooth="yes"/>
			<point x="429" y="88"/>
			<point x="386" y="54"/>
			<point x="307" y="54" type="curve" smooth="yes"/>
			<point x="235" y="54"/>
			<point x="157" y="75"/>
			<point x="97" y="122" type="curve"/>
			<point x="97" y="45" type="line"/>
			<point x="149" y="9"/>
			<point x="221" y="-14"/>
		</contour>
	</outline>
	<anchor name="top" x="307" y="523"/>
	<anchor name="bottom" x="305" y="0"/>
</glyph>
<glyph name="u" format="2">
	<unicode hex="0075"/>
	<advance width="600"/>
	<outline>
		<contour>
			<point x="506" y="523" type="line"/>
			<point x="422" y="523" type="line"/>
			<point x="422" y="220" type="line" smooth="yes"/>
			<point x="422" y="190"/>
			<point x="420" y="158"/>
			<point x="408" y="134" type="curve" smooth="yes"/>
			<point x="386" y="89"/>
			<point x="349" y="56"/>
			<point x="287" y="56" type="curve" smooth="yes"/>
			<point x="216" y="56"/>
			<point x="174" y="104"/>
			<point x="174" y="193" type="curve" smooth="yes"/>
			<point x="174" y="523" type="line"/>
			<point x="90" y="523" type="line"/>
			<point x="90" y="177" type="line" smooth="yes"/>
			<point x="90" y="49"/>
			<point x="153" y="-14"/>
			<point x="254" y="-14" type="curve" smooth="yes"/>
			<point x="332" y="-14"/>
			<point x="390" y="30"/>
			<point x="424" y="102" type="curve"/>
			<point x="424" y="0" type="line"/>
			<point x="506" y="0" type="line"/>
		</contour>
	</outline>
	<anchor name="ogonek" x="506" y="0"/>
	<anchor name="bottom" x="305" y="0"/>
	<anchor name="top" x="297" y="523"/>
</glyph>
<glyph name="z" format="2">
	<unicode hex="007A"/>
	<advance width="600"/>
	<outline>
		<contour>
			<point x="95" y="0" type="line"/>
			<point x="505" y="0" type="line"/>
			<point x="505" y="70" type="line"/>
			<point x="200" y="70" type="line"/>
			<point x="505" y="457" type="line"/>
			<point x="505" y="523" type="line"/>
			<point x="101" y="523" type="line"/>
			<point x="101" y="453" type="line"/>
			<point x="403" y="453" type="line"/>
			<point x="95" y="61" type="line"/>
		</contour>
	</outline>
	<anchor name="top" x="303" y="523"/>
	<anchor name="bottom" x="304" y="0"/>
</glyph>
<glyph name="braceleft" format="2">
	<unicode hex="007B"/>
	<advance width="600"/>
	<outline>
		<contour>
			<point x="128" y="275" type="line"/>
			<point x="185" y="275" type="line" smooth="yes"/>
			<point x="261" y="275"/>
			<point x="284" y="236"/>
			<point x="284" y="205" type="curve" smooth="yes"/>
			<point x="284" y="135"/>
			<point x="177" y="71"/>
			<point x="177" y="-23" type="curve" smooth="yes"/>
			<point x="177" y="-101"/>
			<point x="229" y="-163"/>
			<point x="345" y="-163" type="curve" smooth="yes"/>
			<point x="488" y="-163" type="line"/>
			<point x="488" y="-99" type="line"/>
			<point x="366" y="-99" type="line" smooth="yes"/>
			<point x="301" y="-99"/>
			<point x="261" y="-73"/>
			<point x="261" y="-16" type="curve" smooth="yes"/>
			<point x="261" y="58"/>
			<point x="367" y="116"/>
			<point x="367" y="208" type="curve" smooth="yes"/>
			<point x="367" y="262"/>
			<point x="315" y="303"/>
			<point x="248" y="314" type="curve"/>
			<point x="315" y="325"/>
			<point x="367" y="365"/>
			<point x="367" y="419" type="curve" smooth="yes"/>
			<point x="367" y="512"/>
			<point x="261" y="571"/>
			<point x="261" y="646" type="curve" smooth="yes"/>
			<point x="261" y="703"/>
			<point x="304" y="728"/>
			<point x="365" y="728" type="curve" smooth="yes"/>
			<point x="488" y="728" type="line"/>
			<point x="488" y="792" type="line"/>
			<point x="345" y="792" type="line" smooth="yes"/>
			<point x="235" y="792"/>
			<point x="177" y="729"/>
			<point x="177" y="653" type="curve" smooth="yes"/>
			<point x="177" y="558"/>
			<point x="284" y="493"/>
			<point x="284" y="422" type="curve" smooth="yes"/>
			<point x="284" y="391"/>
			<point x="261" y="352"/>
			<point x="185" y="352" type="curve" smooth="yes"/>
			<point x="128" y="352" type="line"/>
		</contour>
	</outline>
</glyph>
<glyph name="bar" format="2">
	<unicode hex="007C"/>
	<advance width="600"/>
	<outline>
		<contour>
			<point x="260" y="792" type="line"/>
			<point x="260" y="-163" type="line"/>
			<point x="340" y="-163" type="line"/>
			<point x="340" y="792" type="line"/>
		</contour>
	</outline>
</glyph>
<glyph name="exclamdown" format="2">
	<unicode hex="00A1"/>
	<advance width="600"/>
	<outline>
		<contour>
			<point x="299" y="535" type="curve" smooth="yes"/>
			<point x="256" y="535"/>
			<point x="234" y="518"/>
			<point x="234" y="475" type="curve" smooth="yes"/>
			<point x="234" y="432"/>
			<point x="256" y="415"/>
			<point x="299" y="415" type="curve" smooth="yes"/>
			<point x="344" y="415"/>
			<point x="366" y="432"/>
			<point x="366" y="475" type="curve" smooth="yes"/>
			<point x="366" y="518"/>
			<point x="344" y="535"/>
		</contour>
		<contour>
			<point x="331" y="325" type="line"/>
			<point x="270" y="325" type="line"/>
			<point x="253" y="-15" type="line"/>
			<point x="253" y="-161" type="line"/>
			<point x="347" y="-161" type="line"/>
			<point x="347" y="-16" type="line"/>
		</contour>
	</outline>
</glyph>
<glyph name="cent" format="2">
	<unicode hex="00A2"/>
	<advance width="600"/>
	<outline>
		<contour>
			<point x="300" y="-93" type="line"/>
			<point x="367" y="-93" type="line"/>
			<point x="374" y="-12" type="line"/>
			<point x="428" y="-10"/>
			<point x="476" y="4"/>
			<point x="506" y="24" type="curve"/>
			<point x="506" y="93" type="line"/>
			<point x="473" y="74"/>
			<point x="427" y="59"/>
			<point x="378" y="58" type="curve"/>
			<point x="412" y="463" type="line"/>
			<point x="444" y="458"/>
			<point x="478" y="449"/>
			<point x="506" y="432" type="curve"/>
			<point x="506" y="504" type="line"/>
			<point x="484" y="516"/>
			<point x="452" y="526"/>
			<point x="418" y="531" type="curve"/>
			<point x="425" y="615" type="line"/>
			<point x="356" y="615" type="line"/>
			<point x="350" y="535" type="line"/>
			<point x="196" y="528"/>
			<point x="93" y="422"/>
			<point x="93" y="267" type="curve" smooth="yes"/>
			<point x="93" y="256" type="line" smooth="yes"/>
			<point x="93" y="109"/>
			<point x="173" y="12"/>
			<point x="306" y="-8" type="curve"/>
		</contour>
		<contour>
			<point x="180" y="259" type="curve" smooth="yes"/>
			<point x="180" y="266" type="line" smooth="yes"/>
			<point x="180" y="379"/>
			<point x="239" y="452"/>
			<point x="345" y="463" type="curve"/>
			<point x="313" y="65" type="line"/>
			<point x="229" y="86"/>
			<point x="180" y="155"/>
		</contour>
	</outline>
</glyph>
<glyph name="yen" format="2">
	<unicode hex="00A5"/>
	<advance width="600"/>
	<outline>
		<contour>
			<point x="87" y="185" type="line"/>
			<point x="253" y="185" type="line"/>
			<point x="253" y="0" type="line"/>
			<point x="340" y="0" type="line"/>
			<point x="340" y="185" type="line"/>
			<point x="506" y="185" type="line"/>
			<point x="506" y="243" type="line"/>
			<point x="346" y="243" type="line"/>
			<point x="383" y="316" type="line"/>
			<point x="506" y="316" type="line"/>
			<point x="506" y="375" type="line"/>
			<point x="413" y="375" type="line"/>
			<point x="569" y="684" type="line"/>
			<point x="475" y="684" type="line"/>
			<point x="298" y="321" type="line"/>
			<point x="126" y="684" type="line"/>
			<point x="31" y="684" type="line"/>
			<point x="183" y="375" type="line"/>
			<point x="87" y="375" type="line"/>
			<point x="87" y="316" type="line"/>
			<point x="212" y="316" type="line"/>
			<point x="248" y="243" type="line"/>
			<point x="87" y="243" type="line"/>
		</contour>
	</outline>
</glyph>
<glyph name="copyright" format="2">
	<unicode hex="00A9"/>
	<advance width="600"/>
	<outline>
		<contour>
			<point x="300" y="105" type="curve" smooth="yes"/>
			<point x="445" y="105"/>
			<point x="556" y="199"/>
			<point x="556" y="375" type="curve" smooth="yes"/>
			<point x="556" y="388" type="line" smooth="yes"/>
			<point x="556" y="561"/>
			<point x="443" y="657"/>
			<point x="300" y="657" type="curve" smooth="yes"/>
			<point x="157" y="657"/>
			<point x="44" y="561"/>
			<point x="44" y="387" type="curve" smooth="yes"/>
			<point x="44" y="373" type="line" smooth="yes"/>
			<point x="44" y="198"/>
			<point x="155" y="105"/>
		</contour>
		<contour>
			<point x="300" y="152" type="curve" smooth="yes"/>
			<point x="168" y="152"/>
			<point x="92" y="238"/>
			<point x="92" y="377" type="curve" smooth="yes"/>
			<point x="92" y="384" type="line" smooth="yes"/>
			<point x="92" y="524"/>
			<point x="171" y="610"/>
			<point x="300" y="610" type="curve" smooth="yes"/>
			<point x="429" y="610"/>
			<point x="508" y="523"/>
			<point x="508" y="384" type="curve" smooth="yes"/>
			<point x="508" y="377" type="line" smooth="yes"/>
			<point x="508" y="237"/>
			<point x="432" y="152"/>
		</contour>
		<contour>
			<point x="313" y="243" type="curve" smooth="yes"/>
			<point x="340" y="243"/>
			<point x="358" y="247"/>
			<point x="375" y="256" type="curve"/>
			<point x="375" y="293" type="line"/>
			<point x="360" y="287"/>
			<point x="339" y="283"/>
			<point x="318" y="283" type="curve" smooth="yes"/>
			<point x="269" y="283"/>
			<point x="237" y="318"/>
			<point x="237" y="380" type="curve" smooth="yes"/>
			<point x="237" y="442"/>
			<point x="272" y="476"/>
			<point x="320" y="476" type="curve" smooth="yes"/>
			<point x="343" y="476"/>
			<point x="363" y="471"/>
			<point x="375" y="466" type="curve"/>
			<point x="375" y="505" type="line"/>
			<point x="363" y="510"/>
			<point x="340" y="516"/>
			<point x="315" y="516" type="curve" smooth="yes"/>
			<point x="243" y="516"/>
			<point x="189" y="465"/>
			<point x="189" y="380" type="curve" smooth="yes"/>
			<point x="189" y="295"/>
			<point x="238" y="243"/>
		</contour>
	</outline>
</glyph>
<glyph name="guillemetleft" format="2">
	<unicode hex="00AB"/>
	<advance width="600"/>
	<outline>
		<contour>
			<point x="325" y="77" type="line"/>
			<point x="159" y="288" type="line"/>
			<point x="325" y="497" type="line"/>
			<point x="233" y="497" type="line"/>
			<point x="68" y="287" type="line"/>
			<point x="233" y="77" type="line"/>
		</contour>
		<contour>
			<point x="527" y="77" type="line"/>
			<point x="362" y="288" type="line"/>
			<point x="527" y="497" type="line"/>
			<point x="436" y="497" type="line"/>
			<point x="270" y="287" type="line"/>
			<point x="436" y="77" type="line"/>
		</contour>
	</outline>
</glyph>
<glyph name="registered" format="2">
	<unicode hex="00AE"/>
	<advance width="600"/>
	<outline>
		<contour>
			<point x="300" y="105" type="curve" smooth="yes"/>
			<point x="445" y="105"/>
			<point x="556" y="199"/>
			<point x="556" y="374" type="curve" smooth="yes"/>
			<point x="556" y="388" type="line" smooth="yes"/>
			<point x="556" y="561"/>
			<point x="443" y="657"/>
			<point x="300" y="657" type="curve" smooth="yes"/>
			<point x="157" y="657"/>
			<point x="44" y="561"/>
			<point x="44" y="388" type="curve" smooth="yes"/>
			<point x="44" y="374" type="line" smooth="yes"/>
			<point x="44" y="199"/>
			<point x="155" y="105"/>
		</contour>
		<contour>
			<point x="300" y="152" type="curve" smooth="yes"/>
			<point x="168" y="152"/>
			<point x="92" y="238"/>
			<point x="92" y="377" type="curve" smooth="yes"/>
			<point x="92" y="384" type="line" smooth="yes"/>
			<point x="92" y="524"/>
			<point x="171" y="610"/>
			<point x="300" y="610" type="curve" smooth="yes"/>
			<point x="429" y="610"/>
			<point x="508" y="523"/>
			<point x="508" y="384" type="curve" smooth="yes"/>
			<point x="508" y="377" type="line" smooth="yes"/>
			<point x="508" y="237"/>
			<point x="432" y="152"/>
		</contour>
		<contour>
			<point x="206" y="249" type="line"/>
			<point x="252" y="249" type="line"/>
			<point x="252" y="345" type="line"/>
			<point x="299" y="345" type="line" smooth="yes"/>
			<point x="327" y="345"/>
			<point x="336" y="334"/>
			<point x="342" y="312" type="curve" smooth="yes"/>
			<point x="361" y="249" type="line"/>
			<point x="410" y="249" type="line"/>
			<point x="388" y="318" type="line" smooth="yes"/>
			<point x="377" y="352"/>
			<point x="367" y="360"/>
			<point x="344" y="364" type="curve"/>
			<point x="382" y="369"/>
			<point x="405" y="396"/>
			<point x="405" y="436" type="curve" smooth="yes"/>
			<point x="405" y="480"/>
			<point x="379" y="511"/>
			<point x="316" y="511" type="curve" smooth="yes"/>
			<point x="206" y="511" type="line"/>
		</contour>
		<contour>
			<point x="310" y="475" type="line" smooth="yes"/>
			<point x="344" y="475"/>
			<point x="359" y="457"/>
			<point x="359" y="430" type="curve" smooth="yes"/>
			<point x="359" y="403"/>
			<point x="345" y="381"/>
			<point x="310" y="381" type="curve" smooth="yes"/>
			<point x="252" y="381" type="line"/>
			<point x="252" y="475" type="line"/>
		</contour>
	</outline>
</glyph>
<glyph name="macron" format="2">
	<unicode hex="00AF"/>
	<advance width="600"/>
	<outline>
		<contour>
			<point x="160" y="640" type="line"/>
			<point x="440" y="640" type="line"/>
			<point x="440" y="699" type="line"/>
			<point x="160" y="699" type="line"/>
		</contour>
	</outline>
	<anchor name="_top" x="300" y="523"/>
</glyph>
<glyph name="degree" format="2">
	<unicode hex="00B0"/>
	<advance width="600"/>
	<outline>
		<contour>
			<point x="303" y="304" type="curve" smooth="yes"/>
			<point x="412" y="304"/>
			<point x="489" y="388"/>
			<point x="489" y="501" type="curve" smooth="yes"/>
			<point x="489" y="615"/>
			<point x="412" y="696"/>
			<point x="303" y="696" type="curve" smooth="yes"/>
			<point x="187" y="696"/>
			<point x="111" y="615"/>
			<point x="111" y="501" type="curve" smooth="yes"/>
			<point x="111" y="388"/>
			<point x="187" y="304"/>
		</contour>
		<contour>
			<point x="300" y="367" type="curve" smooth="yes"/>
			<point x="226" y="367"/>
			<point x="175" y="423"/>
			<point x="175" y="501" type="curve" smooth="yes"/>
			<point x="175" y="579"/>
			<point x="227" y="632"/>
			<point x="300" y="632" type="curve" smooth="yes"/>
			<point x="376" y="632"/>
			<point x="425" y="579"/>
			<point x="425" y="501" type="curve" smooth="yes"/>
			<point x="425" y="423"/>
			<point x="376" y="367"/>
		</contour>
	</outline>
</glyph>
<glyph name="mu" format="2">
	<unicode hex="00B5"/>
	<advance width="600"/>
	<outline>
		<contour>
			<point x="506" y="523" type="line"/>
			<point x="422" y="523" type="line"/>
			<point x="422" y="220" type="line" smooth="yes"/>
			<point x="422" y="190"/>
			<point x="420" y="158"/>
			<point x="408" y="134" type="curve" smooth="yes"/>
			<point x="386" y="89"/>
			<point x="349" y="56"/>
			<point x="287" y="56" type="curve" smooth="yes"/>
			<point x="216" y="56"/>
			<point x="174" y="104"/>
			<point x="174" y="193" type="curve" smooth="yes"/>
			<point x="174" y="523" type="line"/>
			<point x="90" y="523" type="line"/>
			<point x="90" y="-191" type="line"/>
			<point x="174" y="-191" type="line"/>
			<point x="174" y="10" type="line"/>
			<point x="196" y="-8"/>
			<point x="226" y="-14"/>
			<point x="261" y="-14" type="curve" smooth="yes"/>
			<point x="333" y="-14"/>
			<point x="390" y="30"/>
			<point x="424" y="102" type="curve"/>
			<point x="424" y="0" type="line"/>
			<point x="506" y="0" type="line"/>
		</contour>
	</outline>
	<anchor name="ogonek" x="540" y="0"/>
	<anchor name="bottom" x="307" y="0"/>
	<anchor name="top" x="298" y="550"/>
</glyph>
<glyph name="paragraph" format="2">
	<unicode hex="00B6"/>
	<advance width="600"/>
	<outline>
		<contour>
			<point x="325" y="0" type="line"/>
			<point x="394" y="0" type="line"/>
			<point x="394" y="617" type="line"/>
			<point x="465" y="617" type="line"/>
			<point x="465" y="0" type="line"/>
			<point x="535" y="0" type="line"/>
			<point x="535" y="684" type="line"/>
			<point x="280" y="684" type="line"/>
			<point x="124" y="684"/>
			<point x="45" y="598"/>
			<point x="45" y="461" type="curve" smooth="yes"/>
			<point x="45" y="331"/>
			<point x="120" y="252"/>
			<point x="270" y="252" type="curve" smooth="yes"/>
			<point x="325" y="252" type="line"/>
		</contour>
	</outline>
</glyph>
<glyph name="ordmasculine" format="2">
	<unicode hex="00BA"/>
	<advance width="600"/>
	<outline>
		<contour>
			<point x="301" y="228" type="curve" smooth="yes"/>
			<point x="423" y="228"/>
			<point x="514" y="316"/>
			<point x="514" y="461" type="curve" smooth="yes"/>
			<point x="514" y="609"/>
			<point x="421" y="696"/>
			<point x="301" y="696" type="curve" smooth="yes"/>
			<point x="177" y="696"/>
			<point x="86" y="609"/>
			<point x="86" y="462" type="curve" smooth="yes"/>
			<point x="86" y="315"/>
			<point x="180" y="228"/>
		</contour>
		<contour>
			<point x="301" y="285" type="curve" smooth="yes"/>
			<point x="218" y="285"/>
			<point x="158" y="347"/>
			<point x="158" y="461" type="curve" smooth="yes"/>
			<point x="158" y="575"/>
			<point x="216" y="639"/>
			<point x="301" y="639" type="curve" smooth="yes"/>
			<point x="383" y="639"/>
			<point x="441" y="578"/>
			<point x="441" y="462" type="curve" smooth="yes"/>
			<point x="441" y="349"/>
			<point x="385" y="285"/>
		</contour>
	</outline>
</glyph>
<glyph name="questiondown" format="2">
	<unicode hex="00BF"/>
	<advance width="600"/>
	<outline>
		<contour>
			<point x="336" y="535" type="curve" smooth="yes"/>
			<point x="292" y="535"/>
			<point x="269" y="518"/>
			<point x="269" y="475" type="curve" smooth="yes"/>
			<point x="269" y="432"/>
			<point x="291" y="415"/>
			<point x="336" y="415" type="curve" smooth="yes"/>
			<point x="380" y="415"/>
			<point x="403" y="432"/>
			<point x="403" y="475" type="curve" smooth="yes"/>
			<point x="403" y="518"/>
			<point x="380" y="535"/>
		</contour>
		<contour>
			<point x="374" y="325" type="curve"/>
			<point x="300" y="325" type="line"/>
			<point x="299" y="281" type="line" smooth="yes"/>
			<point x="296" y="152"/>
			<point x="107" y="136"/>
			<point x="107" y="-22" type="curve" smooth="yes"/>
			<point x="107" y="-113"/>
			<point x="172" y="-175"/>
			<point x="306" y="-175" type="curve" smooth="yes"/>
			<point x="407" y="-175"/>
			<point x="470" y="-140"/>
			<point x="502" y="-119" type="curve"/>
			<point x="502" y="-41" type="line"/>
			<point x="460" y="-74"/>
			<point x="396" y="-102"/>
			<point x="319" y="-102" type="curve" smooth="yes"/>
			<point x="231" y="-102"/>
			<point x="192" y="-65"/>
			<point x="192" y="-11" type="curve" smooth="yes"/>
			<point x="192" y="109"/>
			<point x="378" y="119"/>
			<point x="378" y="286" type="curve" smooth="yes"/>
			<point x="378" y="300"/>
			<point x="377" y="311"/>
		</contour>
	</outline>
</glyph>
<glyph name="AE" format="2">
	<unicode hex="00C6"/>
	<advance width="600"/>
	<outline>
		<contour>
			<point x="8" y="0" type="line"/>
			<point x="91" y="-1" type="line"/>
			<point x="144" y="183" type="line"/>
			<point x="296" y="183" type="line"/>
			<point x="296" y="0" type="line"/>
			<point x="575" y="0" type="line"/>
			<point x="575" y="72" type="line"/>
			<point x="375" y="72" type="line"/>
			<point x="375" y="307" type="line"/>
			<point x="545" y="307" type="line"/>
			<point x="545" y="378" type="line"/>
			<point x="375" y="378" type="line"/>
			<point x="375" y="613" type="line"/>
			<point x="571" y="613" type="line"/>
			<point x="571" y="684" type="line"/>
			<point x="209" y="684" type="line"/>
		</contour>
		<contour>
			<point x="163" y="252" type="line"/>
			<point x="267" y="613" type="line"/>
			<point x="296" y="613" type="line"/>
			<point x="296" y="252" type="line"/>
		</contour>
	</outline>
	<anchor name="top" x="340" y="684"/>
</glyph>
<glyph name="Eth" format="2">
	<unicode hex="00D0"/>
	<advance width="600"/>
	<outline>
		<contour>
			<point x="73" y="0" type="line"/>
			<point x="279" y="0" type="line" smooth="yes"/>
			<point x="445" y="0"/>
			<point x="550" y="106"/>
			<point x="550" y="334" type="curve" smooth="yes"/>
			<point x="550" y="350" type="line" smooth="yes"/>
			<point x="550" y="579"/>
			<point x="442" y="684"/>
			<point x="277" y="684" type="curve" smooth="yes"/>
			<point x="73" y="684" type="line"/>
			<point x="73" y="372" type="line"/>
			<point x="5" y="372" type="line"/>
			<point x="5" y="311" type="line"/>
			<point x="73" y="311" type="line"/>
		</contour>
		<contour>
			<point x="265" y="612" type="line" smooth="yes"/>
			<point x="388" y="612"/>
			<point x="460" y="533"/>
			<point x="460" y="350" type="curve" smooth="yes"/>
			<point x="460" y="336" type="line" smooth="yes"/>
			<point x="460" y="152"/>
			<point x="394" y="73"/>
			<point x="267" y="73" type="curve" smooth="yes"/>
			<point x="158" y="73" type="line"/>
			<point x="158" y="311" type="line"/>
			<point x="313" y="311" type="line"/>
			<point x="313" y="372" type="line"/>
			<point x="158" y="372" type="line"/>
			<point x="158" y="612" type="line"/>
		</contour>
	</outline>
</glyph>
<glyph name="multiply" format="2">
	<unicode hex="00D7"/>
	<advance width="600"/>
	<outline>
		<contour>
			<point x="142" y="96" type="line"/>
			<point x="300" y="256" type="line"/>
			<point x="457" y="97" type="line"/>
			<point x="508" y="151" type="line"/>
			<point x="352" y="309" type="line"/>
			<point x="510" y="469" type="line"/>
			<point x="458" y="522" type="line"/>
			<point x="300" y="362" type="line"/>
			<point x="144" y="520" type="line"/>
			<point x="92" y="467" type="line"/>
			<point x="248" y="309" type="line"/>
			<point x="90" y="150" type="line"/>
		</contour>
	</outline>
</glyph>
<glyph name="germandbls" format="2">
	<unicode hex="00DF"/>
	<advance width="600"/>
	<outline>
		<contour>
			<point x="330" y="-9" type="curve" smooth="yes"/>
			<point x="460" y="-9"/>
			<point x="549" y="72"/>
			<point x="549" y="195" type="curve" smooth="yes"/>
			<point x="549" y="305"/>
			<point x="485" y="366"/>
			<point x="384" y="380" type="curve"/>
			<point x="471" y="399"/>
			<point x="526" y="479"/>
			<point x="525" y="563" type="curve" smooth="yes"/>
			<point x="525" y="678"/>
			<point x="454" y="760"/>
			<point x="307" y="760" type="curve" smooth="yes"/>
			<point x="139" y="760"/>
			<point x="71" y="647"/>
			<point x="71" y="521" type="curve" smooth="yes"/>
			<point x="71" y="0" type="line"/>
			<point x="155" y="0" type="line"/>
			<point x="155" y="523" type="line" smooth="yes"/>
			<point x="155" y="610"/>
			<point x="194" y="691"/>
			<point x="301" y="691" type="curve" smooth="yes"/>
			<point x="392" y="691"/>
			<point x="440" y="638"/>
			<point x="440" y="554" type="curve" smooth="yes"/>
			<point x="440" y="479"/>
			<point x="398" y="411"/>
			<point x="297" y="411" type="curve" smooth="yes"/>
			<point x="208" y="411" type="line"/>
			<point x="208" y="341" type="line"/>
			<point x="294" y="341" type="line" smooth="yes"/>
			<point x="403" y="341"/>
			<point x="461" y="300"/>
			<point x="461" y="197" type="curve" smooth="yes"/>
			<point x="461" y="112"/>
			<point x="406" y="57"/>
			<point x="321" y="57" type="curve" smooth="yes"/>
			<point x="274" y="57"/>
			<point x="239" y="69"/>
			<point x="211" y="88" type="curve"/>
			<point x="211" y="19" type="line"/>
			<point x="236" y="5"/>
			<point x="273" y="-9"/>
		</contour>
	</outline>
</glyph>
<glyph name="eth" format="2">
	<unicode hex="00F0"/>
	<advance width="600"/>
	<outline>
		<contour>
			<point x="295" y="-14" type="curve" smooth="yes"/>
			<point x="432" y="-14"/>
			<point x="534" y="83"/>
			<point x="534" y="277" type="curve" smooth="yes"/>
			<point x="534" y="291" type="line" smooth="yes"/>
			<point x="534" y="436"/>
			<point x="494" y="552"/>
			<point x="426" y="641" type="curve"/>
			<point x="518" y="677" type="line"/>
			<point x="518" y="736" type="line"/>
			<point x="388" y="685" type="line"/>
			<point x="365" y="709"/>
			<point x="340" y="731"/>
			<point x="312" y="750" type="curve"/>
			<point x="193" y="750" type="line"/>
			<point x="236" y="718"/>
			<point x="274" y="687"/>
			<point x="306" y="653" type="curve"/>
			<point x="198" y="611" type="line"/>
			<point x="198" y="552" type="line"/>
			<point x="345" y="609" type="line"/>
			<point x="389" y="553"/>
			<point x="419" y="489"/>
			<point x="437" y="408" type="curve"/>
			<point x="404" y="467"/>
			<point x="349" y="508"/>
			<point x="274" y="508" type="curve" smooth="yes"/>
			<point x="148" y="508"/>
			<point x="66" y="404"/>
			<point x="66" y="256" type="curve" smooth="yes"/>
			<point x="66" y="242" type="line" smooth="yes"/>
			<point x="66" y="79"/>
			<point x="158" y="-14"/>
		</contour>
		<contour>
			<point x="301" y="56" type="curve" smooth="yes"/>
			<point x="207" y="56"/>
			<point x="153" y="123"/>
			<point x="153" y="246" type="curve" smooth="yes"/>
			<point x="153" y="253" type="line" smooth="yes"/>
			<point x="153" y="379"/>
			<point x="215" y="442"/>
			<point x="299" y="442" type="curve" smooth="yes"/>
			<point x="385" y="442"/>
			<point x="448" y="383"/>
			<point x="448" y="259" type="curve" smooth="yes"/>
			<point x="448" y="252" type="line" smooth="yes"/>
			<point x="448" y="126"/>
			<point x="388" y="56"/>
		</contour>
	</outline>
</glyph>
<glyph name="thorn" format="2">
	<unicode hex="00FE"/>
	<advance width="600"/>
	<outline>
		<contour>
			<point x="84" y="750" type="line"/>
			<point x="84" y="-204" type="line"/>
			<point x="168" y="-204" type="line"/>
			<point x="168" y="97" type="line"/>
			<point x="202" y="24"/>
			<point x="258" y="-14"/>
			<point x="336" y="-14" type="curve" smooth="yes"/>
			<point x="453" y="-14"/>
			<point x="539" y="85"/>
			<point x="539" y="255" type="curve" smooth="yes"/>
			<point x="539" y="269" type="line" smooth="yes"/>
			<point x="539" y="436"/>
			<point x="460" y="537"/>
			<point x="343" y="537" type="curve" smooth="yes"/>
			<point x="261" y="537"/>
			<point x="199" y="487"/>
			<point x="168" y="411" type="curve"/>
			<point x="168" y="750" type="line"/>
		</contour>
		<contour>
			<point x="309" y="56" type="curve" smooth="yes"/>
			<point x="223" y="56"/>
			<point x="164" y="125"/>
			<point x="164" y="258" type="curve" smooth="yes"/>
			<point x="164" y="265" type="line" smooth="yes"/>
			<point x="164" y="400"/>
			<point x="229" y="468"/>
			<point x="312" y="468" type="curve" smooth="yes"/>
			<point x="396" y="468"/>
			<point x="452" y="401"/>
			<point x="452" y="265" type="curve" smooth="yes"/>
			<point x="452" y="258" type="line" smooth="yes"/>
			<point x="452" y="125"/>
			<point x="397" y="56"/>
		</contour>
	</outline>
</glyph>
<glyph name="Aogonek" format="2">
	<unicode hex="0104"/>
	<advance width="600"/>
	<outline>
		<contour>
			<point x="24" y="0" type="line"/>
			<point x="113" y="0" type="line"/>
			<point x="166" y="176" type="line"/>
			<point x="433" y="176" type="line"/>
			<point x="487" y="0" type="line"/>
			<point x="506" y="0" type="line"/>
			<point x="447" y="-21"/>
			<point x="410" y="-68"/>
			<point x="410" y="-115" type="curve" smooth="yes"/>
			<point x="410" y="-176"/>
			<point x="450" y="-203"/>
			<point x="518" y="-203" type="curve" smooth="yes"/>
			<point x="547" y="-203"/>
			<point x="573" y="-197"/>
			<point x="585" y="-191" type="curve"/>
			<point x="585" y="-134" type="line"/>
			<point x="574" y="-138"/>
			<point x="556" y="-141"/>
			<point x="537" y="-141" type="curve" smooth="yes"/>
			<point x="505" y="-141"/>
			<point x="481" y="-128"/>
			<point x="481" y="-91" type="curve" smooth="yes"/>
			<point x="481" y="-58"/>
			<point x="506" y="-24"/>
			<point x="576" y="0" type="curve"/>
			<point x="355" y="687" type="line"/>
			<point x="241" y="687" type="line"/>
		</contour>
		<contour>
			<point x="187" y="248" type="line"/>
			<point x="298" y="618" type="line"/>
			<point x="411" y="248" type="line"/>
		</contour>
	</outline>
</glyph>
<glyph name="dcroat" format="2">
	<unicode hex="0111"/>
	<advance width="600"/>
	<outline>
		<contour>
			<point x="259" y="-14" type="curve" smooth="yes"/>
			<point x="341" y="-14"/>
			<point x="400" y="35"/>
			<point x="432" y="109" type="curve"/>
			<point x="432" y="0" type="line"/>
			<point x="515" y="0" type="line"/>
			<point x="515" y="597" type="line"/>
			<point x="584" y="597" type="line"/>
			<point x="584" y="653" type="line"/>
			<point x="515" y="653" type="line"/>
			<point x="515" y="750" type="line"/>
			<point x="431" y="750" type="line"/>
			<point x="431" y="653" type="line"/>
			<point x="272" y="653" type="line"/>
			<point x="272" y="597" type="line"/>
			<point x="431" y="597" type="line"/>
			<point x="431" y="424" type="line"/>
			<point x="399" y="497"/>
			<point x="346" y="537"/>
			<point x="265" y="537" type="curve" smooth="yes"/>
			<point x="149" y="537"/>
			<point x="62" y="437"/>
			<point x="62" y="269" type="curve" smooth="yes"/>
			<point x="62" y="257" type="line" smooth="yes"/>
			<point x="62" y="85"/>
			<point x="137" y="-14"/>
		</contour>
		<contour>
			<point x="288" y="55" type="curve" smooth="yes"/>
			<point x="204" y="55"/>
			<point x="149" y="122"/>
			<point x="149" y="258" type="curve" smooth="yes"/>
			<point x="149" y="265" type="line" smooth="yes"/>
			<point x="149" y="398"/>
			<point x="204" y="467"/>
			<point x="291" y="467" type="curve" smooth="yes"/>
			<point x="379" y="467"/>
			<point x="435" y="398"/>
			<point x="435" y="264" type="curve" smooth="yes"/>
			<point x="435" y="258" type="line" smooth="yes"/>
			<point x="435" y="123"/>
			<point x="372" y="55"/>
		</contour>
	</outline>
</glyph>
<glyph name="Eogonek" format="2">
	<unicode hex="0118"/>
	<advance width="600"/>
	<outline>
		<contour>
			<point x="472" y="-203" type="curve" smooth="yes"/>
			<point x="501" y="-203"/>
			<point x="527" y="-197"/>
			<point x="539" y="-191" type="curve"/>
			<point x="539" y="-134" type="line"/>
			<point x="528" y="-138"/>
			<point x="510" y="-141"/>
			<point x="491" y="-141" type="curve" smooth="yes"/>
			<point x="459" y="-141"/>
			<point x="435" y="-128"/>
			<point x="435" y="-91" type="curve" smooth="yes"/>
			<point x="435" y="-58"/>
			<point x="460" y="-24"/>
			<point x="530" y="0" type="curve"/>
			<point x="530" y="73" type="line"/>
			<point x="178" y="73" type="line"/>
			<point x="178" y="307" type="line"/>
			<point x="488" y="307" type="line"/>
			<point x="488" y="380" type="line"/>
			<point x="178" y="380" type="line"/>
			<point x="178" y="612" type="line"/>
			<point x="523" y="612" type="line"/>
			<point x="523" y="684" type="line"/>
			<point x="92" y="684" type="line"/>
			<point x="92" y="0" type="line"/>
			<point x="460" y="0" type="line"/>
			<point x="401" y="-21"/>
			<point x="364" y="-68"/>
			<point x="364" y="-115" type="curve" smooth="yes"/>
			<point x="364" y="-176"/>
			<point x="404" y="-203"/>
		</contour>
	</outline>
</glyph>
<glyph name="eogonek" format="2">
	<unicode hex="0119"/>
	<advance width="600"/>
	<outline>
		<contour>
			<point x="342" y="-14" type="curve" smooth="yes"/>
			<point x="350" y="-14" type="line"/>
			<point x="307" y="-39"/>
			<point x="283" y="-77"/>
			<point x="283" y="-115" type="curve" smooth="yes"/>
			<point x="283" y="-176"/>
			<point x="323" y="-203"/>
			<point x="391" y="-203" type="curve" smooth="yes"/>
			<point x="420" y="-203"/>
			<point x="446" y="-197"/>
			<point x="458" y="-191" type="curve"/>
			<point x="458" y="-134" type="line"/>
			<point x="447" y="-138"/>
			<point x="429" y="-141"/>
			<point x="410" y="-141" type="curve" smooth="yes"/>
			<point x="378" y="-141"/>
			<point x="354" y="-128"/>
			<point x="354" y="-91" type="curve" smooth="yes"/>
			<point x="354" y="-58"/>
			<point x="379" y="-24"/>
			<point x="449" y="0" type="curve"/>
			<point x="448" y="0" type="line"/>
			<point x="473" y="7"/>
			<point x="494" y="17"/>
			<point x="513" y="28" type="curve"/>
			<point x="513" y="98" type="line"/>
			<point x="470" y="72"/>
			<point x="419" y="56"/>
			<point x="357" y="56" type="curve" smooth="yes"/>
			<point x="248" y="56"/>
			<point x="163" y="112"/>
			<point x="157" y="240" type="curve"/>
			<point x="526" y="240" type="line"/>
			<point x="526" y="280" type="line" smooth="yes"/>
			<point x="526" y="451"/>
			<point x="439" y="537"/>
			<point x="305" y="537" type="curve" smooth="yes"/>
			<point x="175" y="537"/>
			<point x="73" y="434"/>
			<point x="73" y="269" type="curve" smooth="yes"/>
			<point x="73" y="256" type="line" smooth="yes"/>
			<point x="73" y="83"/>
			<point x="176" y="-14"/>
		</contour>
		<contour>
			<point x="305" y="473" type="curve" smooth="yes"/>
			<point x="382" y="473"/>
			<point x="439" y="416"/>
			<point x="444" y="300" type="curve"/>
			<point x="157" y="300" type="line"/>
			<point x="164" y="407"/>
			<point x="223" y="473"/>
		</contour>
	</outline>
</glyph>
<glyph name="Iogonek" format="2">
	<unicode hex="012E"/>
	<advance width="600"/>
	<outline>
		<contour>
			<point x="84" y="0" type="line"/>
			<point x="445" y="0" type="line"/>
			<point x="386" y="-21"/>
			<point x="349" y="-68"/>
			<point x="349" y="-115" type="curve" smooth="yes"/>
			<point x="349" y="-176"/>
			<point x="389" y="-203"/>
			<point x="457" y="-203" type="curve" smooth="yes"/>
			<point x="486" y="-203"/>
			<point x="512" y="-197"/>
			<point x="524" y="-191" type="curve"/>
			<point x="524" y="-134" type="line"/>
			<point x="513" y="-138"/>
			<point x="495" y="-141"/>
			<point x="476" y="-141" type="curve" smooth="yes"/>
			<point x="444" y="-141"/>
			<point x="420" y="-128"/>
			<point x="420" y="-91" type="curve" smooth="yes"/>
			<point x="420" y="-58"/>
			<point x="445" y="-24"/>
			<point x="515" y="0" type="curve"/>
			<point x="516" y="0" type="line"/>
			<point x="516" y="71" type="line"/>
			<point x="343" y="71" type="line"/>
			<point x="343" y="614" type="line"/>
			<point x="516" y="614" type="line"/>
			<point x="516" y="684" type="line"/>
			<point x="84" y="684" type="line"/>
			<point x="84" y="614" type="line"/>
			<point x="257" y="614" type="line"/>
			<point x="257" y="71" type="line"/>
			<point x="84" y="71" type="line"/>
		</contour>
	</outline>
</glyph>
<glyph name="dotlessi" format="2">
	<unicode hex="0131"/>
	<advance width="600"/>
	<outline>
		<contour>
			<point x="87" y="0" type="line"/>
			<point x="543" y="0" type="line"/>
			<point x="543" y="70" type="line"/>
			<point x="362" y="70" type="line"/>
			<point x="362" y="523" type="line"/>
			<point x="88" y="523" type="line"/>
			<point x="88" y="453" type="line"/>
			<point x="278" y="453" type="line"/>
			<point x="278" y="70" type="line"/>
			<point x="87" y="70" type="line"/>
		</contour>
	</outline>
	<anchor name="ogonek" x="543" y="0"/>
	<anchor name="top" x="320" y="523"/>
</glyph>
<glyph name="IJ" format="2">
	<unicode hex="0132"/>
	<advance width="600"/>
	<outline>
		<contour>
			<point x="268" y="-12" type="curve" smooth="yes"/>
			<point x="406" y="-12"/>
			<point x="504" y="56"/>
			<point x="504" y="217" type="curve" smooth="yes"/>
			<point x="504" y="684" type="line"/>
			<point x="419" y="684" type="line"/>
			<point x="419" y="226" type="line" smooth="yes"/>
			<point x="419" y="110"/>
			<point x="362" y="60"/>
			<point x="260" y="60" type="curve" smooth="yes"/>
			<point x="197" y="60"/>
			<point x="138" y="77"/>
			<point x="94" y="101" type="curve"/>
			<point x="94" y="25" type="line"/>
			<point x="136" y="2"/>
			<point x="192" y="-12"/>
		</contour>
		<contour>
			<point x="95" y="203" type="line"/>
			<point x="177" y="203" type="line"/>
			<point x="177" y="684" type="line"/>
			<point x="95" y="684" type="line"/>
		</contour>
	</outline>
</glyph>
<glyph name="Ldot" format="2">
	<unicode hex="013F"/>
	<advance width="600"/>
	<outline>
		<contour>
			<point x="100" y="0" type="line"/>
			<point x="537" y="0" type="line"/>
			<point x="537" y="78" type="line"/>
			<point x="185" y="78" type="line"/>
			<point x="185" y="684" type="line"/>
			<point x="100" y="684" type="line"/>
		</contour>
		<contour>
			<point x="441" y="339" type="curve" smooth="yes"/>
			<point x="485" y="339"/>
			<point x="510" y="357"/>
			<point x="510" y="408" type="curve" smooth="yes"/>
			<point x="510" y="458"/>
			<point x="485" y="476"/>
			<point x="441" y="476" type="curve" smooth="yes"/>
			<point x="398" y="476"/>
			<point x="373" y="458"/>
			<point x="373" y="408" type="curve" smooth="yes"/>
			<point x="373" y="357"/>
			<point x="398" y="339"/>
		</contour>
	</outline>
</glyph>
<glyph name="Lslash" format="2">
	<unicode hex="0141"/>
	<advance width="600"/>
	<outline>
		<contour>
			<point x="100" y="0" type="line"/>
			<point x="537" y="0" type="line"/>
			<point x="537" y="78" type="line"/>
			<point x="185" y="78" type="line"/>
			<point x="185" y="313" type="line"/>
			<point x="366" y="385" type="line"/>
			<point x="366" y="452" type="line"/>
			<point x="185" y="380" type="line"/>
			<point x="185" y="684" type="line"/>
			<point x="100" y="684" type="line"/>
			<point x="100" y="346" type="line"/>
			<point x="20" y="314" type="line"/>
			<point x="20" y="247" type="line"/>
			<point x="100" y="279" type="line"/>
		</contour>
	</outline>
</glyph>
<glyph name="Scedilla" format="2">
	<unicode hex="015E"/>
	<advance width="600"/>
	<outline>
		<contour>
			<point x="292" y="-219" type="curve" smooth="yes"/>
			<point x="362" y="-219"/>
			<point x="407" y="-187"/>
			<point x="407" y="-124" type="curve" smooth="yes"/>
			<point x="407" y="-77"/>
			<point x="376" y="-49"/>
			<point x="316" y="-47" type="curve"/>
			<point x="332" y="-13" type="line"/>
			<point x="454" y="-5"/>
			<point x="538" y="68"/>
			<point x="538" y="194" type="curve" smooth="yes"/>
			<point x="538" y="341"/>
			<point x="422" y="360"/>
			<point x="305" y="382" type="curve" smooth="yes"/>
			<point x="207" y="400"/>
			<point x="150" y="422"/>
			<point x="150" y="501" type="curve" smooth="yes"/>
			<point x="150" y="585"/>
			<point x="213" y="628"/>
			<point x="299" y="628" type="curve" smooth="yes"/>
			<point x="384" y="628"/>
			<point x="466" y="600"/>
			<point x="520" y="556" type="curve"/>
			<point x="520" y="638" type="line"/>
			<point x="468" y="673"/>
			<point x="392" y="698"/>
			<point x="301" y="698" type="curve" smooth="yes"/>
			<point x="164" y="698"/>
			<point x="64" y="624"/>
			<point x="64" y="492" type="curve" smooth="yes"/>
			<point x="64" y="349"/>
			<point x="168" y="321"/>
			<point x="284" y="302" type="curve" smooth="yes"/>
			<point x="380" y="285"/>
			<point x="452" y="272"/>
			<point x="452" y="185" type="curve" smooth="yes"/>
			<point x="452" y="99"/>
			<point x="392" y="58"/>
			<point x="308" y="58" type="curve" smooth="yes"/>
			<point x="217" y="58"/>
			<point x="138" y="92"/>
			<point x="71" y="151" type="curve"/>
			<point x="71" y="63" type="line"/>
			<point x="123" y="25"/>
			<point x="187" y="-7"/>
			<point x="279" y="-13" type="curve"/>
			<point x="245" y="-91" type="line"/>
			<point x="252" y="-89"/>
			<point x="266" y="-87"/>
			<point x="283" y="-87" type="curve" smooth="yes"/>
			<point x="319" y="-87"/>
			<point x="345" y="-96"/>
			<point x="345" y="-126" type="curve" smooth="yes"/>
			<point x="345" y="-157"/>
			<point x="322" y="-168"/>
			<point x="283" y="-168" type="curve" smooth="yes"/>
			<point x="262" y="-168"/>
			<point x="238" y="-162"/>
			<point x="213" y="-150" type="curve"/>
			<point x="213" y="-201" type="line"/>
			<point x="231" y="-211"/>
			<point x="263" y="-219"/>
		</contour>
	</outline>
</glyph>
<glyph name="scedilla" format="2">
	<unicode hex="015F"/>
	<advance width="600"/>
	<outline>
		<contour>
			<point x="285" y="-219" type="curve" smooth="yes"/>
			<point x="355" y="-219"/>
			<point x="400" y="-187"/>
			<point x="400" y="-124" type="curve" smooth="yes"/>
			<point x="400" y="-77"/>
			<point x="369" y="-49"/>
			<point x="309" y="-47" type="curve"/>
			<point x="325" y="-14" type="line"/>
			<point x="446" y="-7"/>
			<point x="510" y="61"/>
			<point x="510" y="151" type="curve" smooth="yes"/>
			<point x="510" y="258"/>
			<point x="425" y="281"/>
			<point x="306" y="301" type="curve" smooth="yes"/>
			<point x="225" y="316"/>
			<point x="171" y="325"/>
			<point x="171" y="386" type="curve" smooth="yes"/>
			<point x="171" y="436"/>
			<point x="212" y="471"/>
			<point x="295" y="471" type="curve" smooth="yes"/>
			<point x="376" y="471"/>
			<point x="450" y="448"/>
			<point x="501" y="408" type="curve"/>
			<point x="501" y="485" type="line"/>
			<point x="447" y="518"/>
			<point x="378" y="537"/>
			<point x="295" y="537" type="curve" smooth="yes"/>
			<point x="178" y="537"/>
			<point x="90" y="479"/>
			<point x="90" y="376" type="curve" smooth="yes"/>
			<point x="90" y="266"/>
			<point x="172" y="242"/>
			<point x="291" y="223" type="curve" smooth="yes"/>
			<point x="379" y="210"/>
			<point x="429" y="199"/>
			<point x="429" y="142" type="curve" smooth="yes"/>
			<point x="429" y="88"/>
			<point x="386" y="54"/>
			<point x="307" y="54" type="curve" smooth="yes"/>
			<point x="235" y="54"/>
			<point x="157" y="75"/>
			<point x="97" y="122" type="curve"/>
			<point x="97" y="45" type="line"/>
			<point x="142" y="14"/>
			<point x="202" y="-8"/>
			<point x="272" y="-13" type="curve"/>
			<point x="238" y="-91" type="line"/>
			<point x="245" y="-89"/>
			<point x="259" y="-87"/>
			<point x="276" y="-87" type="curve" smooth="yes"/>
			<point x="312" y="-87"/>
			<point x="338" y="-96"/>
			<point x="338" y="-126" type="curve" smooth="yes"/>
			<point x="338" y="-157"/>
			<point x="315" y="-168"/>
			<point x="276" y="-168" type="curve" smooth="yes"/>
			<point x="255" y="-168"/>
			<point x="231" y="-162"/>
			<point x="206" y="-150" type="curve"/>
			<point x="206" y="-201" type="line"/>
			<point x="224" y="-211"/>
			<point x="256" y="-219"/>
		</contour>
	</outline>
</glyph>
<glyph name="Tbar" format="2">
	<unicode hex="0166"/>
	<advance width="600"/>
	<outline>
		<contour>
			<point x="257" y="0" type="line"/>
			<point x="343" y="0" type="line"/>
			<point x="343" y="329" type="line"/>
			<point x="472" y="329" type="line"/>
			<point x="472" y="390" type="line"/>
			<point x="343" y="390" type="line"/>
			<point x="343" y="610" type="line"/>
			<point x="553" y="610" type="line"/>
			<point x="553" y="684" type="line"/>
			<point x="47" y="684" type="line"/>
			<point x="47" y="610" type="line"/>
			<point x="257" y="610" type="line"/>
			<point x="257" y="390" type="line"/>
			<point x="128" y="390" type="line"/>
			<point x="128" y="329" type="line"/>
			<point x="257" y="329" type="line"/>
		</contour>
	</outline>
</glyph>
<glyph name="Oslashacute" format="2">
	<unicode hex="01FE"/>
	<advance width="600"/>
	<outline>
		<contour>
			<point x="267" y="748" type="line"/>
			<point x="337" y="748" type="line"/>
			<point x="426" y="884" type="line"/>
			<point x="332" y="884" type="line"/>
		</contour>
		<contour>
			<point x="300" y="-14" type="curve" smooth="yes"/>
			<point x="451" y="-14"/>
			<point x="544" y="104"/>
			<point x="544" y="335" type="curve" smooth="yes"/>
			<point x="544" y="349" type="line" smooth="yes"/>
			<point x="544" y="453"/>
			<point x="525" y="535"/>
			<point x="490" y="593" type="curve"/>
			<point x="561" y="708" type="line"/>
			<point x="486" y="708" type="line"/>
			<point x="448" y="645" type="line"/>
			<point x="409" y="680"/>
			<point x="359" y="698"/>
			<point x="300" y="698" type="curve" smooth="yes"/>
			<point x="149" y="698"/>
			<point x="56" y="579"/>
			<point x="56" y="349" type="curve" smooth="yes"/>
			<point x="56" y="335" type="line" smooth="yes"/>
			<point x="56" y="231"/>
			<point x="75" y="149"/>
			<point x="110" y="91" type="curve"/>
			<point x="39" y="-24" type="line"/>
			<point x="114" y="-24" type="line"/>
			<point x="152" y="40" type="line"/>
			<point x="191" y="4"/>
			<point x="241" y="-14"/>
		</contour>
		<contour>
			<point x="145" y="338" type="curve" smooth="yes"/>
			<point x="145" y="345" type="line" smooth="yes"/>
			<point x="145" y="540"/>
			<point x="202" y="626"/>
			<point x="300" y="626" type="curve" smooth="yes"/>
			<point x="344" y="626"/>
			<point x="379" y="609"/>
			<point x="405" y="572" type="curve"/>
			<point x="164" y="177" type="line"/>
			<point x="152" y="219"/>
			<point x="145" y="273"/>
		</contour>
		<contour>
			<point x="300" y="58" type="curve" smooth="yes"/>
			<point x="256" y="58"/>
			<point x="221" y="75"/>
			<point x="195" y="112" type="curve"/>
			<point x="436" y="506" type="line"/>
			<point x="448" y="464"/>
			<point x="455" y="411"/>
			<point x="455" y="345" type="curve" smooth="yes"/>
			<point x="455" y="338" type="line" smooth="yes"/>
			<point x="455" y="145"/>
			<point x="397" y="58"/>
		</contour>
	</outline>
</glyph>
<glyph name="circumflex" format="2">
	<unicode hex="02C6"/>
	<advance width="600"/>
	<outline>
		<contour>
			<point x="138" y="605" type="line"/>
			<point x="217" y="605" type="line"/>
			<point x="300" y="707" type="line"/>
			<point x="381" y="605" type="line"/>
			<point x="462" y="605" type="line"/>
			<point x="344" y="750" type="line"/>
			<point x="256" y="750" type="line"/>
		</contour>
	</outline>
	<anchor name="_top" x="300" y="523"/>
</glyph>
<glyph name="breve" format="2">
	<unicode hex="02D8"/>
	<advance width="600"/>
	<outline>
		<contour>
			<point x="298" y="595" type="curve" smooth="yes"/>
			<point x="401" y="595"/>
			<point x="447" y="638"/>
			<point x="447" y="750" type="curve"/>
			<point x="381" y="750" type="line"/>
			<point x="381" y="678"/>
			<point x="361" y="648"/>
			<point x="300" y="648" type="curve" smooth="yes"/>
			<point x="238" y="648"/>
			<point x="219" y="679"/>
			<point x="219" y="750" type="curve"/>
			<point x="153" y="750" type="line"/>
			<point x="153" y="638"/>
			<point x="196" y="595"/>
		</contour>
	</outline>
	<anchor name="_top" x="299" y="523"/>
</glyph>
<glyph name="ring" format="2">
	<unicode hex="02DA"/>
	<advance width="600"/>
	<outline>
		<contour>
			<point x="300" y="594" type="curve" smooth="yes"/>
			<point x="375" y="594"/>
			<point x="420" y="636"/>
			<point x="420" y="712" type="curve" smooth="yes"/>
			<point x="420" y="789"/>
			<point x="371" y="827"/>
			<point x="301" y="827" type="curve" smooth="yes"/>
			<point x="233" y="827"/>
			<point x="180" y="791"/>
			<point x="180" y="711" type="curve" smooth="yes"/>
			<point x="180" y="631"/>
			<point x="226" y="594"/>
		</contour>
		<contour>
			<point x="300" y="641" type="curve" smooth="yes"/>
			<point x="254" y="641"/>
			<point x="231" y="667"/>
			<point x="231" y="711" type="curve" smooth="yes"/>
			<point x="231" y="755"/>
			<point x="254" y="781"/>
			<point x="301" y="781" type="curve" smooth="yes"/>
			<point x="346" y="781"/>
			<point x="369" y="755"/>
			<point x="369" y="711" type="curve" smooth="yes"/>
			<point x="369" y="667"/>
			<point x="347" y="641"/>
		</contour>
	</outline>
	<anchor name="_top" x="300" y="523"/>
</glyph>
<glyph name="ogonek" format="2">
	<unicode hex="02DB"/>
	<advance width="600"/>
	<outline>
		<contour>
			<point x="319" y="-203" type="curve" smooth="yes"/>
			<point x="348" y="-203"/>
			<point x="374" y="-197"/>
			<point x="386" y="-191" type="curve"/>
			<point x="386" y="-134" type="line"/>
			<point x="375" y="-138"/>
			<point x="357" y="-141"/>
			<point x="338" y="-141" type="curve" smooth="yes"/>
			<point x="306" y="-141"/>
			<point x="282" y="-128"/>
			<point x="282" y="-91" type="curve" smooth="yes"/>
			<point x="282" y="-58"/>
			<point x="307" y="-24"/>
			<point x="377" y="0" type="curve"/>
			<point x="310" y="1" type="line"/>
			<point x="248" y="-21"/>
			<point x="211" y="-68"/>
			<point x="211" y="-115" type="curve" smooth="yes"/>
			<point x="211" y="-176"/>
			<point x="251" y="-203"/>
		</contour>
	</outline>
	<anchor name="_ogonek" x="377" y="0"/>
</glyph>
<glyph name="hungarumlaut" format="2">
	<unicode hex="02DD"/>
	<advance width="600"/>
	<outline>
		<contour>
			<point x="310" y="605" type="line"/>
			<point x="374" y="605" type="line"/>
			<point x="465" y="750" type="line"/>
			<point x="379" y="750" type="line"/>
		</contour>
		<contour>
			<point x="138" y="605" type="line"/>
			<point x="203" y="605" type="line"/>
			<point x="293" y="750" type="line"/>
			<point x="207" y="750" type="line"/>
		</contour>
	</outline>
	<anchor name="_top" x="257" y="523"/>
</glyph>
<glyph name="pi" format="2">
	<unicode hex="03C0"/>
	<advance width="600"/>
	<outline>
		<contour>
			<point x="111" y="0" type="line"/>
			<point x="191" y="0" type="line"/>
			<point x="191" y="454" type="line"/>
			<point x="395" y="454" type="line"/>
			<point x="395" y="106" type="line" smooth="yes"/>
			<point x="395" y="25"/>
			<point x="432" y="-12"/>
			<point x="510" y="-12" type="curve" smooth="yes"/>
			<point x="534" y="-12"/>
			<point x="556" y="-7"/>
			<point x="569" y="-2" type="curve"/>
			<point x="569" y="59" type="line"/>
			<point x="560" y="56"/>
			<point x="546" y="54"/>
			<point x="532" y="54" type="curve" smooth="yes"/>
			<point x="495" y="54"/>
			<point x="476" y="71"/>
			<point x="476" y="113" type="curve" smooth="yes"/>
			<point x="476" y="454" type="line"/>
			<point x="570" y="454" type="line"/>
			<point x="570" y="523" type="line"/>
			<point x="19" y="523" type="line"/>
			<point x="19" y="454" type="line"/>
			<point x="111" y="454" type="line"/>
		</contour>
	</outline>
</glyph>
<glyph name="endash" format="2">
	<unicode hex="2013"/>
	<advance width="600"/>
	<outline>
		<contour>
			<point x="540" y="339" type="line"/>
			<point x="60" y="339" type="line"/>
			<point x="60" y="261" type="line"/>
			<point x="540" y="261" type="line"/>
		</contour>
	</outline>
</glyph>
<glyph name="emdash" format="2">
	<unicode hex="2014"/>
	<advance width="600"/>
	<outline>
		<contour>
			<point x="600" y="339" type="line"/>
			<point x="0" y="339" type="line"/>
			<point x="0" y="261" type="line"/>
			<point x="600" y="261" type="line"/>
		</contour>
	</outline>
</glyph>
<glyph name="quotesinglbase" format="2">
	<unicode hex="201A"/>
	<advance width="600"/>
	<outline>
		<contour>
			<point x="268" y="116" type="line"/>
			<point x="215" y="-166" type="line"/>
			<point x="273" y="-166" type="line"/>
			<point x="382" y="116" type="line"/>
		</contour>
	</outline>
</glyph>
<glyph name="quotedblright" format="2">
	<unicode hex="201D"/>
	<advance width="600"/>
	<outline>
		<contour>
			<point x="191" y="750" type="line"/>
			<point x="138" y="468" type="line"/>
			<point x="195" y="468" type="line"/>
			<point x="304" y="750" type="line"/>
		</contour>
		<contour>
			<point x="372" y="750" type="line"/>
			<point x="318" y="468" type="line"/>
			<point x="375" y="468" type="line"/>
			<point x="484" y="750" type="line"/>
		</contour>
	</outline>
</glyph>
<glyph name="perthousand" format="2">
	<unicode hex="2030"/>
	<advance width="600"/>
	<outline>
		<contour>
			<point x="147" y="393" type="curve" smooth="yes"/>
			<point x="224" y="393"/>
			<point x="276" y="444"/>
			<point x="276" y="542" type="curve" smooth="yes"/>
			<point x="276" y="640"/>
			<point x="227" y="691"/>
			<point x="149" y="691" type="curve" smooth="yes"/>
			<point x="72" y="691"/>
			<point x="20" y="640"/>
			<point x="20" y="542" type="curve" smooth="yes"/>
			<point x="20" y="444"/>
			<point x="70" y="393"/>
		</contour>
		<contour>
			<point x="148" y="441" type="curve" smooth="yes"/>
			<point x="99" y="441"/>
			<point x="78" y="475"/>
			<point x="78" y="542" type="curve" smooth="yes"/>
			<point x="78" y="608"/>
			<point x="100" y="644"/>
			<point x="149" y="644" type="curve" smooth="yes"/>
			<point x="196" y="644"/>
			<point x="219" y="608"/>
			<point x="219" y="542" type="curve" smooth="yes"/>
			<point x="219" y="475"/>
			<point x="196" y="441"/>
		</contour>
		<contour>
			<point x="22" y="271" type="line"/>
			<point x="569" y="409" type="line"/>
			<point x="569" y="459" type="line"/>
			<point x="22" y="321" type="line"/>
		</contour>
		<contour>
			<point x="252" y="-7" type="curve" smooth="yes"/>
			<point x="296" y="-7"/>
			<point x="330" y="10"/>
			<point x="352" y="40" type="curve"/>
			<point x="374" y="9"/>
			<point x="408" y="-7"/>
			<point x="451" y="-7" type="curve" smooth="yes"/>
			<point x="529" y="-7"/>
			<point x="580" y="44"/>
			<point x="580" y="142" type="curve" smooth="yes"/>
			<point x="580" y="240"/>
			<point x="531" y="291"/>
			<point x="454" y="291" type="curve" smooth="yes"/>
			<point x="410" y="291"/>
			<point x="376" y="274"/>
			<point x="353" y="244" type="curve"/>
			<point x="331" y="274"/>
			<point x="298" y="291"/>
			<point x="254" y="291" type="curve" smooth="yes"/>
			<point x="177" y="291"/>
			<point x="125" y="240"/>
			<point x="125" y="142" type="curve" smooth="yes"/>
			<point x="125" y="44"/>
			<point x="175" y="-7"/>
		</contour>
		<contour>
			<point x="253" y="41" type="curve" smooth="yes"/>
			<point x="205" y="41"/>
			<point x="184" y="75"/>
			<point x="184" y="142" type="curve" smooth="yes"/>
			<point x="184" y="208"/>
			<point x="206" y="244"/>
			<point x="254" y="244" type="curve" smooth="yes"/>
			<point x="302" y="244"/>
			<point x="324" y="208"/>
			<point x="324" y="142" type="curve" smooth="yes"/>
			<point x="324" y="75"/>
			<point x="301" y="41"/>
		</contour>
		<contour>
			<point x="452" y="41" type="curve" smooth="yes"/>
			<point x="404" y="41"/>
			<point x="382" y="75"/>
			<point x="382" y="142" type="curve" smooth="yes"/>
			<point x="382" y="208"/>
			<point x="405" y="244"/>
			<point x="452" y="244" type="curve" smooth="yes"/>
			<point x="501" y="244"/>
			<point x="522" y="208"/>
			<point x="522" y="142" type="curve" smooth="yes"/>
			<point x="522" y="75"/>
			<point x="500" y="41"/>
		</contour>
	</outline>
</glyph>
<glyph name="guilsinglleft" format="2">
	<unicode hex="2039"/>
	<advance width="600"/>
	<outline>
		<contour>
			<point x="350" y="77" type="line"/>
			<point x="459" y="77" type="line"/>
			<point x="238" y="289" type="line"/>
			<point x="459" y="497" type="line"/>
			<point x="349" y="497" type="line"/>
			<point x="129" y="287" type="line"/>
		</contour>
	</outline>
</glyph>
<glyph name="guilsinglright" format="2">
	<unicode hex="203A"/>
	<advance width="600"/>
	<outline>
		<contour>
			<point x="141" y="77" type="line"/>
			<point x="250" y="77" type="line"/>
			<point x="471" y="287" type="line"/>
			<point x="250" y="497" type="line"/>
			<point x="141" y="497" type="line"/>
			<point x="362" y="289" type="line"/>
		</contour>
	</outline>
</glyph>
<glyph name="fraction" format="2">
	<unicode hex="2044"/>
	<advance width="600"/>
	<outline>
		<contour>
			<point x="383" y="417" type="line"/>
			<point x="459" y="417" type="line"/>
			<point x="575" y="684" type="line"/>
			<point x="486" y="684" type="line"/>
		</contour>
		<contour>
			<point x="25" y="0" type="line"/>
			<point x="114" y="0" type="line"/>
			<point x="218" y="266" type="line"/>
			<point x="141" y="266" type="line"/>
		</contour>
	</outline>
</glyph>
<glyph name="servicemark" format="2">
	<unicode hex="2120"/>
	<advance width="600"/>
	<outline>
		<contour>
			<point x="144" y="337" type="curve" smooth="yes"/>
			<point x="207" y="337"/>
			<point x="255" y="377"/>
			<point x="255" y="445" type="curve" smooth="yes"/>
			<point x="255" y="512"/>
			<point x="204" y="528"/>
			<point x="148" y="538" type="curve" smooth="yes"/>
			<point x="103" y="545"/>
			<point x="76" y="557"/>
			<point x="76" y="592" type="curve" smooth="yes"/>
			<point x="76" y="624"/>
			<point x="98" y="648"/>
			<point x="143" y="648" type="curve" smooth="yes"/>
			<point x="187" y="648"/>
			<point x="224" y="631"/>
			<point x="250" y="609" type="curve"/>
			<point x="250" y="659" type="line"/>
			<point x="231" y="671"/>
			<point x="197" y="689"/>
			<point x="145" y="689" type="curve" smooth="yes"/>
			<point x="75" y="689"/>
			<point x="28" y="651"/>
			<point x="28" y="584" type="curve" smooth="yes"/>
			<point x="28" y="514"/>
			<point x="82" y="499"/>
			<point x="136" y="491" type="curve" smooth="yes"/>
			<point x="185" y="483"/>
			<point x="206" y="471"/>
			<point x="206" y="436" type="curve" smooth="yes"/>
			<point x="206" y="403"/>
			<point x="181" y="379"/>
			<point x="144" y="379" type="curve" smooth="yes"/>
			<point x="101" y="379"/>
			<point x="62" y="397"/>
			<point x="33" y="421" type="curve"/>
			<point x="33" y="371" type="line"/>
			<point x="54" y="355"/>
			<point x="90" y="337"/>
		</contour>
		<contour>
			<point x="294" y="342" type="line"/>
			<point x="340" y="342" type="line"/>
			<point x="340" y="517" type="line" smooth="yes"/>
			<point x="340" y="557"/>
			<point x="338" y="596"/>
			<point x="335" y="632" type="curve"/>
			<point x="339" y="632" type="line"/>
			<point x="398" y="434" type="line"/>
			<point x="446" y="434" type="line"/>
			<point x="506" y="632" type="line"/>
			<point x="511" y="632" type="line"/>
			<point x="507" y="597"/>
			<point x="506" y="557"/>
			<point x="506" y="517" type="curve" smooth="yes"/>
			<point x="506" y="342" type="line"/>
			<point x="551" y="342" type="line"/>
			<point x="551" y="684" type="line"/>
			<point x="479" y="684" type="line"/>
			<point x="423" y="487" type="line"/>
			<point x="421" y="487" type="line"/>
			<point x="366" y="684" type="line"/>
			<point x="294" y="684" type="line"/>
		</contour>
	</outline>
</glyph>
<glyph name="ohm" format="2">
	<unicode hex="2126"/>
	<advance width="600"/>
	<outline>
		<contour>
			<point x="57" y="0" type="line"/>
			<point x="275" y="0" type="line"/>
			<point x="275" y="73" type="line"/>
			<point x="191" y="154"/>
			<point x="143" y="252"/>
			<point x="143" y="388" type="curve" smooth="yes"/>
			<point x="143" y="395" type="line" smooth="yes"/>
			<point x="143" y="555"/>
			<point x="201" y="626"/>
			<point x="301" y="626" type="curve" smooth="yes"/>
			<point x="400" y="626"/>
			<point x="456" y="555"/>
			<point x="456" y="395" type="curve" smooth="yes"/>
			<point x="456" y="388" type="line" smooth="yes"/>
			<point x="456" y="254"/>
			<point x="407" y="153"/>
			<point x="325" y="73" type="curve"/>
			<point x="325" y="0" type="line"/>
			<point x="541" y="0" type="line"/>
			<point x="541" y="73" type="line"/>
			<point x="416" y="73" type="line"/>
			<point x="478" y="135"/>
			<point x="545" y="241"/>
			<point x="545" y="385" type="curve" smooth="yes"/>
			<point x="545" y="399" type="line" smooth="yes"/>
			<point x="545" y="588"/>
			<point x="455" y="698"/>
			<point x="301" y="698" type="curve" smooth="yes"/>
			<point x="151" y="698"/>
			<point x="55" y="591"/>
			<point x="55" y="399" type="curve" smooth="yes"/>
			<point x="55" y="385" type="line" smooth="yes"/>
			<point x="55" y="242"/>
			<point x="109" y="144"/>
			<point x="181" y="73" type="curve"/>
			<point x="57" y="73" type="line"/>
		</contour>
	</outline>
</glyph>
<glyph name="arrowleft" format="2">
	<unicode hex="2190"/>
	<advance width="600"/>
	<outline>
		<contour>
			<point x="341" y="134" type="line"/>
			<point x="149" y="324" type="line"/>
			<point x="558" y="324" type="line"/>
			<point x="558" y="396" type="line"/>
			<point x="148" y="396" type="line"/>
			<point x="340" y="585" type="line"/>
			<point x="245" y="585" type="line"/>
			<point x="20" y="360" type="line"/>
			<point x="246" y="134" type="line"/>
		</contour>
	</outline>
</glyph>
<glyph name="uni2197" format="2">
	<unicode hex="2197"/>
	<advance width="600"/>
	<outline>
		<contour>
			<point x="68" y="73" type="line"/>
			<point x="488" y="494" type="line"/>
			<point x="487" y="203" type="line"/>
			<point x="554" y="270" type="line"/>
			<point x="554" y="610" type="line"/>
			<point x="213" y="610" type="line"/>
			<point x="148" y="544" type="line"/>
			<point x="439" y="546" type="line"/>
			<point x="16" y="124" type="line"/>
		</contour>
	</outline>
</glyph>
<glyph name="partialdiff" format="2">
	<unicode hex="2202"/>
	<advance width="600"/>
	<outline>
		<contour>
			<point x="297" y="-13" type="curve" smooth="yes"/>
			<point x="433" y="-13"/>
			<point x="533" y="87"/>
			<point x="533" y="275" type="curve" smooth="yes"/>
			<point x="533" y="289" type="line" smooth="yes"/>
			<point x="533" y="483"/>
			<point x="443" y="605"/>
			<point x="317" y="684" type="curve"/>
			<point x="182" y="684" type="line"/>
			<point x="308" y="610"/>
			<point x="390" y="536"/>
			<point x="428" y="417" type="curve"/>
			<point x="387" y="470"/>
			<point x="338" y="498"/>
			<point x="271" y="498" type="curve" smooth="yes"/>
			<point x="149" y="498"/>
			<point x="67" y="395"/>
			<point x="67" y="251" type="curve" smooth="yes"/>
			<point x="67" y="237" type="line" smooth="yes"/>
			<point x="67" y="78"/>
			<point x="158" y="-13"/>
		</contour>
		<contour>
			<point x="299" y="56" type="curve" smooth="yes"/>
			<point x="207" y="56"/>
			<point x="154" y="124"/>
			<point x="154" y="240" type="curve" smooth="yes"/>
			<point x="154" y="247" type="line" smooth="yes"/>
			<point x="154" y="375"/>
			<point x="217" y="434"/>
			<point x="303" y="434" type="curve" smooth="yes"/>
			<point x="384" y="434"/>
			<point x="446" y="383"/>
			<point x="446" y="256" type="curve" smooth="yes"/>
			<point x="446" y="249" type="line" smooth="yes"/>
			<point x="446" y="125"/>
			<point x="388" y="56"/>
		</contour>
	</outline>
</glyph>
<glyph name="product" format="2">
	<unicode hex="220F"/>
	<advance width="600"/>
	<outline>
		<contour>
			<point x="78" y="0" type="line"/>
			<point x="161" y="0" type="line"/>
			<point x="161" y="611" type="line"/>
			<point x="439" y="611" type="line"/>
			<point x="439" y="0" type="line"/>
			<point x="522" y="0" type="line"/>
			<point x="522" y="684" type="line"/>
			<point x="78" y="684" type="line"/>
		</contour>
	</outline>
</glyph>
<glyph name="summation" format="2">
	<unicode hex="2211"/>
	<advance width="600"/>
	<outline>
		<contour>
			<point x="69" y="0" type="line"/>
			<point x="532" y="0" type="line"/>
			<point x="532" y="73" type="line"/>
			<point x="179" y="73" type="line"/>
			<point x="426" y="313" type="line"/>
			<point x="426" y="374" type="line"/>
			<point x="187" y="612" type="line"/>
			<point x="524" y="612" type="line"/>
			<point x="524" y="684" type="line"/>
			<point x="70" y="684" type="line"/>
			<point x="70" y="616" type="line"/>
			<point x="352" y="343" type="line"/>
			<point x="69" y="70" type="line"/>
		</contour>
	</outline>
</glyph>
<glyph name="radical" format="2">
	<unicode hex="221A"/>
	<advance width="600"/>
	<outline>
		<contour>
			<point x="227" y="0" type="line"/>
			<point x="332" y="0" type="line"/>
			<point x="568" y="684" type="line"/>
			<point x="478" y="684" type="line"/>
			<point x="281" y="89" type="line"/>
			<point x="172" y="450" type="line"/>
			<point x="40" y="450" type="line"/>
			<point x="40" y="377" type="line"/>
			<point x="108" y="377" type="line"/>
		</contour>
	</outline>
</glyph>
<glyph name="infinity" format="2">
	<unicode hex="221E"/>
	<advance width="600"/>
	<outline>
		<contour>
			<point x="172" y="592" type="curve" smooth="yes"/>
			<point x="74" y="592"/>
			<point x="29" y="496"/>
			<point x="29" y="334" type="curve" smooth="yes"/>
			<point x="29" y="173"/>
			<point x="74" y="75"/>
			<point x="171" y="75" type="curve" smooth="yes"/>
			<point x="247" y="75"/>
			<point x="286" y="135"/>
			<point x="301" y="200" type="curve"/>
			<point x="316" y="135"/>
			<point x="351" y="74"/>
			<point x="429" y="74" type="curve" smooth="yes"/>
			<point x="528" y="74"/>
			<point x="571" y="171"/>
			<point x="571" y="332" type="curve" smooth="yes"/>
			<point x="571" y="492"/>
			<point x="529" y="591"/>
			<point x="428" y="591" type="curve" smooth="yes"/>
			<point x="360" y="591"/>
			<point x="318" y="543"/>
			<point x="301" y="470" type="curve"/>
			<point x="286" y="533"/>
			<point x="247" y="592"/>
		</contour>
		<contour>
			<point x="182" y="142" type="curve" smooth="yes"/>
			<point x="123" y="142"/>
			<point x="98" y="207"/>
			<point x="98" y="333" type="curve" smooth="yes"/>
			<point x="98" y="462"/>
			<point x="124" y="525"/>
			<point x="182" y="525" type="curve" smooth="yes"/>
			<point x="239" y="525"/>
			<point x="263" y="464"/>
			<point x="263" y="333" type="curve" smooth="yes"/>
			<point x="263" y="206"/>
			<point x="240" y="142"/>
		</contour>
		<contour>
			<point x="418" y="141" type="curve" smooth="yes"/>
			<point x="360" y="141"/>
			<point x="338" y="204"/>
			<point x="338" y="333" type="curve" smooth="yes"/>
			<point x="338" y="466"/>
			<point x="362" y="525"/>
			<point x="418" y="525" type="curve" smooth="yes"/>
			<point x="476" y="525"/>
			<point x="502" y="463"/>
			<point x="502" y="333" type="curve" smooth="yes"/>
			<point x="502" y="202"/>
			<point x="476" y="141"/>
		</contour>
	</outline>
</glyph>
<glyph name="notequal" format="2">
	<unicode hex="2260"/>
	<advance width="600"/>
	<outline>
		<contour>
			<point x="125" y="74" type="line"/>
			<point x="197" y="74" type="line"/>
			<point x="246" y="152" type="line"/>
			<point x="525" y="152" type="line"/>
			<point x="525" y="226" type="line"/>
			<point x="293" y="226" type="line"/>
			<point x="380" y="364" type="line"/>
			<point x="525" y="364" type="line"/>
			<point x="525" y="438" type="line"/>
			<point x="426" y="438" type="line"/>
			<point x="475" y="515" type="line"/>
			<point x="403" y="515" type="line"/>
			<point x="354" y="438" type="line"/>
			<point x="75" y="438" type="line"/>
			<point x="75" y="364" type="line"/>
			<point x="308" y="364" type="line"/>
			<point x="221" y="226" type="line"/>
			<point x="75" y="226" type="line"/>
			<point x="75" y="152" type="line"/>
			<point x="174" y="152" type="line"/>
		</contour>
	</outline>
</glyph>
<glyph name="anglebracketleft" format="2">
	<unicode hex="3008"/>
	<advance width="600"/>
	<outline>
		<contour>
			<point x="434" y="-163" type="line"/>
			<point x="525" y="-163" type="line"/>
			<point x="224" y="317" type="line"/>
			<point x="528" y="792" type="line"/>
			<point x="435" y="792" type="line"/>
			<point x="133" y="316" type="line"/>
		</contour>
	</outline>
</glyph>
<glyph name="anglebracketright" format="2">
	<unicode hex="3009"/>
	<advance width="600"/>
	<outline>
		<contour>
			<point x="72" y="-163" type="line"/>
			<point x="165" y="-163" type="line"/>
			<point x="467" y="315" type="line"/>
			<point x="167" y="792" type="line"/>
			<point x="75" y="792" type="line"/>
			<point x="376" y="315" type="line"/>
		</contour>
	</outline>
</glyph>
<glyph name="Anocross" format="2">
	<advance width="600"/>
	<outline>
		<contour>
			<point x="24" y="0" type="line"/>
			<point x="113" y="0" type="line"/>
			<point x="298" y="618" type="line"/>
			<point x="487" y="0" type="line"/>
			<point x="576" y="0" type="line"/>
			<point x="355" y="687" type="line"/>
			<point x="241" y="687" type="line"/>
		</contour>
	</outline>
	<anchor name="ogonek" x="576" y="0"/>
	<anchor name="bottom" x="314" y="0"/>
	<anchor name="top" x="299" y="684"/>
</glyph>
<glyph name="Lslashcomb" format="2">
	<advance width="600"/>
	<outline>
		<contour>
			<point x="31" y="393" type="line"/>
			<point x="31" y="326" type="line"/>
			<point x="377" y="464" type="line"/>
			<point x="377" y="531" type="line"/>
		</contour>
	</outline>
	<anchor name="_center" x="151" y="401"/>
</glyph>
<glyph name="asciitilde_asciitilde.cLig" format="2">
	<advance width="600"/>
	<outline>
		<contour>
			<point x="-102" y="214" type="curve"/>
			<point x="18" y="214"/>
			<point x="18" y="341"/>
			<point x="101" y="341" type="curve"/>
			<point x="181" y="341"/>
			<point x="197" y="214"/>
			<point x="318" y="214" type="curve"/>
			<point x="412" y="214"/>
			<point x="464" y="295"/>
			<point x="473" y="413" type="curve"/>
			<point x="401" y="413" type="line"/>
			<point x="394" y="339"/>
			<point x="368" y="292"/>
			<point x="317" y="292" type="curve"/>
			<point x="232" y="292"/>
			<point x="224" y="417"/>
			<point x="103" y="417" type="curve"/>
			<point x="-19" y="417"/>
			<point x="-19" y="291"/>
			<point x="-101" y="291" type="curve"/>
			<point x="-178" y="291"/>
			<point x="-190" y="417"/>
			<point x="-308" y="417" type="curve"/>
			<point x="-407" y="417"/>
			<point x="-464" y="338"/>
			<point x="-473" y="219" type="curve"/>
			<point x="-401" y="219" type="line"/>
			<point x="-395" y="294"/>
			<point x="-365" y="340"/>
			<point x="-309" y="340" type="curve"/>
			<point x="-226" y="340"/>
			<point x="-218" y="214"/>
		</contour>
	</outline>
</glyph>
<glyph name="asciitilde_greater.cLig" format="2">
	<advance width="600"/>
	<outline>
		<contour>
			<point x="109" y="629" type="line"/>
			<point x="363" y="353" type="line"/>
			<point x="-112" y="353" type="line"/>
			<point x="-118" y="307"/>
			<point x="-141" y="281"/>
			<point x="-173" y="281" type="curve" smooth="yes"/>
			<point x="-246" y="281"/>
			<point x="-264" y="414"/>
			<point x="-376" y="414" type="curve" smooth="yes"/>
			<point x="-449" y="414"/>
			<point x="-502" y="367"/>
			<point x="-502" y="224" type="curve"/>
			<point x="-430" y="224" type="line"/>
			<point x="-430" y="303"/>
			<point x="-412" y="336"/>
			<point x="-371" y="336" type="curve"/>
			<point x="-298" y="336"/>
			<point x="-276" y="204"/>
			<point x="-170" y="204" type="curve" smooth="yes"/>
			<point x="-119" y="204"/>
			<point x="-83" y="229"/>
			<point x="-63" y="276" type="curve"/>
			<point x="364" y="276" type="line"/>
			<point x="113" y="0" type="line"/>
			<point x="215" y="0" type="line"/>
			<point x="494" y="314" type="line"/>
			<point x="212" y="629" type="line"/>
		</contour>
	</outline>
</glyph>
<glyph name="asciitilde_hyphen.cLig" format="2">
	<advance width="600"/>
	<outline>
		<contour>
			<point x="395" y="350" type="line"/>
			<point x="12" y="350" type="line"/>
			<point x="6" y="304"/>
			<point x="-17" y="278"/>
			<point x="-49" y="278" type="curve" smooth="yes"/>
			<point x="-122" y="278"/>
			<point x="-140" y="411"/>
			<point x="-252" y="411" type="curve" smooth="yes"/>
			<point x="-325" y="411"/>
			<point x="-378" y="364"/>
			<point x="-378" y="221" type="curve"/>
			<point x="-306" y="221" type="line"/>
			<point x="-306" y="300"/>
			<point x="-288" y="333"/>
			<point x="-247" y="333" type="curve"/>
			<point x="-174" y="333"/>
			<point x="-152" y="201"/>
			<point x="-46" y="201" type="curve" smooth="yes"/>
			<point x="5" y="201"/>
			<point x="41" y="226"/>
			<point x="61" y="273" type="curve"/>
			<point x="395" y="273" type="line"/>
		</contour>
	</outline>
</glyph>
<glyph name="asterisk_asterisk.cLig" format="2">
	<advance width="600"/>
	<outline>
		<contour>
			<point x="-101" y="163" type="line"/>
			<point x="-57" y="238" type="line"/>
			<point x="-238" y="320" type="line"/>
			<point x="-56" y="401" type="line"/>
			<point x="-99" y="477" type="line"/>
			<point x="-261" y="360" type="line"/>
			<point x="-241" y="559" type="line"/>
			<point x="-327" y="559" type="line"/>
			<point x="-307" y="359" type="line"/>
			<point x="-471" y="478" type="line"/>
			<point x="-515" y="402" type="line"/>
			<point x="-331" y="320" type="line"/>
			<point x="-514" y="238" type="line"/>
			<point x="-470" y="163" type="line"/>
			<point x="-307" y="281" type="line"/>
			<point x="-327" y="81" type="line"/>
			<point x="-241" y="81" type="line"/>
			<point x="-262" y="279" type="line"/>
		</contour>
		<contour>
			<point x="470" y="162" type="line"/>
			<point x="514" y="237" type="line"/>
			<point x="333" y="319" type="line"/>
			<point x="515" y="400" type="line"/>
			<point x="472" y="476" type="line"/>
			<point x="310" y="359" type="line"/>
			<point x="330" y="558" type="line"/>
			<point x="244" y="558" type="line"/>
			<point x="264" y="358" type="line"/>
			<point x="100" y="477" type="line"/>
			<point x="56" y="401" type="line"/>
			<point x="240" y="319" type="line"/>
			<point x="57" y="237" type="line"/>
			<point x="101" y="162" type="line"/>
			<point x="264" y="280" type="line"/>
			<point x="244" y="80" type="line"/>
			<point x="330" y="80" type="line"/>
			<point x="309" y="278" type="line"/>
		</contour>
	</outline>
</glyph>
<glyph name="asterisk_asterisk_slash.rem" format="2">
	<advance width="600"/>
	<outline>
		<contour>
			<point x="391" y="792" type="line"/>
			<point x="13" y="-163" type="line"/>
			<point x="98" y="-163" type="line"/>
			<point x="477" y="792" type="line"/>
		</contour>
		<contour>
			<point x="-645" y="163" type="line"/>
			<point x="-601" y="238" type="line"/>
			<point x="-782" y="320" type="line"/>
			<point x="-600" y="401" type="line"/>
			<point x="-643" y="477" type="line"/>
			<point x="-805" y="360" type="line"/>
			<point x="-785" y="559" type="line"/>
			<point x="-871" y="559" type="line"/>
			<point x="-851" y="359" type="line"/>
			<point x="-1015" y="478" type="line"/>
			<point x="-1059" y="402" type="line"/>
			<point x="-875" y="320" type="line"/>
			<point x="-1058" y="238" type="line"/>
			<point x="-1014" y="163" type="line"/>
			<point x="-851" y="281" type="line"/>
			<point x="-871" y="81" type="line"/>
			<point x="-785" y="81" type="line"/>
			<point x="-806" y="279" type="line"/>
		</contour>
		<contour>
			<point x="-65" y="163" type="line"/>
			<point x="-21" y="238" type="line"/>
			<point x="-202" y="320" type="line"/>
			<point x="-20" y="401" type="line"/>
			<point x="-63" y="477" type="line"/>
			<point x="-225" y="360" type="line"/>
			<point x="-205" y="559" type="line"/>
			<point x="-291" y="559" type="line"/>
			<point x="-271" y="359" type="line"/>
			<point x="-435" y="478" type="line"/>
			<point x="-479" y="402" type="line"/>
			<point x="-295" y="320" type="line"/>
			<point x="-478" y="238" type="line"/>
			<point x="-434" y="163" type="line"/>
			<point x="-271" y="281" type="line"/>
			<point x="-291" y="81" type="line"/>
			<point x="-205" y="81" type="line"/>
			<point x="-226" y="279" type="line"/>
		</contour>
	</outline>
</glyph>
<glyph name="asterisk_large.rem" format="2">
	<advance width="600"/>
	<outline>
		<contour>
			<point x="484" y="163" type="line"/>
			<point x="528" y="238" type="line"/>
			<point x="347" y="320" type="line"/>
			<point x="529" y="401" type="line"/>
			<point x="486" y="477" type="line"/>
			<point x="324" y="360" type="line"/>
			<point x="344" y="559" type="line"/>
			<point x="258" y="559" type="line"/>
			<point x="278" y="359" type="line"/>
			<point x="114" y="478" type="line"/>
			<point x="70" y="402" type="line"/>
			<point x="254" y="320" type="line"/>
			<point x="71" y="238" type="line"/>
			<point x="115" y="163" type="line"/>
			<point x="278" y="281" type="line"/>
			<point x="258" y="81" type="line"/>
			<point x="344" y="81" type="line"/>
			<point x="323" y="279" type="line"/>
		</contour>
	</outline>
</glyph>
<glyph name="asterisk_slash.cLig" format="2">
	<advance width="600"/>
	<outline>
		<contour>
			<point x="391" y="792" type="line"/>
			<point x="13" y="-163" type="line"/>
			<point x="98" y="-163" type="line"/>
			<point x="477" y="792" type="line"/>
		</contour>
		<contour>
			<point x="-65" y="163" type="line"/>
			<point x="-21" y="238" type="line"/>
			<point x="-202" y="320" type="line"/>
			<point x="-20" y="401" type="line"/>
			<point x="-63" y="477" type="line"/>
			<point x="-225" y="360" type="line"/>
			<point x="-205" y="559" type="line"/>
			<point x="-291" y="559" type="line"/>
			<point x="-271" y="359" type="line"/>
			<point x="-435" y="478" type="line"/>
			<point x="-479" y="402" type="line"/>
			<point x="-295" y="320" type="line"/>
			<point x="-478" y="238" type="line"/>
			<point x="-434" y="163" type="line"/>
			<point x="-271" y="281" type="line"/>
			<point x="-291" y="81" type="line"/>
			<point x="-205" y="81" type="line"/>
			<point x="-226" y="279" type="line"/>
		</contour>
	</outline>
</glyph>
<glyph name="bar_bar_bar_greater.cLig" format="2">
	<advance width="600"/>
	<outline>
		<contour>
			<point x="-879" y="-79" type="line"/>
			<point x="-799" y="-79" type="line"/>
			<point x="-799" y="708" type="line"/>
			<point x="-879" y="708" type="line"/>
		</contour>
		<contour>
			<point x="-1454" y="-79" type="line"/>
			<point x="-1375" y="-79" type="line"/>
			<point x="-1375" y="708" type="line"/>
			<point x="-1454" y="708" type="line"/>
		</contour>
		<contour>
			<point x="-303" y="-79" type="line"/>
			<point x="-223" y="-79" type="line"/>
			<point x="323" y="268" type="line"/>
			<point x="323" y="361" type="line"/>
			<point x="-223" y="708" type="line"/>
			<point x="-303" y="708" type="line"/>
		</contour>
		<contour>
			<point x="-223" y="617" type="line"/>
			<point x="256" y="315" type="line"/>
			<point x="-223" y="12" type="line"/>
		</contour>
	</outline>
</glyph>
<glyph name="bar_bar_equal.med" format="2">
	<advance width="600"/>
	<outline>
		<contour>
			<point x="150" y="-55" type="line"/>
			<point x="230" y="-55" type="line"/>
			<point x="230" y="171" type="line"/>
			<point x="600" y="171" type="line"/>
			<point x="600" y="246" type="line"/>
			<point x="230" y="246" type="line"/>
			<point x="230" y="383" type="line"/>
			<point x="600" y="383" type="line"/>
			<point x="600" y="458" type="line"/>
			<point x="230" y="458" type="line"/>
			<point x="230" y="684" type="line"/>
			<point x="150" y="684" type="line"/>
		</contour>
		<contour>
			<point x="-600" y="171" type="line"/>
			<point x="-230" y="171" type="line"/>
			<point x="-230" y="-55" type="line"/>
			<point x="-150" y="-55" type="line"/>
			<point x="-150" y="684" type="line"/>
			<point x="-230" y="684" type="line"/>
			<point x="-230" y="458" type="line"/>
			<point x="-600" y="458" type="line"/>
			<point x="-600" y="383" type="line"/>
			<point x="-230" y="383" type="line"/>
			<point x="-230" y="246" type="line"/>
			<point x="-600" y="246" type="line"/>
		</contour>
	</outline>
</glyph>
<glyph name="bar_bar_equal.rem" format="2">
	<advance width="600"/>
	<outline>
		<contour>
			<point x="-953" y="684" type="line"/>
			<point x="-953" y="-55" type="line"/>
			<point x="-873" y="-55" type="line"/>
			<point x="-873" y="684" type="line"/>
		</contour>
		<contour>
			<point x="-570" y="684" type="line"/>
			<point x="-570" y="-55" type="line"/>
			<point x="-490" y="-55" type="line"/>
			<point x="-490" y="171" type="line"/>
			<point x="426" y="171" type="line"/>
			<point x="426" y="246" type="line"/>
			<point x="-490" y="246" type="line"/>
			<point x="-490" y="383" type="line"/>
			<point x="426" y="383" type="line"/>
			<point x="426" y="458" type="line"/>
			<point x="-490" y="458" type="line"/>
			<point x="-490" y="684" type="line"/>
		</contour>
	</outline>
</glyph>
<glyph name="braceleft_braceleft.cLig" format="2">
	<advance width="600"/>
	<outline>
		<contour>
			<point x="-22" y="-163" type="line"/>
			<point x="-22" y="-99" type="line"/>
			<point x="-168" y="-99" type="line" smooth="yes"/>
			<point x="-233" y="-99"/>
			<point x="-272" y="-71"/>
			<point x="-272" y="-15" type="curve"/>
			<point x="-272" y="64"/>
			<point x="-170" y="118"/>
			<point x="-170" y="211" type="curve" smooth="yes"/>
			<point x="-170" y="266"/>
			<point x="-221" y="304"/>
			<point x="-289" y="315" type="curve"/>
			<point x="-220" y="326"/>
			<point x="-170" y="364"/>
			<point x="-170" y="418" type="curve" smooth="yes"/>
			<point x="-170" y="511"/>
			<point x="-272" y="568"/>
			<point x="-272" y="643" type="curve" smooth="yes"/>
			<point x="-272" y="700"/>
			<point x="-230" y="727"/>
			<point x="-165" y="727" type="curve" smooth="yes"/>
			<point x="169" y="727" type="line"/>
			<point x="116" y="710"/>
			<point x="99" y="670"/>
			<point x="99" y="633" type="curve" smooth="yes"/>
			<point x="99" y="545"/>
			<point x="199" y="487"/>
			<point x="199" y="420" type="curve" smooth="yes"/>
			<point x="199" y="389"/>
			<point x="178" y="352"/>
			<point x="101" y="352" type="curve" smooth="yes"/>
			<point x="35" y="352" type="line"/>
			<point x="35" y="276" type="line"/>
			<point x="101" y="276" type="line" smooth="yes"/>
			<point x="180" y="276"/>
			<point x="202" y="236"/>
			<point x="202" y="206" type="curve" smooth="yes"/>
			<point x="202" y="133"/>
			<point x="99" y="71"/>
			<point x="99" y="-22" type="curve"/>
			<point x="99" y="-101"/>
			<point x="150" y="-163"/>
			<point x="267" y="-163" type="curve" smooth="yes"/>
			<point x="443" y="-163" type="line"/>
			<point x="443" y="-99" type="line"/>
			<point x="288" y="-99" type="line" smooth="yes"/>
			<point x="223" y="-99"/>
			<point x="184" y="-72"/>
			<point x="184" y="-15" type="curve"/>
			<point x="184" y="60"/>
			<point x="285" y="117"/>
			<point x="285" y="209" type="curve" smooth="yes"/>
			<point x="285" y="265"/>
			<point x="234" y="304"/>
			<point x="168" y="315" type="curve"/>
			<point x="234" y="327"/>
			<point x="286" y="363"/>
			<point x="286" y="421" type="curve" smooth="yes"/>
			<point x="286" y="510"/>
			<point x="184" y="568"/>
			<point x="184" y="643" type="curve" smooth="yes"/>
			<point x="184" y="700"/>
			<point x="227" y="727"/>
			<point x="292" y="727" type="curve" smooth="yes"/>
			<point x="450" y="727" type="line"/>
			<point x="450" y="792" type="line"/>
			<point x="-189" y="792" type="line" smooth="yes"/>
			<point x="-298" y="792"/>
			<point x="-357" y="727"/>
			<point x="-357" y="651" type="curve" smooth="yes"/>
			<point x="-357" y="556"/>
			<point x="-254" y="493"/>
			<point x="-254" y="422" type="curve" smooth="yes"/>
			<point x="-254" y="391"/>
			<point x="-276" y="352"/>
			<point x="-353" y="352" type="curve" smooth="yes"/>
			<point x="-422" y="352" type="line"/>
			<point x="-422" y="276" type="line"/>
			<point x="-353" y="276" type="line" smooth="yes"/>
			<point x="-277" y="276"/>
			<point x="-254" y="237"/>
			<point x="-254" y="206" type="curve" smooth="yes"/>
			<point x="-254" y="134"/>
			<point x="-357" y="74"/>
			<point x="-357" y="-22" type="curve"/>
			<point x="-357" y="-101"/>
			<point x="-304" y="-163"/>
			<point x="-189" y="-163" type="curve" smooth="yes"/>
		</contour>
	</outline>
</glyph>
<glyph name="braceleft_braceleft_numbersign.cLig" format="2">
	<advance width="600"/>
	<outline>
		<contour>
			<point x="-616" y="-163" type="line"/>
			<point x="-616" y="-99" type="line"/>
			<point x="-762" y="-99" type="line" smooth="yes"/>
			<point x="-827" y="-99"/>
			<point x="-866" y="-71"/>
			<point x="-866" y="-15" type="curve"/>
			<point x="-866" y="64"/>
			<point x="-764" y="118"/>
			<point x="-764" y="211" type="curve" smooth="yes"/>
			<point x="-764" y="266"/>
			<point x="-815" y="304"/>
			<point x="-883" y="315" type="curve"/>
			<point x="-814" y="326"/>
			<point x="-764" y="364"/>
			<point x="-764" y="418" type="curve" smooth="yes"/>
			<point x="-764" y="511"/>
			<point x="-866" y="568"/>
			<point x="-866" y="643" type="curve" smooth="yes"/>
			<point x="-866" y="700"/>
			<point x="-824" y="727"/>
			<point x="-759" y="727" type="curve" smooth="yes"/>
			<point x="-425" y="727" type="line"/>
			<point x="-478" y="710"/>
			<point x="-495" y="670"/>
			<point x="-495" y="633" type="curve" smooth="yes"/>
			<point x="-495" y="545"/>
			<point x="-395" y="487"/>
			<point x="-395" y="420" type="curve" smooth="yes"/>
			<point x="-395" y="389"/>
			<point x="-416" y="352"/>
			<point x="-493" y="352" type="curve" smooth="yes"/>
			<point x="-559" y="352" type="line"/>
			<point x="-559" y="276" type="line"/>
			<point x="-493" y="276" type="line" smooth="yes"/>
			<point x="-414" y="276"/>
			<point x="-392" y="236"/>
			<point x="-392" y="206" type="curve" smooth="yes"/>
			<point x="-392" y="133"/>
			<point x="-495" y="71"/>
			<point x="-495" y="-22" type="curve"/>
			<point x="-495" y="-101"/>
			<point x="-444" y="-163"/>
			<point x="-327" y="-163" type="curve" smooth="yes"/>
			<point x="-151" y="-163" type="line"/>
			<point x="-151" y="-99" type="line"/>
			<point x="-306" y="-99" type="line" smooth="yes"/>
			<point x="-371" y="-99"/>
			<point x="-410" y="-72"/>
			<point x="-410" y="-15" type="curve"/>
			<point x="-410" y="60"/>
			<point x="-309" y="117"/>
			<point x="-309" y="209" type="curve" smooth="yes"/>
			<point x="-309" y="265"/>
			<point x="-360" y="304"/>
			<point x="-426" y="315" type="curve"/>
			<point x="-360" y="327"/>
			<point x="-308" y="363"/>
			<point x="-308" y="421" type="curve" smooth="yes"/>
			<point x="-308" y="510"/>
			<point x="-410" y="568"/>
			<point x="-410" y="643" type="curve" smooth="yes"/>
			<point x="-410" y="700"/>
			<point x="-367" y="727"/>
			<point x="-302" y="727" type="curve" smooth="yes"/>
			<point x="-144" y="727" type="line"/>
			<point x="-144" y="792" type="line"/>
			<point x="-783" y="792" type="line" smooth="yes"/>
			<point x="-892" y="792"/>
			<point x="-951" y="727"/>
			<point x="-951" y="651" type="curve" smooth="yes"/>
			<point x="-951" y="556"/>
			<point x="-848" y="493"/>
			<point x="-848" y="422" type="curve" smooth="yes"/>
			<point x="-848" y="391"/>
			<point x="-870" y="352"/>
			<point x="-947" y="352" type="curve" smooth="yes"/>
			<point x="-1016" y="352" type="line"/>
			<point x="-1016" y="276" type="line"/>
			<point x="-947" y="276" type="line" smooth="yes"/>
			<point x="-871" y="276"/>
			<point x="-848" y="237"/>
			<point x="-848" y="206" type="curve" smooth="yes"/>
			<point x="-848" y="134"/>
			<point x="-951" y="74"/>
			<point x="-951" y="-22" type="curve"/>
			<point x="-951" y="-101"/>
			<point x="-898" y="-163"/>
			<point x="-783" y="-163" type="curve" smooth="yes"/>
		</contour>
		<contour>
			<point x="-136" y="236" type="line"/>
			<point x="-136" y="168" type="line"/>
			<point x="-3" y="168" type="line"/>
			<point x="-19" y="0" type="line"/>
			<point x="53" y="0" type="line"/>
			<point x="69" y="168" type="line"/>
			<point x="210" y="168" type="line"/>
			<point x="194" y="0" type="line"/>
			<point x="264" y="0" type="line"/>
			<point x="281" y="168" type="line"/>
			<point x="395" y="168" type="line"/>
			<point x="395" y="236" type="line"/>
			<point x="287" y="236" type="line"/>
			<point x="309" y="459" type="line"/>
			<point x="419" y="459" type="line"/>
			<point x="419" y="528" type="line"/>
			<point x="315" y="528" type="line"/>
			<point x="330" y="684" type="line"/>
			<point x="259" y="684" type="line"/>
			<point x="244" y="528" type="line"/>
			<point x="103" y="528" type="line"/>
			<point x="117" y="684" type="line"/>
			<point x="47" y="684" type="line"/>
			<point x="32" y="528" type="line"/>
			<point x="-136" y="528" type="line"/>
			<point x="-136" y="459" type="line"/>
			<point x="25" y="459" type="line"/>
			<point x="4" y="236" type="line"/>
		</contour>
		<contour>
			<point x="76" y="236" type="line"/>
			<point x="96" y="459" type="line"/>
			<point x="238" y="459" type="line"/>
			<point x="217" y="236" type="line"/>
		</contour>
	</outline>
</glyph>
<glyph name="braceleft_numbersign.cLig" format="2">
	<advance width="600"/>
	<outline>
		<contour>
			<point x="-472" y="275" type="line"/>
			<point x="-415" y="275" type="line" smooth="yes"/>
			<point x="-339" y="275"/>
			<point x="-316" y="236"/>
			<point x="-316" y="205" type="curve" smooth="yes"/>
			<point x="-316" y="135"/>
			<point x="-423" y="71"/>
			<point x="-423" y="-23" type="curve" smooth="yes"/>
			<point x="-423" y="-101"/>
			<point x="-371" y="-163"/>
			<point x="-255" y="-163" type="curve" smooth="yes"/>
			<point x="-112" y="-163" type="line"/>
			<point x="-112" y="-99" type="line"/>
			<point x="-234" y="-99" type="line" smooth="yes"/>
			<point x="-299" y="-99"/>
			<point x="-339" y="-73"/>
			<point x="-339" y="-16" type="curve" smooth="yes"/>
			<point x="-339" y="58"/>
			<point x="-233" y="116"/>
			<point x="-233" y="208" type="curve" smooth="yes"/>
			<point x="-233" y="262"/>
			<point x="-285" y="303"/>
			<point x="-352" y="314" type="curve"/>
			<point x="-285" y="325"/>
			<point x="-233" y="365"/>
			<point x="-233" y="419" type="curve" smooth="yes"/>
			<point x="-233" y="512"/>
			<point x="-339" y="571"/>
			<point x="-339" y="646" type="curve" smooth="yes"/>
			<point x="-339" y="703"/>
			<point x="-296" y="728"/>
			<point x="-235" y="728" type="curve" smooth="yes"/>
			<point x="-112" y="728" type="line"/>
			<point x="-112" y="792" type="line"/>
			<point x="-255" y="792" type="line" smooth="yes"/>
			<point x="-365" y="792"/>
			<point x="-423" y="729"/>
			<point x="-423" y="653" type="curve" smooth="yes"/>
			<point x="-423" y="558"/>
			<point x="-316" y="493"/>
			<point x="-316" y="422" type="curve" smooth="yes"/>
			<point x="-316" y="391"/>
			<point x="-339" y="352"/>
			<point x="-415" y="352" type="curve" smooth="yes"/>
			<point x="-472" y="352" type="line"/>
		</contour>
		<contour>
			<point x="-100" y="236" type="line"/>
			<point x="-100" y="168" type="line"/>
			<point x="33" y="168" type="line"/>
			<point x="17" y="0" type="line"/>
			<point x="89" y="0" type="line"/>
			<point x="105" y="168" type="line"/>
			<point x="246" y="168" type="line"/>
			<point x="230" y="0" type="line"/>
			<point x="300" y="0" type="line"/>
			<point x="317" y="168" type="line"/>
			<point x="431" y="168" type="line"/>
			<point x="431" y="236" type="line"/>
			<point x="323" y="236" type="line"/>
			<point x="345" y="459" type="line"/>
			<point x="455" y="459" type="line"/>
			<point x="455" y="528" type="line"/>
			<point x="351" y="528" type="line"/>
			<point x="366" y="684" type="line"/>
			<point x="295" y="684" type="line"/>
			<point x="280" y="528" type="line"/>
			<point x="139" y="528" type="line"/>
			<point x="153" y="684" type="line"/>
			<point x="83" y="684" type="line"/>
			<point x="68" y="528" type="line"/>
			<point x="-100" y="528" type="line"/>
			<point x="-100" y="459" type="line"/>
			<point x="61" y="459" type="line"/>
			<point x="40" y="236" type="line"/>
		</contour>
		<contour>
			<point x="112" y="236" type="line"/>
			<point x="132" y="459" type="line"/>
			<point x="274" y="459" type="line"/>
			<point x="253" y="236" type="line"/>
		</contour>
	</outline>
</glyph>
<glyph name="braceright_numbersign.cLig" format="2">
	<advance width="600"/>
	<outline>
		<contour>
			<point x="-491" y="-164" type="line"/>
			<point x="-348" y="-164" type="line" smooth="yes"/>
			<point x="-239" y="-164"/>
			<point x="-181" y="-101"/>
			<point x="-179" y="-24" type="curve" smooth="yes"/>
			<point x="-179" y="70"/>
			<point x="-289" y="136"/>
			<point x="-288" y="206" type="curve" smooth="yes"/>
			<point x="-287" y="237"/>
			<point x="-266" y="277"/>
			<point x="-189" y="277" type="curve" smooth="yes"/>
			<point x="-144" y="277" type="line"/>
			<point x="-144" y="353" type="line"/>
			<point x="-188" y="353" type="line" smooth="yes"/>
			<point x="-263" y="353"/>
			<point x="-286" y="394"/>
			<point x="-286" y="423" type="curve" smooth="yes"/>
			<point x="-288" y="493"/>
			<point x="-179" y="558"/>
			<point x="-179" y="653" type="curve" smooth="yes"/>
			<point x="-181" y="729"/>
			<point x="-233" y="790"/>
			<point x="-349" y="790" type="curve" smooth="yes"/>
			<point x="-491" y="790" type="line"/>
			<point x="-491" y="727" type="line"/>
			<point x="-370" y="727" type="line" smooth="yes"/>
			<point x="-306" y="727"/>
			<point x="-266" y="701"/>
			<point x="-266" y="645" type="curve" smooth="yes"/>
			<point x="-265" y="570"/>
			<point x="-372" y="512"/>
			<point x="-372" y="421" type="curve" smooth="yes"/>
			<point x="-372" y="366"/>
			<point x="-320" y="325"/>
			<point x="-253" y="314" type="curve"/>
			<point x="-320" y="303"/>
			<point x="-372" y="263"/>
			<point x="-372" y="209" type="curve" smooth="yes"/>
			<point x="-372" y="117"/>
			<point x="-265" y="57"/>
			<point x="-266" y="-18" type="curve" smooth="yes"/>
			<point x="-266" y="-74"/>
			<point x="-307" y="-100"/>
			<point x="-368" y="-100" type="curve" smooth="yes"/>
			<point x="-491" y="-100" type="line"/>
		</contour>
		<contour>
			<point x="-51" y="236" type="line"/>
			<point x="-51" y="168" type="line"/>
			<point x="82" y="168" type="line"/>
			<point x="66" y="0" type="line"/>
			<point x="139" y="0" type="line"/>
			<point x="154" y="168" type="line"/>
			<point x="295" y="168" type="line"/>
			<point x="280" y="0" type="line"/>
			<point x="349" y="0" type="line"/>
			<point x="366" y="168" type="line"/>
			<point x="481" y="168" type="line"/>
			<point x="481" y="236" type="line"/>
			<point x="372" y="236" type="line"/>
			<point x="394" y="459" type="line"/>
			<point x="504" y="459" type="line"/>
			<point x="504" y="528" type="line"/>
			<point x="400" y="528" type="line"/>
			<point x="415" y="684" type="line"/>
			<point x="344" y="684" type="line"/>
			<point x="329" y="528" type="line"/>
			<point x="188" y="528" type="line"/>
			<point x="203" y="684" type="line"/>
			<point x="132" y="684" type="line"/>
			<point x="117" y="528" type="line"/>
			<point x="-51" y="528" type="line"/>
			<point x="-51" y="459" type="line"/>
			<point x="110" y="459" type="line"/>
			<point x="89" y="236" type="line"/>
		</contour>
		<contour>
			<point x="161" y="236" type="line"/>
			<point x="182" y="459" type="line"/>
			<point x="323" y="459" type="line"/>
			<point x="302" y="236" type="line"/>
		</contour>
	</outline>
</glyph>
<glyph name="bracketleft_bar.cLig" format="2">
	<advance width="600"/>
	<outline>
		<contour>
			<point x="44" y="-99" type="line"/>
			<point x="-307" y="-99" type="line"/>
			<point x="-307" y="728" type="line"/>
			<point x="44" y="728" type="line"/>
			<point x="44" y="792" type="line"/>
			<point x="-387" y="792" type="line"/>
			<point x="-387" y="-163" type="line"/>
			<point x="44" y="-163" type="line"/>
		</contour>
		<contour>
			<point x="264" y="792" type="line"/>
			<point x="264" y="-163" type="line"/>
			<point x="344" y="-163" type="line"/>
			<point x="344" y="792" type="line"/>
		</contour>
	</outline>
</glyph>
<glyph name="bracketleft_bracketleft.cLig" format="2">
	<advance width="600"/>
	<outline>
		<contour>
			<point x="-375" y="-163" type="line"/>
			<point x="9" y="-163" type="line"/>
			<point x="9" y="-99" type="line"/>
			<point x="-295" y="-99" type="line"/>
			<point x="-295" y="728" type="line"/>
			<point x="9" y="728" type="line"/>
			<point x="9" y="792" type="line"/>
			<point x="-375" y="792" type="line"/>
		</contour>
		<contour>
			<point x="96" y="-163" type="line"/>
			<point x="418" y="-163" type="line"/>
			<point x="418" y="-99" type="line"/>
			<point x="176" y="-99" type="line"/>
			<point x="176" y="728" type="line"/>
			<point x="418" y="728" type="line"/>
			<point x="418" y="792" type="line"/>
			<point x="96" y="792" type="line"/>
		</contour>
	</outline>
</glyph>
<glyph name="bracketright_numbersign.cLig" format="2">
	<advance width="600"/>
	<outline>
		<contour>
			<point x="-465" y="-163" type="line"/>
			<point x="-182" y="-163" type="line"/>
			<point x="-182" y="168" type="line"/>
			<point x="54" y="168" type="line"/>
			<point x="38" y="0" type="line"/>
			<point x="111" y="0" type="line"/>
			<point x="126" y="168" type="line"/>
			<point x="267" y="168" type="line"/>
			<point x="252" y="0" type="line"/>
			<point x="322" y="0" type="line"/>
			<point x="338" y="168" type="line"/>
			<point x="453" y="168" type="line"/>
			<point x="453" y="236" type="line"/>
			<point x="344" y="236" type="line"/>
			<point x="366" y="459" type="line"/>
			<point x="476" y="459" type="line"/>
			<point x="476" y="528" type="line"/>
			<point x="372" y="528" type="line"/>
			<point x="387" y="684" type="line"/>
			<point x="316" y="684" type="line"/>
			<point x="301" y="528" type="line"/>
			<point x="160" y="528" type="line"/>
			<point x="175" y="684" type="line"/>
			<point x="104" y="684" type="line"/>
			<point x="89" y="528" type="line"/>
			<point x="-182" y="528" type="line"/>
			<point x="-182" y="792" type="line"/>
			<point x="-465" y="792" type="line"/>
			<point x="-465" y="728" type="line"/>
			<point x="-261" y="728" type="line"/>
			<point x="-261" y="-99" type="line"/>
			<point x="-465" y="-99" type="line"/>
		</contour>
		<contour>
			<point x="-182" y="236" type="line"/>
			<point x="-182" y="459" type="line"/>
			<point x="82" y="459" type="line"/>
			<point x="61" y="236" type="line"/>
		</contour>
		<contour>
			<point x="133" y="236" type="line"/>
			<point x="154" y="459" type="line"/>
			<point x="295" y="459" type="line"/>
			<point x="274" y="236" type="line"/>
		</contour>
	</outline>
</glyph>
<glyph name="circumflex.cap" format="2">
	<advance width="600"/>
	<outline>
		<contour>
			<point x="136" y="748" type="line"/>
			<point x="217" y="748" type="line"/>
			<point x="300" y="842" type="line"/>
			<point x="382" y="748" type="line"/>
			<point x="464" y="748" type="line"/>
			<point x="341" y="884" type="line"/>
			<point x="259" y="884" type="line"/>
		</contour>
	</outline>
	<anchor name="_top" x="300" y="684"/>
</glyph>
<glyph name="colon_colon.cLig" format="2">
	<advance width="600"/>
	<outline>
		<contour>
			<point x="-220" y="-12" type="curve" smooth="yes"/>
			<point x="-173" y="-12"/>
			<point x="-147" y="6"/>
			<point x="-147" y="55" type="curve" smooth="yes"/>
			<point x="-147" y="103"/>
			<point x="-173" y="120"/>
			<point x="-220" y="120" type="curve" smooth="yes"/>
			<point x="-267" y="120"/>
			<point x="-293" y="103"/>
			<point x="-293" y="55" type="curve" smooth="yes"/>
			<point x="-293" y="6"/>
			<point x="-267" y="-12"/>
		</contour>
		<contour>
			<point x="-220" y="388" type="curve" smooth="yes"/>
			<point x="-173" y="388"/>
			<point x="-147" y="406"/>
			<point x="-147" y="455" type="curve" smooth="yes"/>
			<point x="-147" y="503"/>
			<point x="-173" y="520"/>
			<point x="-220" y="520" type="curve" smooth="yes"/>
			<point x="-267" y="520"/>
			<point x="-293" y="503"/>
			<point x="-293" y="455" type="curve" smooth="yes"/>
			<point x="-293" y="406"/>
			<point x="-267" y="388"/>
		</contour>
		<contour>
			<point x="220" y="-12" type="curve" smooth="yes"/>
			<point x="267" y="-12"/>
			<point x="293" y="6"/>
			<point x="293" y="55" type="curve" smooth="yes"/>
			<point x="293" y="103"/>
			<point x="267" y="120"/>
			<point x="220" y="120" type="curve" smooth="yes"/>
			<point x="173" y="120"/>
			<point x="147" y="103"/>
			<point x="147" y="55" type="curve" smooth="yes"/>
			<point x="147" y="6"/>
			<point x="173" y="-12"/>
		</contour>
		<contour>
			<point x="220" y="388" type="curve" smooth="yes"/>
			<point x="267" y="388"/>
			<point x="293" y="406"/>
			<point x="293" y="455" type="curve" smooth="yes"/>
			<point x="293" y="503"/>
			<point x="267" y="520"/>
			<point x="220" y="520" type="curve" smooth="yes"/>
			<point x="173" y="520"/>
			<point x="147" y="503"/>
			<point x="147" y="455" type="curve" smooth="yes"/>
			<point x="147" y="406"/>
			<point x="173" y="388"/>
		</contour>
	</outline>
</glyph>
<glyph name="colon_colon_colon.cLig" format="2">
	<advance width="600"/>
	<outline>
		<contour>
			<point x="-757" y="-12" type="curve" smooth="yes"/>
			<point x="-710" y="-12"/>
			<point x="-684" y="6"/>
			<point x="-684" y="55" type="curve" smooth="yes"/>
			<point x="-684" y="103"/>
			<point x="-710" y="120"/>
			<point x="-757" y="120" type="curve" smooth="yes"/>
			<point x="-804" y="120"/>
			<point x="-830" y="103"/>
			<point x="-830" y="55" type="curve" smooth="yes"/>
			<point x="-830" y="6"/>
			<point x="-804" y="-12"/>
		</contour>
		<contour>
			<point x="-757" y="388" type="curve" smooth="yes"/>
			<point x="-710" y="388"/>
			<point x="-684" y="406"/>
			<point x="-684" y="455" type="curve" smooth="yes"/>
			<point x="-684" y="503"/>
			<point x="-710" y="520"/>
			<point x="-757" y="520" type="curve" smooth="yes"/>
			<point x="-804" y="520"/>
			<point x="-830" y="503"/>
			<point x="-830" y="455" type="curve" smooth="yes"/>
			<point x="-830" y="406"/>
			<point x="-804" y="388"/>
		</contour>
		<contour>
			<point x="-300" y="-12" type="curve" smooth="yes"/>
			<point x="-253" y="-12"/>
			<point x="-227" y="6"/>
			<point x="-227" y="55" type="curve" smooth="yes"/>
			<point x="-227" y="103"/>
			<point x="-253" y="120"/>
			<point x="-300" y="120" type="curve" smooth="yes"/>
			<point x="-347" y="120"/>
			<point x="-373" y="103"/>
			<point x="-373" y="55" type="curve" smooth="yes"/>
			<point x="-373" y="6"/>
			<point x="-347" y="-12"/>
		</contour>
		<contour>
			<point x="-300" y="388" type="curve" smooth="yes"/>
			<point x="-253" y="388"/>
			<point x="-227" y="406"/>
			<point x="-227" y="455" type="curve" smooth="yes"/>
			<point x="-227" y="503"/>
			<point x="-253" y="520"/>
			<point x="-300" y="520" type="curve" smooth="yes"/>
			<point x="-347" y="520"/>
			<point x="-373" y="503"/>
			<point x="-373" y="455" type="curve" smooth="yes"/>
			<point x="-373" y="406"/>
			<point x="-347" y="388"/>
		</contour>
		<contour>
			<point x="157" y="-12" type="curve" smooth="yes"/>
			<point x="204" y="-12"/>
			<point x="230" y="6"/>
			<point x="230" y="55" type="curve" smooth="yes"/>
			<point x="230" y="103"/>
			<point x="204" y="120"/>
			<point x="157" y="120" type="curve" smooth="yes"/>
			<point x="110" y="120"/>
			<point x="84" y="103"/>
			<point x="84" y="55" type="curve" smooth="yes"/>
			<point x="84" y="6"/>
			<point x="110" y="-12"/>
		</contour>
		<contour>
			<point x="157" y="388" type="curve" smooth="yes"/>
			<point x="204" y="388"/>
			<point x="230" y="406"/>
			<point x="230" y="455" type="curve" smooth="yes"/>
			<point x="230" y="503"/>
			<point x="204" y="520"/>
			<point x="157" y="520" type="curve" smooth="yes"/>
			<point x="110" y="520"/>
			<point x="84" y="503"/>
			<point x="84" y="455" type="curve" smooth="yes"/>
			<point x="84" y="406"/>
			<point x="110" y="388"/>
		</contour>
	</outline>
</glyph>
<glyph name="colon_equal.cLig" format="2">
	<advance width="600"/>
	<outline>
		<contour>
			<point x="-341" y="89" type="curve" smooth="yes"/>
			<point x="-294" y="89"/>
			<point x="-268" y="107"/>
			<point x="-268" y="156" type="curve" smooth="yes"/>
			<point x="-268" y="204"/>
			<point x="-294" y="221"/>
			<point x="-341" y="221" type="curve" smooth="yes"/>
			<point x="-388" y="221"/>
			<point x="-414" y="204"/>
			<point x="-414" y="156" type="curve" smooth="yes"/>
			<point x="-414" y="107"/>
			<point x="-388" y="89"/>
		</contour>
		<contour>
			<point x="-341" y="375" type="curve" smooth="yes"/>
			<point x="-294" y="375"/>
			<point x="-268" y="393"/>
			<point x="-268" y="442" type="curve" smooth="yes"/>
			<point x="-268" y="490"/>
			<point x="-294" y="507"/>
			<point x="-341" y="507" type="curve" smooth="yes"/>
			<point x="-388" y="507"/>
			<point x="-414" y="490"/>
			<point x="-414" y="442" type="curve" smooth="yes"/>
			<point x="-414" y="393"/>
			<point x="-388" y="375"/>
		</contour>
		<contour>
			<point x="-81.1780575525" y="364" type="line"/>
			<point x="421.7535971325" y="364" type="line"/>
			<point x="421.7535971325" y="438" type="line"/>
			<point x="-81.1780575525" y="438" type="line"/>
		</contour>
		<contour>
			<point x="-81.1780575525" y="152" type="line"/>
			<point x="421.7535971325" y="152" type="line"/>
			<point x="421.7535971325" y="226" type="line"/>
			<point x="-81.1780575525" y="226" type="line"/>
		</contour>
	</outline>
</glyph>
<glyph name="colon_equal.med" format="2">
	<advance width="600"/>
	<outline>
		<contour>
			<point x="300" y="375" type="curve" smooth="yes"/>
			<point x="347" y="375"/>
			<point x="373" y="393"/>
			<point x="373" y="442" type="curve" smooth="yes"/>
			<point x="373" y="490"/>
			<point x="347" y="507"/>
			<point x="300" y="507" type="curve" smooth="yes"/>
			<point x="253" y="507"/>
			<point x="227" y="490"/>
			<point x="227" y="442" type="curve" smooth="yes"/>
			<point x="227" y="393"/>
			<point x="253" y="375"/>
		</contour>
		<contour>
			<point x="494" y="383" type="line"/>
			<point x="600" y="383" type="line"/>
			<point x="600" y="458" type="line"/>
			<point x="494" y="458" type="line"/>
		</contour>
		<contour>
			<point x="0" y="383" type="line"/>
			<point x="106" y="383" type="line"/>
			<point x="106" y="458" type="line"/>
			<point x="0" y="458" type="line"/>
		</contour>
		<contour>
			<point x="494" y="172" type="line"/>
			<point x="600" y="172" type="line"/>
			<point x="600" y="246" type="line"/>
			<point x="494" y="246" type="line"/>
		</contour>
		<contour>
			<point x="0" y="172" type="line"/>
			<point x="106" y="172" type="line"/>
			<point x="106" y="246" type="line"/>
			<point x="0" y="246" type="line"/>
		</contour>
		<contour>
			<point x="300" y="89" type="curve" smooth="yes"/>
			<point x="347" y="89"/>
			<point x="373" y="107"/>
			<point x="373" y="156" type="curve" smooth="yes"/>
			<point x="373" y="204"/>
			<point x="347" y="221"/>
			<point x="300" y="221" type="curve" smooth="yes"/>
			<point x="253" y="221"/>
			<point x="227" y="204"/>
			<point x="227" y="156" type="curve" smooth="yes"/>
			<point x="227" y="107"/>
			<point x="253" y="89"/>
		</contour>
	</outline>
</glyph>
<glyph name="colon_less.cLig.x" format="2">
	<advance width="600"/>
	<outline>
		<contour>
			<point x="424" y="-5" type="line"/>
			<point x="424" y="83" type="line"/>
			<point x="47" y="314" type="line"/>
			<point x="424" y="546" type="line"/>
			<point x="424" y="634" type="line"/>
			<point x="-19" y="360" type="line"/>
			<point x="-19" y="268" type="line"/>
		</contour>
		<contour>
			<point x="-301" y="446" type="curve" smooth="yes"/>
			<point x="-254" y="446"/>
			<point x="-228" y="464"/>
			<point x="-228" y="513" type="curve" smooth="yes"/>
			<point x="-228" y="561"/>
			<point x="-254" y="578"/>
			<point x="-301" y="578" type="curve" smooth="yes"/>
			<point x="-348" y="578"/>
			<point x="-374" y="561"/>
			<point x="-374" y="513" type="curve" smooth="yes"/>
			<point x="-374" y="464"/>
			<point x="-348" y="446"/>
		</contour>
		<contour>
			<point x="-301" y="46" type="curve" smooth="yes"/>
			<point x="-254" y="46"/>
			<point x="-228" y="64"/>
			<point x="-228" y="113" type="curve" smooth="yes"/>
			<point x="-228" y="161"/>
			<point x="-254" y="178"/>
			<point x="-301" y="178" type="curve" smooth="yes"/>
			<point x="-348" y="178"/>
			<point x="-374" y="161"/>
			<point x="-374" y="113" type="curve" smooth="yes"/>
			<point x="-374" y="64"/>
			<point x="-348" y="46"/>
		</contour>
	</outline>
</glyph>
<glyph name="dieresis.cap" format="2">
	<advance width="600"/>
	<outline>
		<contour>
			<point x="395" y="861" type="curve" smooth="yes"/>
			<point x="355" y="861"/>
			<point x="341" y="844"/>
			<point x="341" y="811" type="curve" smooth="yes"/>
			<point x="341" y="779"/>
			<point x="355" y="762"/>
			<point x="395" y="762" type="curve" smooth="yes"/>
			<point x="437" y="762"/>
			<point x="450" y="780"/>
			<point x="450" y="811" type="curve" smooth="yes"/>
			<point x="450" y="844"/>
			<point x="437" y="861"/>
		</contour>
		<contour>
			<point x="205" y="762" type="curve" smooth="yes"/>
			<point x="246" y="762"/>
			<point x="259" y="780"/>
			<point x="259" y="811" type="curve" smooth="yes"/>
			<point x="259" y="844"/>
			<point x="246" y="861"/>
			<point x="205" y="861" type="curve" smooth="yes"/>
			<point x="164" y="861"/>
			<point x="150" y="844"/>
			<point x="150" y="811" type="curve" smooth="yes"/>
			<point x="150" y="779"/>
			<point x="164" y="762"/>
		</contour>
	</outline>
	<anchor name="_top" x="300" y="684"/>
</glyph>
<glyph name="dollar_greater.cLig" format="2">
	<advance width="600"/>
	<outline>
		<contour>
			<point x="-370" y="-93" type="line"/>
			<point x="-306" y="-93" type="line"/>
			<point x="-293" y="-10" type="line"/>
			<point x="-280" y="-11"/>
			<point x="-267" y="-12"/>
			<point x="-253" y="-12" type="curve" smooth="yes"/>
			<point x="-119" y="-12"/>
			<point x="-23" y="63"/>
			<point x="-23" y="199" type="curve" smooth="yes"/>
			<point x="-23" y="335"/>
			<point x="-126" y="360"/>
			<point x="-237" y="378" type="curve"/>
			<point x="-198" y="620" type="line"/>
			<point x="-107" y="605"/>
			<point x="-13" y="560"/>
			<point x="95" y="501" type="curve" smooth="yes"/>
			<point x="438" y="314" type="line"/>
			<point x="88" y="131" type="line"/>
			<point x="88" y="46" type="line"/>
			<point x="506" y="268" type="line"/>
			<point x="506" y="360" type="line"/>
			<point x="130" y="566" type="line" smooth="yes"/>
			<point x="31" y="621"/>
			<point x="-75" y="672"/>
			<point x="-183" y="689" type="curve"/>
			<point x="-170" y="774" type="line"/>
			<point x="-234" y="774" type="line"/>
			<point x="-246" y="696" type="line"/>
			<point x="-261" y="696" type="line" smooth="yes"/>
			<point x="-405" y="696"/>
			<point x="-512" y="623"/>
			<point x="-512" y="490" type="curve" smooth="yes"/>
			<point x="-512" y="353"/>
			<point x="-415" y="324"/>
			<point x="-304" y="306" type="curve"/>
			<point x="-341" y="70" type="line"/>
			<point x="-404" y="84"/>
			<point x="-458" y="114"/>
			<point x="-504" y="156" type="curve"/>
			<point x="-504" y="70" type="line"/>
			<point x="-464" y="38"/>
			<point x="-417" y="13"/>
			<point x="-356" y="-1" type="curve"/>
		</contour>
		<contour>
			<point x="-427" y="497" type="curve" smooth="yes"/>
			<point x="-427" y="582"/>
			<point x="-359" y="625"/>
			<point x="-263" y="625" type="curve" smooth="yes"/>
			<point x="-254" y="625" type="line"/>
			<point x="-291" y="386" type="line"/>
			<point x="-371" y="400"/>
			<point x="-427" y="419"/>
		</contour>
		<contour>
			<point x="-109" y="190" type="curve" smooth="yes"/>
			<point x="-109" y="101"/>
			<point x="-167" y="60"/>
			<point x="-253" y="60" type="curve" smooth="yes"/>
			<point x="-264" y="60"/>
			<point x="-275" y="61"/>
			<point x="-286" y="62" type="curve"/>
			<point x="-249" y="297" type="line"/>
			<point x="-167" y="285"/>
			<point x="-109" y="269"/>
		</contour>
	</outline>
</glyph>
<glyph name="dotaccent.cap" format="2">
	<advance width="600"/>
	<outline>
		<contour>
			<point x="300" y="762" type="curve" smooth="yes"/>
			<point x="345" y="762"/>
			<point x="360" y="781"/>
			<point x="360" y="815" type="curve" smooth="yes"/>
			<point x="360" y="848"/>
			<point x="345" y="867"/>
			<point x="300" y="867" type="curve" smooth="yes"/>
			<point x="255" y="867"/>
			<point x="240" y="849"/>
			<point x="240" y="815" type="curve" smooth="yes"/>
			<point x="240" y="781"/>
			<point x="255" y="762"/>
		</contour>
	</outline>
	<anchor name="_top" x="300" y="684"/>
</glyph>
<glyph name="dotbelow" format="2">
	<advance width="600"/>
	<outline>
		<contour>
			<point x="300" y="-149" type="curve" smooth="yes"/>
			<point x="343" y="-149"/>
			<point x="360" y="-130"/>
			<point x="360" y="-93" type="curve" smooth="yes"/>
			<point x="360" y="-56"/>
			<point x="343" y="-38"/>
			<point x="300" y="-38" type="curve" smooth="yes"/>
			<point x="257" y="-38"/>
			<point x="239" y="-56"/>
			<point x="239" y="-93" type="curve" smooth="yes"/>
			<point x="239" y="-130"/>
			<point x="257" y="-149"/>
		</contour>
	</outline>
	<anchor name="bottom" x="301" y="0"/>
</glyph>
<glyph name="eight.numr" format="2">
	<advance width="600"/>
	<outline>
		<contour>
			<point x="299" y="366" type="curve" smooth="yes"/>
			<point x="379" y="366"/>
			<point x="433" y="398"/>
			<point x="433" y="464" type="curve" smooth="yes"/>
			<point x="433" y="511"/>
			<point x="404" y="539"/>
			<point x="359" y="549" type="curve"/>
			<point x="397" y="558"/>
			<point x="426" y="587"/>
			<point x="426" y="629" type="curve" smooth="yes"/>
			<point x="426" y="694"/>
			<point x="375" y="724"/>
			<point x="300" y="724" type="curve" smooth="yes"/>
			<point x="223" y="724"/>
			<point x="173" y="694"/>
			<point x="173" y="629" type="curve" smooth="yes"/>
			<point x="173" y="584"/>
			<point x="203" y="557"/>
			<point x="239" y="549" type="curve"/>
			<point x="200" y="539"/>
			<point x="167" y="513"/>
			<point x="167" y="463" type="curve" smooth="yes"/>
			<point x="167" y="396"/>
			<point x="217" y="366"/>
		</contour>
		<contour>
			<point x="300" y="571" type="curve" smooth="yes"/>
			<point x="257" y="571"/>
			<point x="227" y="588"/>
			<point x="227" y="627" type="curve" smooth="yes"/>
			<point x="227" y="671"/>
			<point x="258" y="682"/>
			<point x="300" y="682" type="curve" smooth="yes"/>
			<point x="340" y="682"/>
			<point x="371" y="670"/>
			<point x="371" y="627" type="curve" smooth="yes"/>
			<point x="371" y="589"/>
			<point x="342" y="571"/>
		</contour>
		<contour>
			<point x="300" y="408" type="curve" smooth="yes"/>
			<point x="250" y="408"/>
			<point x="224" y="424"/>
			<point x="224" y="469" type="curve" smooth="yes"/>
			<point x="224" y="511"/>
			<point x="255" y="525"/>
			<point x="300" y="525" type="curve" smooth="yes"/>
			<point x="344" y="525"/>
			<point x="376" y="510"/>
			<point x="376" y="469" type="curve" smooth="yes"/>
			<point x="376" y="427"/>
			<point x="348" y="408"/>
		</contour>
	</outline>
</glyph>
<glyph name="equal.den" format="2">
	<advance width="600"/>
	<outline>
		<contour>
			<point x="149" y="279" type="line"/>
			<point x="149" y="228" type="line"/>
			<point x="451" y="228" type="line"/>
			<point x="451" y="279" type="line"/>
		</contour>
		<contour>
			<point x="149" y="148" type="line"/>
			<point x="149" y="97" type="line"/>
			<point x="451" y="97" type="line"/>
			<point x="451" y="148" type="line"/>
		</contour>
	</outline>
</glyph>
<glyph name="equal.fina" format="2">
	<advance width="600"/>
	<outline>
		<contour>
			<point x="0" y="383" type="line"/>
			<point x="426" y="383" type="line"/>
			<point x="426" y="458" type="line"/>
			<point x="0" y="458" type="line"/>
		</contour>
		<contour>
			<point x="0" y="171" type="line"/>
			<point x="426" y="171" type="line"/>
			<point x="426" y="246" type="line"/>
			<point x="0" y="246" type="line"/>
		</contour>
	</outline>
</glyph>
<glyph name="equal.med" format="2">
	<advance width="600"/>
	<outline>
		<contour>
			<point x="0" y="383" type="line"/>
			<point x="600" y="383" type="line"/>
			<point x="600" y="458" type="line"/>
			<point x="0" y="458" type="line"/>
		</contour>
		<contour>
			<point x="0" y="171" type="line"/>
			<point x="600" y="171" type="line"/>
			<point x="600" y="246" type="line"/>
			<point x="0" y="246" type="line"/>
		</contour>
	</outline>
</glyph>
<glyph name="equal_colon_equal.rem" format="2">
	<advance width="600"/>
	<outline>
		<contour>
			<point x="-300" y="89" type="curve" smooth="yes"/>
			<point x="-253" y="89"/>
			<point x="-227" y="107"/>
			<point x="-227" y="156" type="curve" smooth="yes"/>
			<point x="-227" y="204"/>
			<point x="-253" y="221"/>
			<point x="-300" y="221" type="curve" smooth="yes"/>
			<point x="-347" y="221"/>
			<point x="-373" y="204"/>
			<point x="-373" y="156" type="curve" smooth="yes"/>
			<point x="-373" y="107"/>
			<point x="-347" y="89"/>
		</contour>
		<contour>
			<point x="-300" y="375" type="curve" smooth="yes"/>
			<point x="-253" y="375"/>
			<point x="-227" y="393"/>
			<point x="-227" y="442" type="curve" smooth="yes"/>
			<point x="-227" y="490"/>
			<point x="-253" y="507"/>
			<point x="-300" y="507" type="curve" smooth="yes"/>
			<point x="-347" y="507"/>
			<point x="-373" y="490"/>
			<point x="-373" y="442" type="curve" smooth="yes"/>
			<point x="-373" y="393"/>
			<point x="-347" y="375"/>
		</contour>
		<contour>
			<point x="-1027.118705035" y="364" type="line"/>
			<point x="-541.830935245" y="364" type="line"/>
			<point x="-541.830935245" y="438" type="line"/>
			<point x="-1027.118705035" y="438" type="line"/>
		</contour>
		<contour>
			<point x="-1027.118705035" y="152" type="line"/>
			<point x="-541.830935245" y="152" type="line"/>
			<point x="-541.830935245" y="226" type="line"/>
			<point x="-1027.118705035" y="226" type="line"/>
		</contour>
		<contour>
			<point x="-58.118705035" y="364" type="line"/>
			<point x="427.169064755" y="364" type="line"/>
			<point x="427.169064755" y="438" type="line"/>
			<point x="-58.118705035" y="438" type="line"/>
		</contour>
		<contour>
			<point x="-58.118705035" y="152" type="line"/>
			<point x="427.169064755" y="152" type="line"/>
			<point x="427.169064755" y="226" type="line"/>
			<point x="-58.118705035" y="226" type="line"/>
		</contour>
	</outline>
</glyph>
<glyph name="equal_greater.rem" format="2">
	<advance width="600"/>
	<outline>
		<contour>
			<point x="-426" y="171" type="line"/>
			<point x="249" y="171" type="line"/>
			<point x="97" y="0" type="line"/>
			<point x="198" y="0" type="line"/>
			<point x="475" y="313" type="line"/>
			<point x="195" y="629" type="line"/>
			<point x="94" y="629" type="line"/>
			<point x="248" y="458" type="line"/>
			<point x="-426" y="458" type="line"/>
			<point x="-426" y="383" type="line"/>
			<point x="314" y="383" type="line"/>
			<point x="376" y="314" type="line"/>
			<point x="315" y="246" type="line"/>
			<point x="-426" y="246" type="line"/>
		</contour>
	</outline>
</glyph>
<glyph name="exclam_equal.cLig" format="2">
	<advance width="600"/>
	<outline>
		<contour>
			<point x="-427" y="152" type="line"/>
			<point x="-126" y="152" type="line"/>
			<point x="-269" y="-74" type="line"/>
			<point x="-187" y="-74" type="line"/>
			<point x="-45" y="152" type="line"/>
			<point x="427" y="152" type="line"/>
			<point x="427" y="226" type="line"/>
			<point x="2" y="226" type="line"/>
			<point x="89" y="364" type="line"/>
			<point x="427" y="364" type="line"/>
			<point x="427" y="438" type="line"/>
			<point x="135" y="438" type="line"/>
			<point x="269" y="650" type="line"/>
			<point x="187" y="650" type="line"/>
			<point x="54" y="438" type="line"/>
			<point x="-427" y="438" type="line"/>
			<point x="-427" y="364" type="line"/>
			<point x="7" y="364" type="line"/>
			<point x="-80" y="226" type="line"/>
			<point x="-427" y="226" type="line"/>
		</contour>
	</outline>
</glyph>
<glyph name="four.den" format="2">
	<advance width="600"/>
	<outline>
		<contour>
			<point x="347" y="0" type="line"/>
			<point x="408" y="0" type="line"/>
			<point x="408" y="83" type="line"/>
			<point x="456" y="83" type="line"/>
			<point x="456" y="134" type="line"/>
			<point x="408" y="134" type="line"/>
			<point x="408" y="411" type="line"/>
			<point x="320" y="411" type="line"/>
			<point x="136" y="134" type="line"/>
			<point x="136" y="83" type="line"/>
			<point x="347" y="83" type="line"/>
		</contour>
		<contour>
			<point x="199" y="134" type="line"/>
			<point x="347" y="363" type="line"/>
			<point x="347" y="134" type="line"/>
		</contour>
	</outline>
</glyph>
<glyph name="greater_colon.cLig.x" format="2">
	<advance width="600"/>
	<outline>
		<contour>
			<point x="-424" y="-5" type="line"/>
			<point x="19" y="268" type="line"/>
			<point x="19" y="360" type="line"/>
			<point x="-424" y="634" type="line"/>
			<point x="-424" y="545" type="line"/>
			<point x="-45" y="313" type="line"/>
			<point x="-424" y="81" type="line"/>
		</contour>
		<contour>
			<point x="309" y="446" type="curve" smooth="yes"/>
			<point x="356" y="446"/>
			<point x="382" y="464"/>
			<point x="382" y="513" type="curve" smooth="yes"/>
			<point x="382" y="561"/>
			<point x="356" y="578"/>
			<point x="309" y="578" type="curve" smooth="yes"/>
			<point x="262" y="578"/>
			<point x="236" y="561"/>
			<point x="236" y="513" type="curve" smooth="yes"/>
			<point x="236" y="464"/>
			<point x="262" y="446"/>
		</contour>
		<contour>
			<point x="309" y="46" type="curve" smooth="yes"/>
			<point x="356" y="46"/>
			<point x="382" y="64"/>
			<point x="382" y="113" type="curve" smooth="yes"/>
			<point x="382" y="161"/>
			<point x="356" y="178"/>
			<point x="309" y="178" type="curve" smooth="yes"/>
			<point x="262" y="178"/>
			<point x="236" y="161"/>
			<point x="236" y="113" type="curve" smooth="yes"/>
			<point x="236" y="64"/>
			<point x="262" y="46"/>
		</contour>
	</outline>
</glyph>
<glyph name="greater_equal.cLig" format="2">
	<advance width="600"/>
	<outline>
		<contour>
			<point x="-290" y="182" type="line"/>
			<point x="306" y="416" type="line"/>
			<point x="306" y="508" type="line"/>
			<point x="-290" y="742" type="line"/>
			<point x="-290" y="660" type="line"/>
			<point x="233" y="462" type="line"/>
			<point x="-290" y="265" type="line"/>
		</contour>
		<contour>
			<point x="-290" y="-61" type="line"/>
			<point x="306" y="172" type="line"/>
			<point x="306" y="249" type="line"/>
			<point x="-290" y="16" type="line"/>
		</contour>
	</outline>
</glyph>
<glyph name="greater_equal.fina" format="2">
	<advance width="600"/>
	<outline>
		<contour>
			<point x="145" y="0" type="line"/>
			<point x="246" y="0" type="line"/>
			<point x="523" y="313" type="line"/>
			<point x="243" y="629" type="line"/>
			<point x="142" y="629" type="line"/>
			<point x="296" y="458" type="line"/>
			<point x="0" y="458" type="line"/>
			<point x="0" y="383" type="line"/>
			<point x="362" y="383" type="line"/>
			<point x="424" y="314" type="line"/>
			<point x="363" y="246" type="line"/>
			<point x="0" y="246" type="line"/>
			<point x="0" y="171" type="line"/>
			<point x="297" y="171" type="line"/>
		</contour>
	</outline>
</glyph>
<glyph name="greater_greater_hyphen.fina" format="2">
	<advance width="600"/>
	<outline>
		<contour>
			<point x="95" y="0" type="line"/>
			<point x="196" y="0" type="line"/>
			<point x="477" y="314" type="line"/>
			<point x="193" y="629" type="line"/>
			<point x="92" y="629" type="line"/>
			<point x="374" y="315" type="line"/>
		</contour>
		<contour>
			<point x="-600" y="276" type="line"/>
			<point x="-28" y="276" type="line"/>
			<point x="-279" y="0" type="line"/>
			<point x="-178" y="0" type="line"/>
			<point x="102" y="314" type="line"/>
			<point x="-181" y="629" type="line"/>
			<point x="-283" y="629" type="line"/>
			<point x="-29" y="353" type="line"/>
			<point x="-600" y="353" type="line"/>
		</contour>
	</outline>
</glyph>
<glyph name="greater_greater_hyphen.init" format="2">
	<advance width="600"/>
	<outline>
		<contour>
			<point x="-511" y="0" type="line"/>
			<point x="-408" y="0" type="line"/>
			<point x="-129" y="314" type="line"/>
			<point x="-411" y="629" type="line"/>
			<point x="-514" y="629" type="line"/>
			<point x="-229" y="314" type="line"/>
		</contour>
		<contour>
			<point x="-132" y="0" type="line"/>
			<point x="-30" y="0" type="line"/>
			<point x="214" y="276" type="line"/>
			<point x="600" y="276" type="line"/>
			<point x="600" y="353" type="line"/>
			<point x="212" y="353" type="line"/>
			<point x="-33" y="629" type="line"/>
			<point x="-135" y="629" type="line"/>
			<point x="145" y="313" type="line"/>
		</contour>
	</outline>
</glyph>
<glyph name="greater_greater_hyphen.med" format="2">
	<advance width="600"/>
	<outline>
		<contour>
			<point x="-70" y="0" type="line"/>
			<point x="32" y="0" type="line"/>
			<point x="269" y="265" type="line"/>
			<point x="600" y="265" type="line"/>
			<point x="600" y="342" type="line"/>
			<point x="287" y="342" type="line"/>
			<point x="29" y="629" type="line"/>
			<point x="-73" y="629" type="line"/>
			<point x="210" y="315" type="line"/>
		</contour>
		<contour>
			<point x="-600" y="276" type="line"/>
			<point x="-195" y="276" type="line"/>
			<point x="-446" y="0" type="line"/>
			<point x="-344" y="0" type="line"/>
			<point x="-64" y="314" type="line"/>
			<point x="-347" y="629" type="line"/>
			<point x="-449" y="629" type="line"/>
			<point x="-196" y="353" type="line"/>
			<point x="-600" y="353" type="line"/>
		</contour>
	</outline>
</glyph>
<glyph name="greater_greater_hyphen.rem" format="2">
	<advance width="600"/>
	<outline>
		<contour>
			<point x="-1062" y="0" type="line"/>
			<point x="-959" y="0" type="line"/>
			<point x="-680" y="314" type="line"/>
			<point x="-962" y="629" type="line"/>
			<point x="-1065" y="629" type="line"/>
			<point x="-780" y="314" type="line"/>
		</contour>
		<contour>
			<point x="-683" y="0" type="line"/>
			<point x="-581" y="0" type="line"/>
			<point x="-337" y="276" type="line"/>
			<point x="475" y="276" type="line"/>
			<point x="475" y="353" type="line"/>
			<point x="-339" y="353" type="line"/>
			<point x="-584" y="629" type="line"/>
			<point x="-686" y="629" type="line"/>
			<point x="-406" y="313" type="line"/>
		</contour>
	</outline>
</glyph>
<glyph name="greater_hyphen.fina" format="2">
	<advance width="600"/>
	<outline>
		<contour>
			<point x="131" y="629" type="line"/>
			<point x="385" y="353" type="line"/>
			<point x="0" y="353" type="line"/>
			<point x="0" y="276" type="line"/>
			<point x="386" y="276" type="line"/>
			<point x="135" y="0" type="line"/>
			<point x="237" y="0" type="line"/>
			<point x="516" y="314" type="line"/>
			<point x="234" y="629" type="line"/>
		</contour>
	</outline>
</glyph>
<glyph name="hungarumlaut.cap" format="2">
	<advance width="600"/>
	<outline>
		<contour>
			<point x="298" y="748" type="line"/>
			<point x="359" y="748" type="line"/>
			<point x="443" y="884" type="line"/>
			<point x="360" y="884" type="line"/>
		</contour>
		<contour>
			<point x="157" y="748" type="line"/>
			<point x="218" y="748" type="line"/>
			<point x="302" y="884" type="line"/>
			<point x="218" y="884" type="line"/>
		</contour>
	</outline>
	<anchor name="_top" x="258" y="684"/>
</glyph>
<glyph name="hyphen.init" format="2">
	<advance width="600"/>
	<outline>
		<contour>
			<point x="174" y="276" type="line"/>
			<point x="600" y="276" type="line"/>
			<point x="600" y="353" type="line"/>
			<point x="174" y="353" type="line"/>
		</contour>
	</outline>
</glyph>
<glyph name="hyphen.med" format="2">
	<advance width="600"/>
	<outline>
		<contour>
			<point x="600" y="353" type="line"/>
			<point x="0" y="353" type="line"/>
			<point x="0" y="276" type="line"/>
			<point x="600" y="276" type="line"/>
		</contour>
	</outline>
</glyph>
<glyph name="hyphen_bar.rem" format="2">
	<advance width="600"/>
	<outline>
		<contour>
			<point x="273" y="684" type="line"/>
			<point x="273" y="352" type="line"/>
			<point x="-426" y="352" type="line"/>
			<point x="-426" y="275" type="line"/>
			<point x="273" y="275" type="line"/>
			<point x="273" y="-57" type="line"/>
			<point x="353" y="-57" type="line"/>
			<point x="353" y="684" type="line"/>
		</contour>
	</outline>
</glyph>
<glyph name="hyphen_bar_bar.rem" format="2">
	<advance width="600"/>
	<outline>
		<contour>
			<point x="353" y="683" type="line"/>
			<point x="273" y="683" type="line"/>
			<point x="273" y="-56" type="line"/>
			<point x="353" y="-56" type="line"/>
		</contour>
		<contour>
			<point x="-30" y="683" type="line"/>
			<point x="-110" y="683" type="line"/>
			<point x="-110" y="353" type="line"/>
			<point x="-1026" y="353" type="line"/>
			<point x="-1026" y="276" type="line"/>
			<point x="-110" y="276" type="line"/>
			<point x="-110" y="-56" type="line"/>
			<point x="-30" y="-56" type="line"/>
		</contour>
	</outline>
</glyph>
<glyph name="hyphen_braceright.rem" format="2">
	<advance width="600"/>
	<outline>
		<contour>
			<point x="17" y="-163" type="line"/>
			<point x="161" y="-163" type="line" smooth="yes"/>
			<point x="276" y="-163"/>
			<point x="329" y="-104"/>
			<point x="329" y="-26" type="curve" smooth="yes"/>
			<point x="329" y="67"/>
			<point x="224" y="136"/>
			<point x="224" y="205" type="curve" smooth="yes"/>
			<point x="224" y="237"/>
			<point x="243" y="276"/>
			<point x="311" y="276" type="curve" smooth="yes"/>
			<point x="383" y="276" type="line"/>
			<point x="383" y="352" type="line"/>
			<point x="311" y="352" type="line" smooth="yes"/>
			<point x="243" y="352"/>
			<point x="224" y="390"/>
			<point x="224" y="420" type="curve" smooth="yes"/>
			<point x="224" y="490"/>
			<point x="329" y="559"/>
			<point x="329" y="655" type="curve" smooth="yes"/>
			<point x="329" y="732"/>
			<point x="269" y="792"/>
			<point x="161" y="792" type="curve" smooth="yes"/>
			<point x="17" y="792" type="line"/>
			<point x="17" y="728" type="line"/>
			<point x="141" y="728" type="line" smooth="yes"/>
			<point x="202" y="728"/>
			<point x="243" y="703"/>
			<point x="243" y="648" type="curve" smooth="yes"/>
			<point x="243" y="574"/>
			<point x="140" y="515"/>
			<point x="140" y="431" type="curve" smooth="yes"/>
			<point x="140" y="390"/>
			<point x="166" y="363"/>
			<point x="204" y="350" type="curve"/>
			<point x="-426" y="350" type="line"/>
			<point x="-426" y="279" type="line"/>
			<point x="206" y="279" type="line"/>
			<point x="167" y="265"/>
			<point x="140" y="237"/>
			<point x="140" y="196" type="curve" smooth="yes"/>
			<point x="140" y="109"/>
			<point x="243" y="55"/>
			<point x="243" y="-18" type="curve" smooth="yes"/>
			<point x="243" y="-73"/>
			<point x="203" y="-99"/>
			<point x="139" y="-99" type="curve" smooth="yes"/>
			<point x="17" y="-99" type="line"/>
		</contour>
	</outline>
</glyph>
<glyph name="less_asciitilde_asciitilde.cLig" format="2">
	<advance width="600"/>
	<outline>
		<contour>
			<point x="-704" y="0" type="line"/>
			<point x="-958" y="276" type="line"/>
			<point x="-585" y="276" type="line"/>
			<point x="-557" y="230"/>
			<point x="-516" y="206"/>
			<point x="-470" y="206" type="curve" smooth="yes"/>
			<point x="-352" y="206"/>
			<point x="-351" y="344"/>
			<point x="-267" y="344" type="curve" smooth="yes"/>
			<point x="-187" y="344"/>
			<point x="-177" y="208"/>
			<point x="-63" y="208" type="curve" smooth="yes"/>
			<point x="53" y="208"/>
			<point x="61" y="345"/>
			<point x="137" y="345" type="curve"/>
			<point x="217" y="345"/>
			<point x="225" y="207"/>
			<point x="347" y="207" type="curve" smooth="yes"/>
			<point x="435" y="207"/>
			<point x="495" y="277"/>
			<point x="512" y="399" type="curve"/>
			<point x="439" y="399" type="line"/>
			<point x="429" y="325"/>
			<point x="394" y="286"/>
			<point x="346" y="286" type="curve" smooth="yes"/>
			<point x="262" y="286"/>
			<point x="254" y="422"/>
			<point x="138" y="422" type="curve"/>
			<point x="23" y="422"/>
			<point x="22" y="286"/>
			<point x="-61" y="286" type="curve" smooth="yes"/>
			<point x="-142" y="286"/>
			<point x="-148" y="422"/>
			<point x="-263" y="422" type="curve" smooth="yes"/>
			<point x="-384" y="422"/>
			<point x="-380" y="283"/>
			<point x="-464" y="283" type="curve" smooth="yes"/>
			<point x="-503" y="283"/>
			<point x="-529" y="308"/>
			<point x="-547" y="353" type="curve"/>
			<point x="-959" y="353" type="line"/>
			<point x="-708" y="629" type="line"/>
			<point x="-810" y="629" type="line"/>
			<point x="-1089" y="315" type="line"/>
			<point x="-807" y="0" type="line"/>
		</contour>
	</outline>
</glyph>
<glyph name="less_asciitilde_greater.cLig" format="2">
	<advance width="600"/>
	<outline>
		<contour>
			<point x="-821" y="0" type="line"/>
			<point x="-720" y="0" type="line"/>
			<point x="-972" y="276" type="line"/>
			<point x="-502" y="276" type="line"/>
			<point x="-499" y="326"/>
			<point x="-474" y="363"/>
			<point x="-430" y="363" type="curve" smooth="yes"/>
			<point x="-334" y="363"/>
			<point x="-304" y="190"/>
			<point x="-168" y="190" type="curve" smooth="yes"/>
			<point x="-108" y="190"/>
			<point x="-65" y="224"/>
			<point x="-45" y="276" type="curve"/>
			<point x="372" y="276" type="line"/>
			<point x="123" y="0" type="line"/>
			<point x="224" y="0" type="line"/>
			<point x="504" y="314" type="line"/>
			<point x="221" y="629" type="line"/>
			<point x="119" y="629" type="line"/>
			<point x="372" y="353" type="line"/>
			<point x="-98" y="353" type="line"/>
			<point x="-101" y="304"/>
			<point x="-125" y="267"/>
			<point x="-169" y="267" type="curve" smooth="yes"/>
			<point x="-262" y="267"/>
			<point x="-299" y="440"/>
			<point x="-431" y="440" type="curve" smooth="yes"/>
			<point x="-491" y="440"/>
			<point x="-535" y="406"/>
			<point x="-555" y="353" type="curve"/>
			<point x="-973" y="353" type="line"/>
			<point x="-723" y="629" type="line"/>
			<point x="-824" y="629" type="line"/>
			<point x="-1104" y="315" type="line"/>
		</contour>
	</outline>
</glyph>
<glyph name="less_bar_greater.cLig" format="2">
	<advance width="600"/>
	<outline>
		<contour>
			<point x="-340" y="-162" type="line"/>
			<point x="-260" y="-162" type="line"/>
			<point x="-260" y="792" type="line"/>
			<point x="-340" y="792" type="line"/>
		</contour>
		<contour>
			<point x="-503" y="-78" type="line"/>
			<point x="-503" y="14" type="line"/>
			<point x="-976" y="316" type="line"/>
			<point x="-503" y="615" type="line"/>
			<point x="-503" y="708" type="line"/>
			<point x="-1050" y="360" type="line"/>
			<point x="-1050" y="269" type="line"/>
		</contour>
		<contour>
			<point x="-97" y="-78" type="line"/>
			<point x="450" y="269" type="line"/>
			<point x="450" y="360" type="line"/>
			<point x="-97" y="708" type="line"/>
			<point x="-97" y="616" type="line"/>
			<point x="376" y="314" type="line"/>
			<point x="-97" y="15" type="line"/>
		</contour>
	</outline>
</glyph>
<glyph name="less_colon.cLig.x" format="2">
	<advance width="600"/>
	<outline>
		<contour>
			<point x="-9" y="-5" type="line"/>
			<point x="-9" y="83" type="line"/>
			<point x="-387" y="314" type="line"/>
			<point x="-9" y="546" type="line"/>
			<point x="-9" y="634" type="line"/>
			<point x="-452" y="360" type="line"/>
			<point x="-452" y="268" type="line"/>
		</contour>
		<contour>
			<point x="309" y="446" type="curve" smooth="yes"/>
			<point x="356" y="446"/>
			<point x="382" y="464"/>
			<point x="382" y="513" type="curve" smooth="yes"/>
			<point x="382" y="561"/>
			<point x="356" y="578"/>
			<point x="309" y="578" type="curve" smooth="yes"/>
			<point x="262" y="578"/>
			<point x="236" y="561"/>
			<point x="236" y="513" type="curve" smooth="yes"/>
			<point x="236" y="464"/>
			<point x="262" y="446"/>
		</contour>
		<contour>
			<point x="309" y="46" type="curve" smooth="yes"/>
			<point x="356" y="46"/>
			<point x="382" y="64"/>
			<point x="382" y="113" type="curve" smooth="yes"/>
			<point x="382" y="161"/>
			<point x="356" y="178"/>
			<point x="309" y="178" type="curve" smooth="yes"/>
			<point x="262" y="178"/>
			<point x="236" y="161"/>
			<point x="236" y="113" type="curve" smooth="yes"/>
			<point x="236" y="64"/>
			<point x="262" y="46"/>
		</contour>
	</outline>
</glyph>
<glyph name="less_dollar_greater.cLig" format="2">
	<advance width="600"/>
	<outline>
		<contour>
			<point x="-404" y="-93" type="line"/>
			<point x="-340" y="-93" type="line"/>
			<point x="-327" y="-10" type="line"/>
			<point x="-319" y="-11"/>
			<point x="-310" y="-11"/>
			<point x="-301" y="-11" type="curve" smooth="yes"/>
			<point x="-155" y="-11"/>
			<point x="-57" y="64"/>
			<point x="-57" y="199" type="curve" smooth="yes"/>
			<point x="-57" y="335"/>
			<point x="-160" y="360"/>
			<point x="-270" y="378" type="curve"/>
			<point x="-232" y="620" type="line"/>
			<point x="-139" y="605"/>
			<point x="-47" y="559"/>
			<point x="63" y="501" type="curve" smooth="yes"/>
			<point x="421" y="314" type="line"/>
			<point x="71" y="131" type="line"/>
			<point x="71" y="46" type="line"/>
			<point x="489" y="268" type="line"/>
			<point x="489" y="360" type="line"/>
			<point x="98" y="567" type="line" smooth="yes"/>
			<point x="-5" y="622"/>
			<point x="-109" y="672"/>
			<point x="-217" y="689" type="curve"/>
			<point x="-203" y="774" type="line"/>
			<point x="-268" y="774" type="line"/>
			<point x="-280" y="696" type="line"/>
			<point x="-295" y="696" type="line" smooth="yes"/>
			<point x="-441" y="696"/>
			<point x="-546" y="623"/>
			<point x="-546" y="490" type="curve" smooth="yes"/>
			<point x="-546" y="353"/>
			<point x="-449" y="324"/>
			<point x="-338" y="306" type="curve"/>
			<point x="-376" y="66" type="line"/>
			<point x="-456" y="76"/>
			<point x="-545" y="103"/>
			<point x="-634" y="144" type="curve" smooth="yes"/>
			<point x="-1016" y="319" type="line"/>
			<point x="-671" y="501" type="line"/>
			<point x="-671" y="585" type="line"/>
			<point x="-1089" y="363" type="line"/>
			<point x="-1089" y="271" type="line"/>
			<point x="-667" y="77" type="line" smooth="yes"/>
			<point x="-573" y="35"/>
			<point x="-481" y="6"/>
			<point x="-391" y="-5" type="curve"/>
		</contour>
		<contour>
			<point x="-461" y="497" type="curve" smooth="yes"/>
			<point x="-461" y="582"/>
			<point x="-392" y="625"/>
			<point x="-297" y="625" type="curve" smooth="yes"/>
			<point x="-288" y="625" type="line"/>
			<point x="-325" y="386" type="line"/>
			<point x="-405" y="400"/>
			<point x="-461" y="419"/>
		</contour>
		<contour>
			<point x="-143" y="190" type="curve" smooth="yes"/>
			<point x="-143" y="102"/>
			<point x="-204" y="61"/>
			<point x="-304" y="61" type="curve" smooth="yes"/>
			<point x="-319" y="61" type="line"/>
			<point x="-283" y="297" type="line"/>
			<point x="-201" y="285"/>
			<point x="-143" y="269"/>
		</contour>
	</outline>
</glyph>
<glyph name="less_equal.rem" format="2">
	<advance width="600"/>
	<outline>
		<contour>
			<point x="491" y="629" type="line"/>
			<point x="390" y="629" type="line"/>
			<point x="243" y="458" type="line"/>
			<point x="-444" y="458" type="line"/>
			<point x="-444" y="383" type="line"/>
			<point x="278" y="383" type="line"/>
		</contour>
		<contour>
			<point x="279" y="246" type="line"/>
			<point x="-444" y="246" type="line"/>
			<point x="-444" y="171" type="line"/>
			<point x="244" y="171" type="line"/>
			<point x="393" y="0" type="line"/>
			<point x="494" y="0" type="line"/>
		</contour>
	</outline>
</glyph>
<glyph name="less_equal_equal_greater.rem" format="2">
	<advance width="600"/>
	<outline>
		<contour>
			<point x="95" y="0" type="line"/>
			<point x="196" y="0" type="line"/>
			<point x="473" y="313" type="line"/>
			<point x="193" y="629" type="line"/>
			<point x="92" y="629" type="line"/>
			<point x="245" y="458" type="line"/>
			<point x="-1447" y="458" type="line"/>
			<point x="-1295" y="629" type="line"/>
			<point x="-1396" y="629" type="line"/>
			<point x="-1673" y="316" type="line"/>
			<point x="-1393" y="0" type="line"/>
			<point x="-1292" y="0" type="line"/>
			<point x="-1445" y="171" type="line"/>
			<point x="247" y="171" type="line"/>
		</contour>
		<contour>
			<point x="374" y="314" type="line"/>
			<point x="313" y="246" type="line"/>
			<point x="-1512" y="246" type="line"/>
			<point x="-1574" y="315" type="line"/>
			<point x="-1513" y="383" type="line"/>
			<point x="312" y="383" type="line"/>
		</contour>
	</outline>
</glyph>
<glyph name="less_greater.cLig" format="2">
	<advance width="600"/>
	<outline>
		<contour>
			<point x="0" y="-81" type="line"/>
			<point x="451" y="268" type="line"/>
			<point x="451" y="360" type="line"/>
			<point x="0" y="708" type="line"/>
			<point x="-451" y="361" type="line"/>
			<point x="-451" y="268" type="line"/>
		</contour>
		<contour>
			<point x="0" y="615" type="line"/>
			<point x="391" y="314" type="line"/>
			<point x="0" y="12" type="line"/>
			<point x="-390" y="316" type="line"/>
		</contour>
	</outline>
</glyph>
<glyph name="less_hyphen.rem" format="2">
	<advance width="600"/>
	<outline>
		<contour>
			<point x="-49" y="0" type="line"/>
			<point x="-303" y="276" type="line"/>
			<point x="426" y="276" type="line"/>
			<point x="426" y="353" type="line"/>
			<point x="-304" y="353" type="line"/>
			<point x="-53" y="629" type="line"/>
			<point x="-155" y="629" type="line"/>
			<point x="-434" y="315" type="line"/>
			<point x="-152" y="0" type="line"/>
		</contour>
	</outline>
</glyph>
<glyph name="less_hyphen_hyphen.rem" format="2">
	<advance width="600"/>
	<outline>
		<contour>
			<point x="-649" y="0" type="line"/>
			<point x="-903" y="276" type="line"/>
			<point x="426" y="276" type="line"/>
			<point x="426" y="353" type="line"/>
			<point x="-904" y="353" type="line"/>
			<point x="-653" y="629" type="line"/>
			<point x="-754" y="629" type="line"/>
			<point x="-1034" y="315" type="line"/>
			<point x="-751" y="0" type="line"/>
		</contour>
	</outline>
</glyph>
<glyph name="less_less_equal.med" format="2">
	<advance width="600"/>
	<outline>
		<contour>
			<point x="455" y="629" type="line"/>
			<point x="354" y="629" type="line"/>
			<point x="77" y="316" type="line"/>
			<point x="357" y="0" type="line"/>
			<point x="458" y="0" type="line"/>
			<point x="304" y="171" type="line"/>
			<point x="600" y="171" type="line"/>
			<point x="600" y="246" type="line"/>
			<point x="238" y="246" type="line"/>
			<point x="176" y="315" type="line"/>
			<point x="237" y="383" type="line"/>
			<point x="600" y="383" type="line"/>
			<point x="600" y="458" type="line"/>
			<point x="303" y="458" type="line"/>
		</contour>
		<contour>
			<point x="-134" y="246" type="line"/>
			<point x="-600" y="246" type="line"/>
			<point x="-600" y="171" type="line"/>
			<point x="-168" y="171" type="line"/>
			<point x="-20" y="0" type="line"/>
			<point x="82" y="0" type="line"/>
		</contour>
		<contour>
			<point x="79" y="629" type="line"/>
			<point x="-23" y="629" type="line"/>
			<point x="-170" y="458" type="line"/>
			<point x="-600" y="458" type="line"/>
			<point x="-600" y="383" type="line"/>
			<point x="-134" y="383" type="line"/>
		</contour>
	</outline>
</glyph>
<glyph name="less_less_hyphen.fina" format="2">
	<advance width="600"/>
	<outline>
		<contour>
			<point x="511" y="629" type="line"/>
			<point x="408" y="629" type="line"/>
			<point x="129" y="315" type="line"/>
			<point x="411" y="0" type="line"/>
			<point x="514" y="0" type="line"/>
			<point x="229" y="315" type="line"/>
		</contour>
		<contour>
			<point x="132" y="629" type="line"/>
			<point x="30" y="629" type="line"/>
			<point x="-214" y="353" type="line"/>
			<point x="-600" y="353" type="line"/>
			<point x="-600" y="276" type="line"/>
			<point x="-212" y="276" type="line"/>
			<point x="33" y="0" type="line"/>
			<point x="135" y="0" type="line"/>
			<point x="-145" y="316" type="line"/>
		</contour>
	</outline>
</glyph>
<glyph name="less_less_hyphen.med" format="2">
	<advance width="600"/>
	<outline>
		<contour>
			<point x="70" y="629" type="line"/>
			<point x="-32" y="629" type="line"/>
			<point x="-269" y="364" type="line"/>
			<point x="-600" y="364" type="line"/>
			<point x="-600" y="287" type="line"/>
			<point x="-287" y="287" type="line"/>
			<point x="-29" y="0" type="line"/>
			<point x="73" y="0" type="line"/>
			<point x="-210" y="314" type="line"/>
		</contour>
		<contour>
			<point x="600" y="353" type="line"/>
			<point x="195" y="353" type="line"/>
			<point x="446" y="629" type="line"/>
			<point x="344" y="629" type="line"/>
			<point x="64" y="315" type="line"/>
			<point x="347" y="0" type="line"/>
			<point x="449" y="0" type="line"/>
			<point x="196" y="276" type="line"/>
			<point x="600" y="276" type="line"/>
		</contour>
	</outline>
</glyph>
<glyph name="less_plus.cLig" format="2">
	<advance width="600"/>
	<outline>
		<contour>
			<point x="-41" y="-5" type="line"/>
			<point x="-41" y="83" type="line"/>
			<point x="-418" y="313" type="line"/>
			<point x="-41" y="546" type="line"/>
			<point x="-41" y="634" type="line"/>
			<point x="-484" y="360" type="line"/>
			<point x="-484" y="268" type="line"/>
		</contour>
		<contour>
			<point x="218" y="527" type="line"/>
			<point x="218" y="338" type="line"/>
			<point x="31" y="338" type="line"/>
			<point x="31" y="264" type="line"/>
			<point x="218" y="264" type="line"/>
			<point x="218" y="74" type="line"/>
			<point x="294" y="74" type="line"/>
			<point x="294" y="264" type="line"/>
			<point x="481" y="264" type="line"/>
			<point x="481" y="338" type="line"/>
			<point x="294" y="338" type="line"/>
			<point x="294" y="527" type="line"/>
		</contour>
	</outline>
</glyph>
<glyph name="less_slash.cLig" format="2">
	<advance width="600"/>
	<outline>
		<contour>
			<point x="-53" y="579" type="line"/>
			<point x="-496" y="361" type="line"/>
			<point x="-496" y="268" type="line"/>
			<point x="88" y="-22" type="line"/>
			<point x="32" y="-163" type="line"/>
			<point x="117" y="-163" type="line"/>
			<point x="496" y="792" type="line"/>
			<point x="410" y="792" type="line"/>
			<point x="116" y="49" type="line"/>
			<point x="-423" y="315" type="line"/>
			<point x="-53" y="494" type="line"/>
		</contour>
	</outline>
</glyph>
<glyph name="less_slash_greater.cLig" format="2">
	<advance width="600"/>
	<outline>
		<contour>
			<point x="17" y="50" type="line"/>
			<point x="460" y="268" type="line"/>
			<point x="460" y="361" type="line"/>
			<point x="-123" y="651" type="line"/>
			<point x="-67" y="792" type="line"/>
			<point x="-153" y="792" type="line"/>
			<point x="-448" y="48" type="line"/>
			<point x="-987" y="315" type="line"/>
			<point x="-617" y="493" type="line"/>
			<point x="-617" y="578" type="line"/>
			<point x="-1060" y="360" type="line"/>
			<point x="-1060" y="268" type="line"/>
			<point x="-476" y="-23" type="line"/>
			<point x="-531" y="-163" type="line"/>
			<point x="-446" y="-163" type="line"/>
			<point x="-151" y="580" type="line"/>
			<point x="387" y="314" type="line"/>
			<point x="17" y="136" type="line"/>
		</contour>
	</outline>
</glyph>
<glyph name="nine.den" format="2">
	<advance width="600"/>
	<outline>
		<contour>
			<point x="277" y="-8" type="curve" smooth="yes"/>
			<point x="421" y="-8"/>
			<point x="454" y="102"/>
			<point x="454" y="221" type="curve" smooth="yes"/>
			<point x="454" y="335"/>
			<point x="424" y="418"/>
			<point x="297" y="418" type="curve" smooth="yes"/>
			<point x="201" y="418"/>
			<point x="146" y="355"/>
			<point x="146" y="271" type="curve" smooth="yes"/>
			<point x="146" y="198"/>
			<point x="186" y="143"/>
			<point x="274" y="143" type="curve" smooth="yes"/>
			<point x="329" y="143"/>
			<point x="368" y="168"/>
			<point x="388" y="219" type="curve"/>
			<point x="388" y="103"/>
			<point x="363" y="43"/>
			<point x="271" y="43" type="curve" smooth="yes"/>
			<point x="231" y="43"/>
			<point x="183" y="60"/>
			<point x="155" y="84" type="curve"/>
			<point x="155" y="26" type="line"/>
			<point x="181" y="8"/>
			<point x="231" y="-8"/>
		</contour>
		<contour>
			<point x="296" y="189" type="curve" smooth="yes"/>
			<point x="240" y="189"/>
			<point x="210" y="217"/>
			<point x="210" y="274" type="curve" smooth="yes"/>
			<point x="210" y="337"/>
			<point x="244" y="370"/>
			<point x="297" y="370" type="curve" smooth="yes"/>
			<point x="357" y="370"/>
			<point x="387" y="329"/>
			<point x="387" y="274" type="curve" smooth="yes"/>
			<point x="387" y="218"/>
			<point x="349" y="189"/>
		</contour>
	</outline>
</glyph>
<glyph name="nine.numr" format="2">
	<advance width="600"/>
	<outline>
		<contour>
			<point x="280" y="366" type="curve" smooth="yes"/>
			<point x="401" y="366"/>
			<point x="431" y="458"/>
			<point x="431" y="559" type="curve" smooth="yes"/>
			<point x="431" y="654"/>
			<point x="405" y="724"/>
			<point x="300" y="724" type="curve" smooth="yes"/>
			<point x="217" y="724"/>
			<point x="170" y="670"/>
			<point x="170" y="599" type="curve" smooth="yes"/>
			<point x="170" y="537"/>
			<point x="203" y="491"/>
			<point x="275" y="491" type="curve" smooth="yes"/>
			<point x="326" y="491"/>
			<point x="357" y="516"/>
			<point x="374" y="557" type="curve"/>
			<point x="372" y="461"/>
			<point x="352" y="412"/>
			<point x="275" y="412" type="curve" smooth="yes"/>
			<point x="240" y="412"/>
			<point x="200" y="426"/>
			<point x="178" y="444" type="curve"/>
			<point x="178" y="394" type="line"/>
			<point x="200" y="378"/>
			<point x="242" y="366"/>
		</contour>
		<contour>
			<point x="297" y="534" type="curve" smooth="yes"/>
			<point x="252" y="534"/>
			<point x="226" y="556"/>
			<point x="226" y="603" type="curve" smooth="yes"/>
			<point x="226" y="653"/>
			<point x="254" y="681"/>
			<point x="299" y="681" type="curve" smooth="yes"/>
			<point x="346" y="681"/>
			<point x="373" y="648"/>
			<point x="373" y="603" type="curve" smooth="yes"/>
			<point x="373" y="557"/>
			<point x="341" y="534"/>
		</contour>
	</outline>
</glyph>
<glyph name="numbersign.fina" format="2">
	<advance width="600"/>
	<outline>
		<contour>
			<point x="0" y="236" type="line"/>
			<point x="0" y="168" type="line"/>
			<point x="133" y="168" type="line"/>
			<point x="117" y="0" type="line"/>
			<point x="189" y="0" type="line"/>
			<point x="205" y="168" type="line"/>
			<point x="346" y="168" type="line"/>
			<point x="330" y="0" type="line"/>
			<point x="400" y="0" type="line"/>
			<point x="417" y="168" type="line"/>
			<point x="531" y="168" type="line"/>
			<point x="531" y="236" type="line"/>
			<point x="423" y="236" type="line"/>
			<point x="445" y="459" type="line"/>
			<point x="555" y="459" type="line"/>
			<point x="555" y="528" type="line"/>
			<point x="451" y="528" type="line"/>
			<point x="466" y="684" type="line"/>
			<point x="395" y="684" type="line"/>
			<point x="380" y="528" type="line"/>
			<point x="239" y="528" type="line"/>
			<point x="253" y="684" type="line"/>
			<point x="183" y="684" type="line"/>
			<point x="168" y="528" type="line"/>
			<point x="0" y="528" type="line"/>
			<point x="0" y="459" type="line"/>
			<point x="161" y="459" type="line"/>
			<point x="140" y="236" type="line"/>
		</contour>
		<contour>
			<point x="212" y="236" type="line"/>
			<point x="232" y="459" type="line"/>
			<point x="374" y="459" type="line"/>
			<point x="353" y="236" type="line"/>
		</contour>
	</outline>
</glyph>
<glyph name="numbersign_braceleft.cLig" format="2">
	<advance width="600"/>
	<outline>
		<contour>
			<point x="349" y="-163" type="curve" smooth="yes"/>
			<point x="491" y="-163" type="line"/>
			<point x="491" y="-99" type="line"/>
			<point x="370" y="-99" type="line" smooth="yes"/>
			<point x="305" y="-99"/>
			<point x="266" y="-72"/>
			<point x="266" y="-16" type="curve" smooth="yes"/>
			<point x="266" y="58"/>
			<point x="372" y="116"/>
			<point x="372" y="207" type="curve" smooth="yes"/>
			<point x="372" y="262"/>
			<point x="321" y="303"/>
			<point x="254" y="314" type="curve"/>
			<point x="321" y="325"/>
			<point x="372" y="365"/>
			<point x="372" y="419" type="curve" smooth="yes"/>
			<point x="372" y="512"/>
			<point x="266" y="571"/>
			<point x="266" y="646" type="curve" smooth="yes"/>
			<point x="266" y="703"/>
			<point x="308" y="728"/>
			<point x="369" y="728" type="curve" smooth="yes"/>
			<point x="491" y="728" type="line"/>
			<point x="491" y="792" type="line"/>
			<point x="349" y="792" type="line" smooth="yes"/>
			<point x="240" y="792"/>
			<point x="181" y="729"/>
			<point x="181" y="653" type="curve" smooth="yes"/>
			<point x="181" y="558"/>
			<point x="288" y="493"/>
			<point x="288" y="422" type="curve" smooth="yes"/>
			<point x="288" y="392"/>
			<point x="266" y="352"/>
			<point x="189" y="352" type="curve" smooth="yes"/>
			<point x="140" y="352" type="line"/>
			<point x="140" y="276" type="line"/>
			<point x="189" y="276" type="line" smooth="yes"/>
			<point x="265" y="276"/>
			<point x="288" y="236"/>
			<point x="288" y="205" type="curve" smooth="yes"/>
			<point x="288" y="135"/>
			<point x="181" y="70"/>
			<point x="181" y="-24" type="curve" smooth="yes"/>
			<point x="181" y="-101"/>
			<point x="234" y="-163"/>
		</contour>
		<contour>
			<point x="-504" y="236" type="line"/>
			<point x="-504" y="168" type="line"/>
			<point x="-400" y="168" type="line"/>
			<point x="-416" y="0" type="line"/>
			<point x="-344" y="0" type="line"/>
			<point x="-328" y="168" type="line"/>
			<point x="-187" y="168" type="line"/>
			<point x="-203" y="0" type="line"/>
			<point x="-133" y="0" type="line"/>
			<point x="-117" y="168" type="line"/>
			<point x="51" y="168" type="line"/>
			<point x="51" y="236" type="line"/>
			<point x="-110" y="236" type="line"/>
			<point x="-89" y="459" type="line"/>
			<point x="51" y="459" type="line"/>
			<point x="51" y="528" type="line"/>
			<point x="-82" y="528" type="line"/>
			<point x="-67" y="684" type="line"/>
			<point x="-138" y="684" type="line"/>
			<point x="-153" y="528" type="line"/>
			<point x="-294" y="528" type="line"/>
			<point x="-280" y="684" type="line"/>
			<point x="-350" y="684" type="line"/>
			<point x="-365" y="528" type="line"/>
			<point x="-480" y="528" type="line"/>
			<point x="-480" y="459" type="line"/>
			<point x="-372" y="459" type="line"/>
			<point x="-393" y="236" type="line"/>
		</contour>
		<contour>
			<point x="-322" y="236" type="line"/>
			<point x="-301" y="459" type="line"/>
			<point x="-160" y="459" type="line"/>
			<point x="-180" y="236" type="line"/>
		</contour>
	</outline>
</glyph>
<glyph name="numbersign_braceright.cLig" format="2">
	<advance width="600"/>
	<outline>
		<contour>
			<point x="472" y="354" type="line"/>
			<point x="415" y="354" type="line" smooth="yes"/>
			<point x="339" y="354"/>
			<point x="316" y="393"/>
			<point x="316" y="424" type="curve" smooth="yes"/>
			<point x="316" y="494"/>
			<point x="423" y="558"/>
			<point x="423" y="652" type="curve" smooth="yes"/>
			<point x="423" y="730"/>
			<point x="371" y="792"/>
			<point x="255" y="792" type="curve" smooth="yes"/>
			<point x="112" y="792" type="line"/>
			<point x="112" y="728" type="line"/>
			<point x="234" y="728" type="line" smooth="yes"/>
			<point x="299" y="728"/>
			<point x="339" y="702"/>
			<point x="339" y="645" type="curve" smooth="yes"/>
			<point x="339" y="571"/>
			<point x="233" y="513"/>
			<point x="233" y="421" type="curve" smooth="yes"/>
			<point x="233" y="367"/>
			<point x="285" y="326"/>
			<point x="352" y="315" type="curve"/>
			<point x="285" y="304"/>
			<point x="233" y="264"/>
			<point x="233" y="210" type="curve" smooth="yes"/>
			<point x="233" y="117"/>
			<point x="339" y="58"/>
			<point x="339" y="-17" type="curve" smooth="yes"/>
			<point x="339" y="-74"/>
			<point x="296" y="-99"/>
			<point x="235" y="-99" type="curve" smooth="yes"/>
			<point x="112" y="-99" type="line"/>
			<point x="112" y="-163" type="line"/>
			<point x="255" y="-163" type="line" smooth="yes"/>
			<point x="365" y="-163"/>
			<point x="423" y="-100"/>
			<point x="423" y="-24" type="curve" smooth="yes"/>
			<point x="423" y="71"/>
			<point x="316" y="136"/>
			<point x="316" y="207" type="curve" smooth="yes"/>
			<point x="316" y="238"/>
			<point x="339" y="277"/>
			<point x="415" y="277" type="curve" smooth="yes"/>
			<point x="472" y="277" type="line"/>
		</contour>
		<contour>
			<point x="-455" y="236" type="line"/>
			<point x="-455" y="168" type="line"/>
			<point x="-351" y="168" type="line"/>
			<point x="-367" y="0" type="line"/>
			<point x="-295" y="0" type="line"/>
			<point x="-279" y="168" type="line"/>
			<point x="-138" y="168" type="line"/>
			<point x="-154" y="0" type="line"/>
			<point x="-84" y="0" type="line"/>
			<point x="-68" y="168" type="line"/>
			<point x="100" y="168" type="line"/>
			<point x="100" y="236" type="line"/>
			<point x="-61" y="236" type="line"/>
			<point x="-40" y="459" type="line"/>
			<point x="100" y="459" type="line"/>
			<point x="100" y="528" type="line"/>
			<point x="-33" y="528" type="line"/>
			<point x="-18" y="684" type="line"/>
			<point x="-90" y="684" type="line"/>
			<point x="-104" y="528" type="line"/>
			<point x="-245" y="528" type="line"/>
			<point x="-231" y="684" type="line"/>
			<point x="-301" y="684" type="line"/>
			<point x="-316" y="528" type="line"/>
			<point x="-431" y="528" type="line"/>
			<point x="-431" y="459" type="line"/>
			<point x="-323" y="459" type="line"/>
			<point x="-345" y="236" type="line"/>
		</contour>
		<contour>
			<point x="-273" y="236" type="line"/>
			<point x="-252" y="459" type="line"/>
			<point x="-111" y="459" type="line"/>
			<point x="-132" y="236" type="line"/>
		</contour>
	</outline>
</glyph>
<glyph name="numbersign_bracketleft.cLig" format="2">
	<advance width="600"/>
	<outline>
		<contour>
			<point x="-476" y="236" type="line"/>
			<point x="-476" y="168" type="line"/>
			<point x="-372" y="168" type="line"/>
			<point x="-388" y="0" type="line"/>
			<point x="-316" y="0" type="line"/>
			<point x="-300" y="168" type="line"/>
			<point x="-159" y="168" type="line"/>
			<point x="-175" y="0" type="line"/>
			<point x="-105" y="0" type="line"/>
			<point x="-89" y="168" type="line"/>
			<point x="182" y="168" type="line"/>
			<point x="182" y="-163" type="line"/>
			<point x="465" y="-163" type="line"/>
			<point x="465" y="-99" type="line"/>
			<point x="261" y="-99" type="line"/>
			<point x="261" y="728" type="line"/>
			<point x="465" y="728" type="line"/>
			<point x="465" y="792" type="line"/>
			<point x="182" y="792" type="line"/>
			<point x="182" y="528" type="line"/>
			<point x="-54" y="528" type="line"/>
			<point x="-39" y="684" type="line"/>
			<point x="-111" y="684" type="line"/>
			<point x="-125" y="528" type="line"/>
			<point x="-267" y="528" type="line"/>
			<point x="-252" y="684" type="line"/>
			<point x="-323" y="684" type="line"/>
			<point x="-338" y="528" type="line"/>
			<point x="-452" y="528" type="line"/>
			<point x="-452" y="459" type="line"/>
			<point x="-344" y="459" type="line"/>
			<point x="-366" y="236" type="line"/>
		</contour>
		<contour>
			<point x="-294" y="236" type="line"/>
			<point x="-273" y="459" type="line"/>
			<point x="-132" y="459" type="line"/>
			<point x="-153" y="236" type="line"/>
		</contour>
		<contour>
			<point x="-82" y="236" type="line"/>
			<point x="-61" y="459" type="line"/>
			<point x="182" y="459" type="line"/>
			<point x="182" y="236" type="line"/>
		</contour>
	</outline>
</glyph>
<glyph name="numbersign_bracketright.cLig" format="2">
	<advance width="600"/>
	<outline>
		<contour>
			<point x="119" y="-163" type="line"/>
			<point x="402" y="-163" type="line"/>
			<point x="402" y="792" type="line"/>
			<point x="119" y="792" type="line"/>
			<point x="119" y="728" type="line"/>
			<point x="323" y="728" type="line"/>
			<point x="323" y="-99" type="line"/>
			<point x="119" y="-99" type="line"/>
		</contour>
		<contour>
			<point x="-453" y="236" type="line"/>
			<point x="-453" y="168" type="line"/>
			<point x="-349" y="168" type="line"/>
			<point x="-365" y="0" type="line"/>
			<point x="-293" y="0" type="line"/>
			<point x="-277" y="168" type="line"/>
			<point x="-136" y="168" type="line"/>
			<point x="-152" y="0" type="line"/>
			<point x="-82" y="0" type="line"/>
			<point x="-66" y="168" type="line"/>
			<point x="102" y="168" type="line"/>
			<point x="102" y="236" type="line"/>
			<point x="-59" y="236" type="line"/>
			<point x="-38" y="459" type="line"/>
			<point x="102" y="459" type="line"/>
			<point x="102" y="528" type="line"/>
			<point x="-31" y="528" type="line"/>
			<point x="-16" y="684" type="line"/>
			<point x="-88" y="684" type="line"/>
			<point x="-102" y="528" type="line"/>
			<point x="-243" y="528" type="line"/>
			<point x="-229" y="684" type="line"/>
			<point x="-299" y="684" type="line"/>
			<point x="-314" y="528" type="line"/>
			<point x="-429" y="528" type="line"/>
			<point x="-429" y="459" type="line"/>
			<point x="-321" y="459" type="line"/>
			<point x="-343" y="236" type="line"/>
		</contour>
		<contour>
			<point x="-271" y="236" type="line"/>
			<point x="-250" y="459" type="line"/>
			<point x="-109" y="459" type="line"/>
			<point x="-130" y="236" type="line"/>
		</contour>
	</outline>
</glyph>
<glyph name="numbersign_colon.cLig_rem" format="2">
	<advance width="600"/>
	<outline>
		<contour>
			<point x="359" y="96" type="curve" smooth="yes"/>
			<point x="406" y="96"/>
			<point x="432" y="114"/>
			<point x="432" y="163" type="curve" smooth="yes"/>
			<point x="432" y="211"/>
			<point x="406" y="228"/>
			<point x="359" y="228" type="curve" smooth="yes"/>
			<point x="312" y="228"/>
			<point x="286" y="211"/>
			<point x="286" y="163" type="curve" smooth="yes"/>
			<point x="286" y="114"/>
			<point x="312" y="96"/>
		</contour>
		<contour>
			<point x="-456" y="236" type="line"/>
			<point x="-456" y="168" type="line"/>
			<point x="-352" y="168" type="line"/>
			<point x="-368" y="0" type="line"/>
			<point x="-296" y="0" type="line"/>
			<point x="-280" y="168" type="line"/>
			<point x="-139" y="168" type="line"/>
			<point x="-155" y="0" type="line"/>
			<point x="-85" y="0" type="line"/>
			<point x="-69" y="168" type="line"/>
			<point x="99" y="168" type="line"/>
			<point x="99" y="236" type="line"/>
			<point x="-62" y="236" type="line"/>
			<point x="-41" y="459" type="line"/>
			<point x="99" y="459" type="line"/>
			<point x="99" y="528" type="line"/>
			<point x="-34" y="528" type="line"/>
			<point x="-19" y="684" type="line"/>
			<point x="-91" y="684" type="line"/>
			<point x="-105" y="528" type="line"/>
			<point x="-246" y="528" type="line"/>
			<point x="-232" y="684" type="line"/>
			<point x="-302" y="684" type="line"/>
			<point x="-317" y="528" type="line"/>
			<point x="-432" y="528" type="line"/>
			<point x="-432" y="459" type="line"/>
			<point x="-324" y="459" type="line"/>
			<point x="-346" y="236" type="line"/>
		</contour>
		<contour>
			<point x="-274" y="236" type="line"/>
			<point x="-253" y="459" type="line"/>
			<point x="-112" y="459" type="line"/>
			<point x="-133" y="236" type="line"/>
		</contour>
		<contour>
			<point x="359" y="464" type="curve" smooth="yes"/>
			<point x="406" y="464"/>
			<point x="432" y="482"/>
			<point x="432" y="531" type="curve" smooth="yes"/>
			<point x="432" y="579"/>
			<point x="406" y="596"/>
			<point x="359" y="596" type="curve" smooth="yes"/>
			<point x="312" y="596"/>
			<point x="286" y="579"/>
			<point x="286" y="531" type="curve" smooth="yes"/>
			<point x="286" y="482"/>
			<point x="312" y="464"/>
		</contour>
	</outline>
</glyph>
